Heroe Pro.ufo
<glyph name="exclam" format="2">
  <advance width="242"/>
  <unicode hex="0021"/>
  <outline>
    <contour>
      <point x="36" y="54" type="curve" smooth="yes"/>
      <point x="30" y="19"/>
      <point x="54" y="-8"/>
      <point x="89" y="-8" type="curve" smooth="yes"/>
      <point x="123" y="-8"/>
      <point x="154" y="19"/>
      <point x="160" y="54" type="curve" smooth="yes"/>
      <point x="165" y="89"/>
      <point x="141" y="116"/>
      <point x="106" y="116" type="curve" smooth="yes"/>
      <point x="72" y="116"/>
      <point x="41" y="89"/>
    </contour>
    <contour>
      <point x="127" y="170" type="line"/>
      <point x="205" y="503"/>
      <point x="332" y="723"/>
      <point x="332" y="783" type="curve" smooth="yes"/>
      <point x="330" y="856"/>
      <point x="238" y="855"/>
      <point x="215" y="775" type="curve" smooth="yes"/>
      <point x="195" y="707"/>
      <point x="197" y="490"/>
      <point x="123" y="170" type="curve"/>
    </contour>
  </outline>
</glyph>
<glyph name="quotedbl" format="2">
  <advance width="336"/>
  <unicode hex="0022"/>
  <outline>
    <contour>
      <point x="222" y="641" type="line"/>
      <point x="308" y="822" type="line" smooth="yes"/>
      <point x="338" y="882"/>
      <point x="244" y="890"/>
      <point x="238" y="826" type="curve" smooth="yes"/>
      <point x="219" y="641" type="line"/>
    </contour>
    <contour>
      <point x="352" y="641" type="line"/>
      <point x="438" y="822" type="line" smooth="yes"/>
      <point x="468" y="882"/>
      <point x="374" y="890"/>
      <point x="368" y="826" type="curve" smooth="yes"/>
      <point x="349" y="641" type="line"/>
    </contour>
  </outline>
</glyph>
<glyph name="numbersign" format="2">
  <advance width="431"/>
  <unicode hex="0023"/>
  <outline>
    <contour>
      <point x="135" y="500" type="line"/>
      <point x="214" y="500" type="line"/>
      <point x="176" y="333" type="line"/>
      <point x="99" y="333" type="line"/>
      <point x="99" y="329" type="line"/>
      <point x="175" y="329" type="line"/>
      <point x="161" y="266" type="line"/>
      <point x="165" y="266" type="line"/>
      <point x="179" y="329" type="line"/>
      <point x="334" y="329" type="line"/>
      <point x="320" y="266" type="line"/>
      <point x="324" y="266" type="line"/>
      <point x="338" y="329" type="line"/>
      <point x="409" y="329" type="line"/>
      <point x="409" y="333" type="line"/>
      <point x="339" y="333" type="line"/>
      <point x="377" y="500" type="line"/>
      <point x="445" y="500" type="line"/>
      <point x="445" y="504" type="line"/>
      <point x="378" y="504" type="line"/>
      <point x="392" y="565" type="line"/>
      <point x="388" y="565" type="line"/>
      <point x="374" y="504" type="line"/>
      <point x="219" y="504" type="line"/>
      <point x="233" y="565" type="line"/>
      <point x="229" y="565" type="line"/>
      <point x="215" y="504" type="line"/>
      <point x="135" y="504" type="line"/>
    </contour>
    <contour>
      <point x="218" y="500" type="line"/>
      <point x="373" y="500" type="line"/>
      <point x="335" y="333" type="line"/>
      <point x="180" y="333" type="line"/>
    </contour>
  </outline>
</glyph>
<glyph name="dollar" format="2">
  <advance width="749"/>
  <unicode hex="0024"/>
  <outline>
    <contour>
      <point x="360" y="-24" type="curve" smooth="yes"/>
      <point x="202" y="-24"/>
      <point x="130" y="97"/>
      <point x="130" y="205" type="curve" smooth="yes"/>
      <point x="130" y="328"/>
      <point x="219" y="449"/>
      <point x="354" y="449" type="curve" smooth="yes"/>
      <point x="435" y="449"/>
      <point x="497" y="404"/>
      <point x="497" y="336" type="curve" smooth="yes"/>
      <point x="497" y="290"/>
      <point x="470" y="247"/>
      <point x="433" y="247" type="curve" smooth="yes"/>
      <point x="415" y="247"/>
      <point x="402" y="258"/>
      <point x="400" y="274" type="curve"/>
      <point x="394" y="266"/>
      <point x="393" y="254"/>
      <point x="393" y="247" type="curve" smooth="yes"/>
      <point x="393" y="219"/>
      <point x="413" y="198"/>
      <point x="448" y="198" type="curve" smooth="yes"/>
      <point x="500" y="198"/>
      <point x="539" y="246"/>
      <point x="539" y="304" type="curve" smooth="yes"/>
      <point x="539" y="388"/>
      <point x="458" y="453"/>
      <point x="347" y="453" type="curve" smooth="yes"/>
      <point x="206" y="453"/>
      <point x="85" y="347"/>
      <point x="85" y="205" type="curve" smooth="yes"/>
      <point x="85" y="95"/>
      <point x="159" y="-11"/>
      <point x="314" y="-26" type="curve"/>
      <point x="269" y="-164" type="line"/>
      <point x="273" y="-164" type="line"/>
      <point x="318" y="-26" type="line"/>
      <point x="328" y="-27"/>
      <point x="339" y="-28"/>
      <point x="350" y="-28" type="curve" smooth="yes"/>
      <point x="536" y="-28"/>
      <point x="700" y="119"/>
      <point x="700" y="298" type="curve" smooth="yes"/>
      <point x="700" y="475"/>
      <point x="470" y="614"/>
      <point x="470" y="740" type="curve" smooth="yes"/>
      <point x="470" y="824"/>
      <point x="540" y="865"/>
      <point x="597" y="865" type="curve" smooth="yes"/>
      <point x="665" y="865"/>
      <point x="736" y="822"/>
      <point x="736" y="739" type="curve" smooth="yes"/>
      <point x="736" y="718"/>
      <point x="731" y="693"/>
      <point x="724" y="664" type="curve"/>
      <point x="730" y="664" type="line"/>
      <point x="780" y="875" type="line"/>
      <point x="778" y="875" type="line"/>
      <point x="770" y="852"/>
      <point x="757" y="846"/>
      <point x="734" y="846" type="curve" smooth="yes"/>
      <point x="694" y="846"/>
      <point x="668" y="867"/>
      <point x="614" y="870" type="curve"/>
      <point x="656" y="999" type="line"/>
      <point x="651" y="999" type="line"/>
      <point x="609" y="871" type="line"/>
      <point x="598" y="871" type="line" smooth="yes"/>
      <point x="496" y="871"/>
      <point x="415" y="799"/>
      <point x="415" y="694" type="curve" smooth="yes"/>
      <point x="415" y="548"/>
      <point x="643" y="422"/>
      <point x="643" y="254" type="curve" smooth="yes"/>
      <point x="643" y="92"/>
      <point x="500" y="-24"/>
    </contour>
  </outline>
</glyph>
<glyph name="percent" format="2">
  <advance width="822"/>
  <unicode hex="0025"/>
  <outline>
    <contour>
      <point x="100" y="-73" type="line"/>
      <point x="108" y="-75" type="line"/>
      <point x="787" y="815" type="line"/>
      <point x="777" y="818" type="line"/>
    </contour>
    <contour>
      <point x="452" y="131" type="curve" smooth="yes"/>
      <point x="449" y="52"/>
      <point x="499" y="3"/>
      <point x="573" y="3" type="curve" smooth="yes"/>
      <point x="666" y="3"/>
      <point x="755" y="105"/>
      <point x="758" y="202" type="curve" smooth="yes"/>
      <point x="761" y="276"/>
      <point x="711" y="331"/>
      <point x="639" y="331" type="curve" smooth="yes"/>
      <point x="548" y="331"/>
      <point x="455" y="235"/>
    </contour>
    <contour>
      <point x="639" y="327" type="curve" smooth="yes"/>
      <point x="682" y="327"/>
      <point x="704" y="275"/>
      <point x="702" y="206" type="curve" smooth="yes"/>
      <point x="698" y="100"/>
      <point x="629" y="7"/>
      <point x="569" y="7" type="curve" smooth="yes"/>
      <point x="527" y="7"/>
      <point x="507" y="58"/>
      <point x="509" y="129" type="curve" smooth="yes"/>
      <point x="512" y="216"/>
      <point x="569" y="327"/>
    </contour>
    <contour>
      <point x="143" y="557" type="curve" smooth="yes"/>
      <point x="140" y="478"/>
      <point x="190" y="429"/>
      <point x="264" y="429" type="curve" smooth="yes"/>
      <point x="357" y="429"/>
      <point x="446" y="531"/>
      <point x="449" y="628" type="curve" smooth="yes"/>
      <point x="452" y="702"/>
      <point x="402" y="757"/>
      <point x="330" y="757" type="curve" smooth="yes"/>
      <point x="239" y="757"/>
      <point x="146" y="661"/>
    </contour>
    <contour>
      <point x="330" y="753" type="curve" smooth="yes"/>
      <point x="373" y="753"/>
      <point x="395" y="701"/>
      <point x="393" y="632" type="curve" smooth="yes"/>
      <point x="389" y="526"/>
      <point x="320" y="433"/>
      <point x="260" y="433" type="curve" smooth="yes"/>
      <point x="218" y="433"/>
      <point x="198" y="484"/>
      <point x="200" y="555" type="curve" smooth="yes"/>
      <point x="203" y="642"/>
      <point x="260" y="753"/>
    </contour>
  </outline>
</glyph>
<glyph name="ampersand" format="2">
  <advance width="1116"/>
  <unicode hex="0026"/>
  <outline>
    <contour>
      <point x="526" y="884" type="curve" smooth="yes"/>
      <point x="380" y="883"/>
      <point x="263" y="783"/>
      <point x="263" y="667" type="curve" smooth="yes"/>
      <point x="263" y="629"/>
      <point x="273" y="595"/>
      <point x="294" y="569" type="curve"/>
      <point x="168" y="548"/>
      <point x="46" y="417"/>
      <point x="46" y="245" type="curve" smooth="yes"/>
      <point x="46" y="49"/>
      <point x="192" y="-129"/>
      <point x="436" y="-129" type="curve" smooth="yes"/>
      <point x="694" y="-129"/>
      <point x="874" y="102"/>
      <point x="865" y="309" type="curve" smooth="yes"/>
      <point x="861" y="386"/>
      <point x="830" y="453"/>
      <point x="830" y="470" type="curve" smooth="yes"/>
      <point x="830" y="480"/>
      <point x="838" y="482"/>
      <point x="855" y="482" type="curve" smooth="yes"/>
      <point x="1006" y="486"/>
      <point x="1094" y="581"/>
      <point x="1094" y="690" type="curve" smooth="yes"/>
      <point x="1094" y="776"/>
      <point x="1039" y="821"/>
      <point x="976" y="821" type="curve" smooth="yes"/>
      <point x="926" y="821"/>
      <point x="879" y="793"/>
      <point x="879" y="732" type="curve" smooth="yes"/>
      <point x="879" y="684"/>
      <point x="919" y="660"/>
      <point x="964" y="660" type="curve"/>
      <point x="949" y="668"/>
      <point x="939" y="684"/>
      <point x="939" y="705" type="curve" smooth="yes"/>
      <point x="939" y="745"/>
      <point x="970" y="776"/>
      <point x="1014" y="776" type="curve" smooth="yes"/>
      <point x="1047" y="776"/>
      <point x="1087" y="756"/>
      <point x="1087" y="700" type="curve" smooth="yes"/>
      <point x="1087" y="615"/>
      <point x="999" y="567"/>
      <point x="871" y="567" type="curve" smooth="yes"/>
      <point x="812" y="567"/>
      <point x="763" y="577"/>
      <point x="717" y="577" type="curve" smooth="yes"/>
      <point x="578" y="577"/>
      <point x="503" y="486"/>
      <point x="503" y="380" type="curve" smooth="yes"/>
      <point x="505" y="309"/>
      <point x="552" y="254"/>
      <point x="620" y="254" type="curve" smooth="yes"/>
      <point x="672" y="254"/>
      <point x="717" y="285"/>
      <point x="717" y="344" type="curve" smooth="yes"/>
      <point x="717" y="392"/>
      <point x="677" y="416"/>
      <point x="633" y="416" type="curve"/>
      <point x="648" y="408"/>
      <point x="658" y="392"/>
      <point x="658" y="372" type="curve" smooth="yes"/>
      <point x="658" y="344"/>
      <point x="636" y="301"/>
      <point x="583" y="301" type="curve" smooth="yes"/>
      <point x="549" y="301"/>
      <point x="509" y="320"/>
      <point x="509" y="381" type="curve" smooth="yes"/>
      <point x="509" y="452"/>
      <point x="565" y="514"/>
      <point x="662" y="514" type="curve" smooth="yes"/>
      <point x="768" y="514"/>
      <point x="855" y="434"/>
      <point x="860" y="311" type="curve" smooth="yes"/>
      <point x="866" y="148"/>
      <point x="728" y="-68"/>
      <point x="474" y="-68" type="curve" smooth="yes"/>
      <point x="256" y="-68"/>
      <point x="107" y="96"/>
      <point x="107" y="290" type="curve" smooth="yes"/>
      <point x="107" y="435"/>
      <point x="192" y="540"/>
      <point x="296" y="567" type="curve"/>
      <point x="320" y="540"/>
      <point x="355" y="523"/>
      <point x="402" y="522" type="curve" smooth="yes"/>
      <point x="420" y="522"/>
      <point x="432" y="533"/>
      <point x="432" y="546" type="curve" smooth="yes"/>
      <point x="432" y="575"/>
      <point x="375" y="590"/>
      <point x="308" y="574" type="curve"/>
      <point x="300" y="594"/>
      <point x="292" y="627"/>
      <point x="292" y="657" type="curve" smooth="yes"/>
      <point x="292" y="771"/>
      <point x="410" y="879"/>
      <point x="525" y="879" type="curve" smooth="yes"/>
      <point x="526" y="879" type="line" smooth="yes"/>
      <point x="583" y="878"/>
      <point x="638" y="848"/>
      <point x="638" y="792" type="curve" smooth="yes"/>
      <point x="638" y="757"/>
      <point x="618" y="723"/>
      <point x="589" y="723" type="curve" smooth="yes"/>
      <point x="576" y="723"/>
      <point x="566" y="731"/>
      <point x="564" y="744" type="curve"/>
      <point x="561" y="737"/>
      <point x="559" y="728"/>
      <point x="559" y="721" type="curve" smooth="yes"/>
      <point x="559" y="700"/>
      <point x="574" y="680"/>
      <point x="603" y="680" type="curve" smooth="yes"/>
      <point x="645" y="680"/>
      <point x="681" y="721"/>
      <point x="681" y="767" type="curve" smooth="yes"/>
      <point x="681" y="833"/>
      <point x="611" y="882"/>
    </contour>
  </outline>
</glyph>
<glyph name="quotesingle" format="2">
  <advance width="158"/>
  <unicode hex="0027"/>
  <outline>
    <contour>
      <point x="170" y="641" type="line"/>
      <point x="256" y="822" type="line" smooth="yes"/>
      <point x="286" y="882"/>
      <point x="192" y="890"/>
      <point x="186" y="826" type="curve" smooth="yes"/>
      <point x="167" y="641" type="line"/>
    </contour>
  </outline>
</glyph>
<glyph name="parenleft" format="2">
  <advance width="306"/>
  <unicode hex="0028"/>
  <outline>
    <contour>
      <point x="536" y="867" type="line"/>
      <point x="395" y="834"/>
      <point x="162" y="618"/>
      <point x="110" y="366" type="curve" smooth="yes"/>
      <point x="58" y="116"/>
      <point x="110" y="-80"/>
      <point x="239" y="-194" type="curve"/>
      <point x="244" y="-192" type="line"/>
      <point x="113" y="-67"/>
      <point x="146" y="176"/>
      <point x="187" y="359" type="curve" smooth="yes"/>
      <point x="240" y="594"/>
      <point x="380" y="825"/>
      <point x="540" y="864" type="curve"/>
    </contour>
  </outline>
</glyph>
<glyph name="parenright" format="2">
  <advance width="427"/>
  <unicode hex="0029"/>
  <outline>
    <contour>
      <point x="-49" y="-194" type="line"/>
      <point x="93" y="-161"/>
      <point x="328" y="71"/>
      <point x="379" y="339" type="curve" smooth="yes"/>
      <point x="424" y="576"/>
      <point x="379" y="753"/>
      <point x="248" y="867" type="curve"/>
      <point x="243" y="865" type="line"/>
      <point x="379" y="740"/>
      <point x="332" y="516"/>
      <point x="302" y="346" type="curve" smooth="yes"/>
      <point x="257" y="93"/>
      <point x="108" y="-152"/>
      <point x="-53" y="-191" type="curve"/>
    </contour>
  </outline>
</glyph>
<glyph name="asterisk" format="2">
  <advance width="537"/>
  <unicode hex="002A"/>
  <outline>
    <contour>
      <point x="385" y="707" type="line"/>
      <point x="333" y="757"/>
      <point x="311" y="834"/>
      <point x="311" y="834" type="curve"/>
      <point x="253" y="781" type="line"/>
      <point x="253" y="781"/>
      <point x="325" y="755"/>
      <point x="377" y="707" type="curve"/>
      <point x="293" y="707"/>
      <point x="222" y="739"/>
      <point x="222" y="739" type="curve"/>
      <point x="199" y="673" type="line"/>
      <point x="199" y="673"/>
      <point x="292" y="701"/>
      <point x="379" y="702" type="curve"/>
      <point x="290" y="652"/>
      <point x="198" y="626"/>
      <point x="198" y="626" type="curve"/>
      <point x="218" y="573" type="line"/>
      <point x="218" y="573"/>
      <point x="293" y="648"/>
      <point x="383" y="700" type="curve"/>
      <point x="435" y="648"/>
      <point x="458" y="573"/>
      <point x="458" y="573" type="curve"/>
      <point x="516" y="626" type="line"/>
      <point x="516" y="626"/>
      <point x="443" y="652"/>
      <point x="390" y="702" type="curve"/>
      <point x="475" y="701"/>
      <point x="546" y="670"/>
      <point x="546" y="670" type="curve"/>
      <point x="569" y="736" type="line"/>
      <point x="569" y="736"/>
      <point x="480" y="709"/>
      <point x="394" y="707" type="curve"/>
      <point x="482" y="755"/>
      <point x="571" y="781"/>
      <point x="571" y="781" type="curve"/>
      <point x="551" y="834" type="line"/>
      <point x="551" y="834"/>
      <point x="475" y="757"/>
      <point x="387" y="707" type="curve"/>
    </contour>
  </outline>
</glyph>
<glyph name="hyphen" format="2">
  <advance width="490"/>
  <unicode hex="002D"/>
  <outline>
    <contour>
      <point x="148" y="339" type="line"/>
      <point x="469" y="339" type="line"/>
      <point x="469" y="344" type="line"/>
      <point x="148" y="344" type="line"/>
    </contour>
  </outline>
</glyph>
<glyph name="period" format="2">
  <advance width="228"/>
  <unicode hex="002E"/>
  <outline>
    <contour>
      <point x="22" y="54" type="curve" smooth="yes"/>
      <point x="16" y="19"/>
      <point x="40" y="-8"/>
      <point x="75" y="-8" type="curve" smooth="yes"/>
      <point x="109" y="-8"/>
      <point x="140" y="19"/>
      <point x="146" y="54" type="curve" smooth="yes"/>
      <point x="151" y="89"/>
      <point x="127" y="116"/>
      <point x="92" y="116" type="curve" smooth="yes"/>
      <point x="58" y="116"/>
      <point x="27" y="89"/>
    </contour>
  </outline>
</glyph>
<glyph name="zero" format="2">
  <advance width="802"/>
  <unicode hex="0030"/>
  <outline>
    <contour>
      <point x="77" y="337" type="curve" smooth="yes"/>
      <point x="69" y="120"/>
      <point x="191" y="-15"/>
      <point x="379" y="-15" type="curve" smooth="yes"/>
      <point x="619" y="-15"/>
      <point x="849" y="265"/>
      <point x="859" y="535" type="curve" smooth="yes"/>
      <point x="867" y="739"/>
      <point x="744" y="891"/>
      <point x="562" y="891" type="curve" smooth="yes"/>
      <point x="327" y="891"/>
      <point x="87" y="627"/>
    </contour>
    <contour>
      <point x="562" y="886" type="curve" smooth="yes"/>
      <point x="701" y="886"/>
      <point x="781" y="741"/>
      <point x="774" y="546" type="curve" smooth="yes"/>
      <point x="763" y="250"/>
      <point x="553" y="-10"/>
      <point x="368" y="-10" type="curve" smooth="yes"/>
      <point x="234" y="-10"/>
      <point x="157" y="134"/>
      <point x="164" y="332" type="curve" smooth="yes"/>
      <point x="173" y="576"/>
      <point x="349" y="886"/>
    </contour>
  </outline>
</glyph>
<glyph name="one" format="2">
  <advance width="311"/>
  <unicode hex="0031"/>
  <outline>
    <contour>
      <point x="129" y="689" type="line"/>
      <point x="176" y="707"/>
      <point x="216" y="732"/>
      <point x="250" y="761" type="curve"/>
      <point x="89" y="73" type="line" smooth="yes"/>
      <point x="77" y="22"/>
      <point x="38" y="4"/>
      <point x="-30" y="4" type="curve"/>
      <point x="-30" y="1" type="line"/>
      <point x="254" y="1" type="line"/>
      <point x="255" y="4" type="line"/>
      <point x="167" y="4"/>
      <point x="157" y="27"/>
      <point x="168" y="73" type="curve" smooth="yes"/>
      <point x="361" y="894" type="line"/>
      <point x="357" y="896" type="line"/>
      <point x="306" y="816"/>
      <point x="238" y="737"/>
      <point x="127" y="693" type="curve"/>
    </contour>
  </outline>
</glyph>
<glyph name="three" format="2">
  <advance width="641"/>
  <unicode hex="0033"/>
  <outline>
    <contour>
      <point x="368" y="487" type="line"/>
      <point x="377" y="489"/>
      <point x="387" y="489"/>
      <point x="398" y="489" type="curve" smooth="yes"/>
      <point x="503" y="489"/>
      <point x="546" y="405"/>
      <point x="546" y="308" type="curve" smooth="yes"/>
      <point x="546" y="139"/>
      <point x="416" y="-11"/>
      <point x="254" y="-11" type="curve" smooth="yes"/>
      <point x="152" y="-11"/>
      <point x="69" y="48"/>
      <point x="69" y="134" type="curve" smooth="yes"/>
      <point x="69" y="191"/>
      <point x="107" y="224"/>
      <point x="139" y="224" type="curve" smooth="yes"/>
      <point x="157" y="224"/>
      <point x="176" y="214"/>
      <point x="176" y="194" type="curve" smooth="yes"/>
      <point x="176" y="191"/>
      <point x="176" y="192"/>
      <point x="178" y="191" type="curve"/>
      <point x="180" y="191"/>
      <point x="189" y="221"/>
      <point x="189" y="234" type="curve" smooth="yes"/>
      <point x="189" y="254"/>
      <point x="168" y="289"/>
      <point x="119" y="289" type="curve" smooth="yes"/>
      <point x="55" y="289"/>
      <point x="2" y="230"/>
      <point x="2" y="159" type="curve" smooth="yes"/>
      <point x="2" y="59"/>
      <point x="105" y="-16"/>
      <point x="232" y="-18" type="curve" smooth="yes"/>
      <point x="426" y="-18"/>
      <point x="631" y="105"/>
      <point x="631" y="301" type="curve" smooth="yes"/>
      <point x="631" y="464"/>
      <point x="490" y="491"/>
      <point x="429" y="496" type="curve"/>
      <point x="593" y="537"/>
      <point x="685" y="625"/>
      <point x="693" y="719" type="curve" smooth="yes"/>
      <point x="702" y="817"/>
      <point x="615" y="901"/>
      <point x="472" y="901" type="curve" smooth="yes"/>
      <point x="309" y="901"/>
      <point x="196" y="790"/>
      <point x="194" y="702" type="curve" smooth="yes"/>
      <point x="193" y="657"/>
      <point x="222" y="610"/>
      <point x="280" y="610" type="curve" smooth="yes"/>
      <point x="341" y="610"/>
      <point x="377" y="662"/>
      <point x="375" y="715" type="curve"/>
      <point x="364" y="694"/>
      <point x="345" y="685"/>
      <point x="326" y="685" type="curve" smooth="yes"/>
      <point x="290" y="685"/>
      <point x="261" y="717"/>
      <point x="264" y="760" type="curve" smooth="yes"/>
      <point x="268" y="812"/>
      <point x="325" y="890"/>
      <point x="440" y="890" type="curve" smooth="yes"/>
      <point x="578" y="889"/>
      <point x="607" y="797"/>
      <point x="604" y="727" type="curve" smooth="yes"/>
      <point x="598" y="573"/>
      <point x="439" y="497"/>
      <point x="416" y="497" type="curve" smooth="yes"/>
      <point x="414" y="497" type="line" smooth="yes"/>
      <point x="397" y="497"/>
      <point x="381" y="495"/>
      <point x="365" y="491" type="curve"/>
    </contour>
  </outline>
</glyph>
<glyph name="four" format="2">
  <advance width="597"/>
  <unicode hex="0034"/>
  <outline>
    <contour>
      <point x="1" y="210" type="line"/>
      <point x="416" y="210" type="line"/>
      <point x="381" y="60" type="line" smooth="yes"/>
      <point x="372" y="20"/>
      <point x="339" y="4"/>
      <point x="274" y="4" type="curve"/>
      <point x="274" y="1" type="line"/>
      <point x="539" y="1" type="line"/>
      <point x="540" y="4" type="line"/>
      <point x="460" y="4"/>
      <point x="446" y="20"/>
      <point x="456" y="60" type="curve" smooth="yes"/>
      <point x="491" y="210" type="line"/>
      <point x="586" y="210" type="line"/>
      <point x="586" y="215" type="line"/>
      <point x="492" y="215" type="line"/>
      <point x="625" y="776" type="line"/>
      <point x="540" y="736" type="line"/>
      <point x="417" y="215" type="line"/>
      <point x="153" y="215" type="line"/>
      <point x="289" y="311"/>
      <point x="485" y="583"/>
      <point x="485" y="781" type="curve" smooth="yes"/>
      <point x="485" y="869"/>
      <point x="440" y="942"/>
      <point x="362" y="942" type="curve" smooth="yes"/>
      <point x="315" y="942"/>
      <point x="262" y="914"/>
      <point x="262" y="859" type="curve" smooth="yes"/>
      <point x="262" y="799"/>
      <point x="301" y="771"/>
      <point x="351" y="771" type="curve"/>
      <point x="335" y="779"/>
      <point x="325" y="796"/>
      <point x="325" y="817" type="curve" smooth="yes"/>
      <point x="325" y="845"/>
      <point x="357" y="884"/>
      <point x="399" y="884" type="curve" smooth="yes"/>
      <point x="437" y="884"/>
      <point x="476" y="872"/>
      <point x="476" y="785" type="curve" smooth="yes"/>
      <point x="476" y="568"/>
      <point x="179" y="271"/>
      <point x="1" y="215" type="curve"/>
    </contour>
  </outline>
</glyph>
<glyph name="five" format="2">
  <advance width="641"/>
  <unicode hex="0035"/>
  <outline>
    <contour>
      <point x="328" y="814" type="line"/>
      <point x="353" y="891" type="line"/>
      <point x="343" y="891" type="line"/>
      <point x="238" y="528" type="line"/>
      <point x="231" y="526" type="line"/>
      <point x="234" y="522" type="line"/>
      <point x="473" y="600"/>
      <point x="554" y="431"/>
      <point x="546" y="308" type="curve" smooth="yes"/>
      <point x="536" y="139"/>
      <point x="416" y="-11"/>
      <point x="254" y="-11" type="curve" smooth="yes"/>
      <point x="152" y="-11"/>
      <point x="69" y="48"/>
      <point x="69" y="134" type="curve" smooth="yes"/>
      <point x="69" y="191"/>
      <point x="107" y="224"/>
      <point x="139" y="224" type="curve" smooth="yes"/>
      <point x="157" y="224"/>
      <point x="176" y="214"/>
      <point x="176" y="194" type="curve" smooth="yes"/>
      <point x="176" y="191"/>
      <point x="176" y="192"/>
      <point x="178" y="191" type="curve"/>
      <point x="180" y="191"/>
      <point x="189" y="221"/>
      <point x="189" y="234" type="curve" smooth="yes"/>
      <point x="189" y="254"/>
      <point x="168" y="289"/>
      <point x="119" y="289" type="curve" smooth="yes"/>
      <point x="55" y="289"/>
      <point x="2" y="230"/>
      <point x="2" y="159" type="curve" smooth="yes"/>
      <point x="2" y="59"/>
      <point x="105" y="-16"/>
      <point x="232" y="-18" type="curve" smooth="yes"/>
      <point x="426" y="-18"/>
      <point x="610" y="106"/>
      <point x="631" y="301" type="curve" smooth="yes"/>
      <point x="647" y="444"/>
      <point x="487" y="607"/>
      <point x="257" y="535" type="curve"/>
      <point x="249" y="542" type="line"/>
      <point x="322" y="793" type="line"/>
      <point x="613" y="793" type="line" smooth="yes"/>
      <point x="675" y="793"/>
      <point x="676" y="749"/>
      <point x="649" y="657" type="curve"/>
      <point x="656" y="657" type="line"/>
      <point x="704" y="873" type="line"/>
      <point x="380" y="873" type="line"/>
      <point x="335" y="814" type="line"/>
    </contour>
  </outline>
</glyph>
<glyph name="seven" format="2">
  <advance width="591"/>
  <unicode hex="0037"/>
  <outline>
    <contour>
      <point x="119" y="117" type="curve" smooth="yes"/>
      <point x="119" y="50"/>
      <point x="156" y="-40"/>
      <point x="246" y="-40" type="curve" smooth="yes"/>
      <point x="293" y="-40"/>
      <point x="346" y="-12"/>
      <point x="346" y="43" type="curve" smooth="yes"/>
      <point x="346" y="103"/>
      <point x="307" y="131"/>
      <point x="257" y="131" type="curve"/>
      <point x="273" y="123"/>
      <point x="283" y="106"/>
      <point x="283" y="85" type="curve" smooth="yes"/>
      <point x="283" y="55"/>
      <point x="250" y="14"/>
      <point x="207" y="14" type="curve" smooth="yes"/>
      <point x="156" y="14"/>
      <point x="127" y="41"/>
      <point x="127" y="102" type="curve" smooth="yes"/>
      <point x="127" y="251"/>
      <point x="599" y="539"/>
      <point x="682" y="793" type="curve"/>
      <point x="696" y="873" type="line"/>
      <point x="220" y="873" type="line"/>
      <point x="146" y="657" type="line"/>
      <point x="153" y="657" type="line"/>
      <point x="185" y="749"/>
      <point x="205" y="793"/>
      <point x="267" y="793" type="curve" smooth="yes"/>
      <point x="660" y="793" type="line" smooth="yes"/>
      <point x="679" y="793"/>
      <point x="667" y="779"/>
      <point x="663" y="772" type="curve" smooth="yes"/>
      <point x="566" y="581"/>
      <point x="119" y="419"/>
    </contour>
  </outline>
</glyph>
<glyph name="eight" format="2">
  <advance width="680"/>
  <unicode hex="0038"/>
  <outline>
    <contour>
      <point x="23" y="203" type="curve"/>
      <point x="31" y="45"/>
      <point x="144" y="-32"/>
      <point x="324" y="-32" type="curve" smooth="yes"/>
      <point x="512" y="-32"/>
      <point x="679" y="106"/>
      <point x="679" y="270" type="curve" smooth="yes"/>
      <point x="679" y="392"/>
      <point x="570" y="484"/>
      <point x="477" y="568" type="curve"/>
      <point x="586" y="616"/>
      <point x="678" y="665"/>
      <point x="678" y="760" type="curve" smooth="yes"/>
      <point x="678" y="841"/>
      <point x="604" y="902"/>
      <point x="512" y="902" type="curve" smooth="yes"/>
      <point x="383" y="902"/>
      <point x="269" y="813"/>
      <point x="269" y="704" type="curve" smooth="yes"/>
      <point x="269" y="694" type="line" smooth="yes"/>
      <point x="269" y="630"/>
      <point x="314" y="577"/>
      <point x="370" y="526" type="curve"/>
      <point x="206" y="452"/>
      <point x="23" y="380"/>
    </contour>
    <contour>
      <point x="111" y="178" type="curve"/>
      <point x="110" y="185"/>
      <point x="110" y="193"/>
      <point x="110" y="200" type="curve" smooth="yes"/>
      <point x="110" y="378"/>
      <point x="239" y="460"/>
      <point x="374" y="522" type="curve"/>
      <point x="469" y="437"/>
      <point x="594" y="355"/>
      <point x="594" y="231" type="curve" smooth="yes"/>
      <point x="594" y="83"/>
      <point x="485" y="-26"/>
      <point x="341" y="-26" type="curve" smooth="yes"/>
      <point x="218" y="-26"/>
      <point x="120" y="26"/>
    </contour>
    <contour>
      <point x="348" y="744" type="curve"/>
      <point x="348" y="753" type="line" smooth="yes"/>
      <point x="348" y="835"/>
      <point x="423" y="897"/>
      <point x="513" y="897" type="curve" smooth="yes"/>
      <point x="589" y="897"/>
      <point x="626" y="837"/>
      <point x="626" y="766" type="curve" smooth="yes"/>
      <point x="626" y="678"/>
      <point x="559" y="621"/>
      <point x="470" y="574" type="curve"/>
      <point x="406" y="632"/>
      <point x="351" y="686"/>
    </contour>
  </outline>
</glyph>
<glyph name="nine" format="2">
  <advance width="677"/>
  <unicode hex="0039"/>
  <outline>
    <contour>
      <point x="308" y="316" type="curve" smooth="yes"/>
      <point x="433" y="316"/>
      <point x="565" y="428"/>
      <point x="565" y="540" type="curve" smooth="yes"/>
      <point x="565" y="591"/>
      <point x="524" y="632"/>
      <point x="477" y="632" type="curve" smooth="yes"/>
      <point x="428" y="632"/>
      <point x="407" y="591"/>
      <point x="407" y="559" type="curve" smooth="yes"/>
      <point x="407" y="553"/>
      <point x="407" y="547"/>
      <point x="408" y="540" type="curve"/>
      <point x="416" y="562"/>
      <point x="437" y="574"/>
      <point x="458" y="574" type="curve" smooth="yes"/>
      <point x="494" y="574"/>
      <point x="517" y="540"/>
      <point x="517" y="499" type="curve" smooth="yes"/>
      <point x="517" y="395"/>
      <point x="419" y="325"/>
      <point x="315" y="325" type="curve" smooth="yes"/>
      <point x="208" y="325"/>
      <point x="175" y="426"/>
      <point x="175" y="524" type="curve" smooth="yes"/>
      <point x="175" y="702"/>
      <point x="300" y="896"/>
      <point x="467" y="896" type="curve" smooth="yes"/>
      <point x="559" y="896"/>
      <point x="653" y="837"/>
      <point x="653" y="665" type="curve" smooth="yes"/>
      <point x="653" y="272"/>
      <point x="160" y="-106"/>
      <point x="-134" y="-106" type="curve" smooth="yes"/>
      <point x="-149" y="-106"/>
      <point x="-148" y="-105"/>
      <point x="-157" y="-105" type="curve"/>
      <point x="-158" y="-109" type="line"/>
      <point x="-148" y="-110"/>
      <point x="-137" y="-110"/>
      <point x="-126" y="-110" type="curve" smooth="yes"/>
      <point x="214" y="-110"/>
      <point x="734" y="262"/>
      <point x="734" y="641" type="curve" smooth="yes"/>
      <point x="734" y="810"/>
      <point x="629" y="902"/>
      <point x="483" y="902" type="curve" smooth="yes"/>
      <point x="279" y="902"/>
      <point x="88" y="724"/>
      <point x="88" y="535" type="curve" smooth="yes"/>
      <point x="88" y="417"/>
      <point x="171" y="316"/>
    </contour>
  </outline>
</glyph>
<glyph name="colon" format="2">
  <advance width="240"/>
  <unicode hex="003A"/>
  <outline>
    <contour>
      <point x="28" y="54" type="curve" smooth="yes"/>
      <point x="22" y="19"/>
      <point x="46" y="-8"/>
      <point x="81" y="-8" type="curve" smooth="yes"/>
      <point x="115" y="-8"/>
      <point x="146" y="19"/>
      <point x="152" y="54" type="curve" smooth="yes"/>
      <point x="157" y="89"/>
      <point x="133" y="116"/>
      <point x="98" y="116" type="curve" smooth="yes"/>
      <point x="64" y="116"/>
      <point x="33" y="89"/>
    </contour>
    <contour>
      <point x="259" y="515" type="curve" smooth="yes"/>
      <point x="265" y="550"/>
      <point x="241" y="577"/>
      <point x="206" y="577" type="curve" smooth="yes"/>
      <point x="172" y="577"/>
      <point x="141" y="550"/>
      <point x="135" y="515" type="curve" smooth="yes"/>
      <point x="130" y="480"/>
      <point x="154" y="453"/>
      <point x="189" y="453" type="curve" smooth="yes"/>
      <point x="223" y="453"/>
      <point x="254" y="480"/>
    </contour>
  </outline>
</glyph>
<glyph name="semicolon" format="2">
  <advance width="240"/>
  <unicode hex="003B"/>
  <outline>
    <contour>
      <point x="28" y="54" type="curve" smooth="yes"/>
      <point x="22" y="19"/>
      <point x="46" y="-8"/>
      <point x="81" y="-8" type="curve" smooth="yes"/>
      <point x="89" y="-8"/>
      <point x="103" y="-6"/>
      <point x="114" y="2" type="curve"/>
      <point x="115" y="-18"/>
      <point x="86" y="-77"/>
      <point x="44" y="-93" type="curve" smooth="yes"/>
      <point x="38" y="-95"/>
      <point x="39" y="-99"/>
      <point x="47" y="-96" type="curve" smooth="yes"/>
      <point x="103" y="-73"/>
      <point x="158" y="-8"/>
      <point x="158" y="58" type="curve" smooth="yes"/>
      <point x="158" y="92"/>
      <point x="130" y="116"/>
      <point x="98" y="116" type="curve" smooth="yes"/>
      <point x="64" y="116"/>
      <point x="33" y="89"/>
    </contour>
    <contour>
      <point x="259" y="515" type="curve" smooth="yes"/>
      <point x="265" y="550"/>
      <point x="241" y="577"/>
      <point x="206" y="577" type="curve" smooth="yes"/>
      <point x="172" y="577"/>
      <point x="141" y="550"/>
      <point x="135" y="515" type="curve" smooth="yes"/>
      <point x="130" y="480"/>
      <point x="154" y="453"/>
      <point x="189" y="453" type="curve" smooth="yes"/>
      <point x="223" y="453"/>
      <point x="254" y="480"/>
    </contour>
  </outline>
</glyph>
<glyph name="less" format="2">
  <advance width="466"/>
  <unicode hex="003C"/>
  <outline>
    <contour>
      <point x="159" y="308" type="line"/>
      <point x="312" y="80" type="line"/>
      <point x="320" y="85" type="line"/>
      <point x="252" y="309" type="line"/>
      <point x="429" y="490" type="line"/>
      <point x="427" y="495" type="line"/>
    </contour>
  </outline>
</glyph>
<glyph name="question" format="2">
  <advance width="551"/>
  <unicode hex="003F"/>
  <outline>
    <contour>
      <point x="221" y="197" type="line"/>
      <point x="430" y="363"/>
      <point x="663" y="478"/>
      <point x="663" y="653" type="curve" smooth="yes"/>
      <point x="663" y="780"/>
      <point x="554" y="835"/>
      <point x="438" y="835" type="curve" smooth="yes"/>
      <point x="272" y="834"/>
      <point x="164" y="723"/>
      <point x="164" y="636" type="curve" smooth="yes"/>
      <point x="164" y="586"/>
      <point x="201" y="544"/>
      <point x="247" y="544" type="curve" smooth="yes"/>
      <point x="317" y="544"/>
      <point x="347" y="596"/>
      <point x="345" y="649" type="curve"/>
      <point x="334" y="628"/>
      <point x="315" y="619"/>
      <point x="299" y="619" type="curve" smooth="yes"/>
      <point x="265" y="619"/>
      <point x="233" y="642"/>
      <point x="233" y="694" type="curve" smooth="yes"/>
      <point x="233" y="742"/>
      <point x="290" y="824"/>
      <point x="406" y="824" type="curve" smooth="yes"/>
      <point x="539" y="822"/>
      <point x="574" y="741"/>
      <point x="574" y="661" type="curve" smooth="yes"/>
      <point x="574" y="482"/>
      <point x="390" y="344"/>
      <point x="216" y="197" type="curve"/>
    </contour>
    <contour>
      <point x="170" y="54" type="curve" smooth="yes"/>
      <point x="164" y="19"/>
      <point x="188" y="-8"/>
      <point x="223" y="-8" type="curve" smooth="yes"/>
      <point x="257" y="-8"/>
      <point x="288" y="19"/>
      <point x="294" y="54" type="curve" smooth="yes"/>
      <point x="299" y="89"/>
      <point x="275" y="116"/>
      <point x="240" y="116" type="curve" smooth="yes"/>
      <point x="206" y="116"/>
      <point x="175" y="89"/>
    </contour>
  </outline>
</glyph>
<glyph name="B" format="2">
  <advance width="1266"/>
  <unicode hex="0042"/>
  <outline>
    <contour>
      <point x="873" y="891" type="curve" smooth="yes"/>
      <point x="871" y="891" type="line"/>
      <point x="782" y="900"/>
      <point x="628" y="900"/>
      <point x="620" y="900" type="curve" smooth="yes"/>
      <point x="321" y="900"/>
      <point x="1" y="702"/>
      <point x="1" y="393" type="curve" smooth="yes"/>
      <point x="1" y="245"/>
      <point x="124" y="123"/>
      <point x="301" y="123" type="curve" smooth="yes"/>
      <point x="461" y="123"/>
      <point x="615" y="229"/>
      <point x="615" y="370" type="curve" smooth="yes"/>
      <point x="615" y="428"/>
      <point x="570" y="473"/>
      <point x="517" y="473" type="curve" smooth="yes"/>
      <point x="461" y="473"/>
      <point x="438" y="428"/>
      <point x="438" y="391" type="curve" smooth="yes"/>
      <point x="438" y="384"/>
      <point x="438" y="377"/>
      <point x="440" y="370" type="curve"/>
      <point x="449" y="395"/>
      <point x="472" y="408"/>
      <point x="495" y="408" type="curve" smooth="yes"/>
      <point x="536" y="408"/>
      <point x="562" y="371"/>
      <point x="562" y="324" type="curve" smooth="yes"/>
      <point x="562" y="200"/>
      <point x="430" y="128"/>
      <point x="312" y="128" type="curve" smooth="yes"/>
      <point x="150" y="128"/>
      <point x="70" y="281"/>
      <point x="70" y="422" type="curve" smooth="yes"/>
      <point x="70" y="754"/>
      <point x="345" y="890"/>
      <point x="642" y="890" type="curve" smooth="yes"/>
      <point x="765" y="890"/>
      <point x="807" y="885"/>
      <point x="784" y="789" type="curve" smooth="yes"/>
      <point x="774" y="747" type="line"/>
      <point x="609" y="36" type="line" smooth="yes"/>
      <point x="597" y="-14"/>
      <point x="568" y="-34"/>
      <point x="493" y="-34" type="curve"/>
      <point x="493" y="-38" type="line"/>
      <point x="549" y="-36" type="line" smooth="yes"/>
      <point x="698" y="-36"/>
      <point x="775" y="-53"/>
      <point x="826" y="-53" type="curve" smooth="yes"/>
      <point x="1105" y="-53"/>
      <point x="1245" y="83"/>
      <point x="1250" y="226" type="curve" smooth="yes"/>
      <point x="1254" y="339"/>
      <point x="1178" y="417"/>
      <point x="1051" y="449" type="curve" smooth="yes"/>
      <point x="1033" y="453"/>
      <point x="1014" y="455"/>
      <point x="993" y="458" type="curve" smooth="yes"/>
      <point x="986" y="459"/>
      <point x="990" y="464"/>
      <point x="998" y="464" type="curve" smooth="yes"/>
      <point x="1180" y="464"/>
      <point x="1270" y="583"/>
      <point x="1272" y="694" type="curve" smooth="yes"/>
      <point x="1274" y="816"/>
      <point x="1174" y="897"/>
      <point x="1006" y="897" type="curve" smooth="yes"/>
      <point x="972" y="897"/>
      <point x="910" y="891"/>
    </contour>
    <contour>
      <point x="887" y="456" type="line"/>
      <point x="918" y="456" type="line" smooth="yes"/>
      <point x="1120" y="456"/>
      <point x="1166" y="347"/>
      <point x="1166" y="242" type="curve" smooth="yes"/>
      <point x="1166" y="133"/>
      <point x="1068" y="-46"/>
      <point x="819" y="-46" type="curve" smooth="yes"/>
      <point x="761" y="-46"/>
      <point x="678" y="-41"/>
      <point x="693" y="36" type="curve" smooth="yes"/>
      <point x="882" y="832" type="line"/>
      <point x="901" y="893"/>
      <point x="972" y="890"/>
      <point x="1005" y="890" type="curve" smooth="yes"/>
      <point x="1128" y="888"/>
      <point x="1202" y="809"/>
      <point x="1200" y="699" type="curve" smooth="yes"/>
      <point x="1198" y="594"/>
      <point x="1133" y="460"/>
      <point x="892" y="460" type="curve" smooth="yes"/>
      <point x="888" y="460" type="line"/>
    </contour>
  </outline>
</glyph>
<glyph name="E" format="2">
  <advance width="736"/>
  <unicode hex="0045"/>
  <outline>
    <contour>
      <point x="644" y="890" type="curve" smooth="yes"/>
      <point x="733" y="890"/>
      <point x="818" y="841"/>
      <point x="818" y="754" type="curve" smooth="yes"/>
      <point x="818" y="701"/>
      <point x="787" y="649"/>
      <point x="743" y="649" type="curve" smooth="yes"/>
      <point x="724" y="649"/>
      <point x="708" y="661"/>
      <point x="705" y="682" type="curve"/>
      <point x="700" y="672"/>
      <point x="698" y="657"/>
      <point x="698" y="646" type="curve" smooth="yes"/>
      <point x="698" y="617"/>
      <point x="719" y="590"/>
      <point x="764" y="590" type="curve" smooth="yes"/>
      <point x="821" y="590"/>
      <point x="868" y="649"/>
      <point x="868" y="716" type="curve" smooth="yes"/>
      <point x="868" y="818"/>
      <point x="767" y="893"/>
      <point x="644" y="895" type="curve" smooth="yes"/>
      <point x="441" y="895"/>
      <point x="250" y="762"/>
      <point x="250" y="554" type="curve" smooth="yes"/>
      <point x="250" y="502"/>
      <point x="262" y="463"/>
      <point x="281" y="434" type="curve"/>
      <point x="153" y="365"/>
      <point x="46" y="237"/>
      <point x="46" y="117" type="curve" smooth="yes"/>
      <point x="46" y="-47"/>
      <point x="197" y="-125"/>
      <point x="321" y="-125" type="curve" smooth="yes"/>
      <point x="510" y="-125"/>
      <point x="665" y="3"/>
      <point x="733" y="150" type="curve"/>
      <point x="724" y="154" type="line"/>
      <point x="694" y="58"/>
      <point x="545" y="-76"/>
      <point x="371" y="-76" type="curve" smooth="yes"/>
      <point x="247" y="-76"/>
      <point x="133" y="-4"/>
      <point x="133" y="153" type="curve" smooth="yes"/>
      <point x="133" y="255"/>
      <point x="202" y="356"/>
      <point x="292" y="418" type="curve"/>
      <point x="343" y="357"/>
      <point x="426" y="349"/>
      <point x="460" y="349" type="curve" smooth="yes"/>
      <point x="529" y="349"/>
      <point x="599" y="387"/>
      <point x="599" y="428" type="curve" smooth="yes"/>
      <point x="599" y="457"/>
      <point x="563" y="488"/>
      <point x="469" y="488" type="curve" smooth="yes"/>
      <point x="426" y="488"/>
      <point x="381" y="478"/>
      <point x="337" y="461" type="curve"/>
      <point x="327" y="487"/>
      <point x="323" y="516"/>
      <point x="323" y="547" type="curve" smooth="yes"/>
      <point x="323" y="728"/>
      <point x="452" y="890"/>
    </contour>
    <contour>
      <point x="473" y="482" type="curve" smooth="yes"/>
      <point x="549" y="482"/>
      <point x="575" y="445"/>
      <point x="575" y="422" type="curve" smooth="yes"/>
      <point x="575" y="390"/>
      <point x="538" y="359"/>
      <point x="476" y="359" type="curve" smooth="yes"/>
      <point x="413" y="359"/>
      <point x="367" y="395"/>
      <point x="343" y="448" type="curve"/>
      <point x="385" y="469"/>
      <point x="430" y="482"/>
    </contour>
  </outline>
</glyph>
<glyph name="F" format="2">
  <advance width="1036"/>
  <unicode hex="0046"/>
  <outline>
    <contour>
      <point x="677" y="204" type="line"/>
      <point x="651" y="210"/>
      <point x="650" y="243"/>
      <point x="650" y="264" type="curve" smooth="yes"/>
      <point x="650" y="326"/>
      <point x="708" y="373"/>
      <point x="795" y="373" type="curve" smooth="yes"/>
      <point x="820" y="373" type="line"/>
      <point x="783" y="206" type="line" smooth="yes"/>
      <point x="730" y="-17"/>
      <point x="621" y="-288"/>
      <point x="381" y="-288" type="curve" smooth="yes"/>
      <point x="266" y="-288"/>
      <point x="221" y="-214"/>
      <point x="221" y="-152" type="curve" smooth="yes"/>
      <point x="221" y="-94"/>
      <point x="259" y="-48"/>
      <point x="311" y="-48" type="curve" smooth="yes"/>
      <point x="334" y="-48"/>
      <point x="356" y="-61"/>
      <point x="362" y="-86" type="curve"/>
      <point x="366" y="-77"/>
      <point x="367" y="-67"/>
      <point x="367" y="-57" type="curve" smooth="yes"/>
      <point x="367" y="-22"/>
      <point x="348" y="17"/>
      <point x="296" y="17" type="curve" smooth="yes"/>
      <point x="231" y="17"/>
      <point x="172" y="-36"/>
      <point x="172" y="-105" type="curve" smooth="yes"/>
      <point x="172" y="-224"/>
      <point x="265" y="-297"/>
      <point x="404" y="-297" type="curve" smooth="yes"/>
      <point x="593" y="-297"/>
      <point x="790" y="-126"/>
      <point x="858" y="165" type="curve" smooth="yes"/>
      <point x="907" y="373" type="line"/>
      <point x="916" y="373" type="line" smooth="yes"/>
      <point x="998" y="373"/>
      <point x="1004" y="287"/>
      <point x="986" y="228" type="curve"/>
      <point x="991" y="228" type="line"/>
      <point x="1069" y="522" type="line"/>
      <point x="1064" y="522" type="line"/>
      <point x="1051" y="462"/>
      <point x="1001" y="379"/>
      <point x="916" y="379" type="curve" smooth="yes"/>
      <point x="909" y="379" type="line"/>
      <point x="936" y="494" type="line" smooth="yes"/>
      <point x="990" y="720"/>
      <point x="1094" y="828"/>
      <point x="1176" y="852" type="curve"/>
      <point x="1172" y="857" type="line"/>
      <point x="1149" y="852"/>
      <point x="1123" y="847"/>
      <point x="1101" y="847" type="curve" smooth="yes"/>
      <point x="940" y="848"/>
      <point x="791" y="898"/>
      <point x="636" y="898" type="curve" smooth="yes"/>
      <point x="274" y="898"/>
      <point x="-27" y="640"/>
      <point x="-27" y="381" type="curve" smooth="yes"/>
      <point x="-27" y="220"/>
      <point x="117" y="104"/>
      <point x="281" y="104" type="curve" smooth="yes"/>
      <point x="430" y="104"/>
      <point x="596" y="210"/>
      <point x="596" y="341" type="curve" smooth="yes"/>
      <point x="596" y="395"/>
      <point x="554" y="437"/>
      <point x="505" y="437" type="curve" smooth="yes"/>
      <point x="453" y="437"/>
      <point x="431" y="395"/>
      <point x="431" y="361" type="curve" smooth="yes"/>
      <point x="431" y="354"/>
      <point x="431" y="348"/>
      <point x="433" y="341" type="curve"/>
      <point x="441" y="364"/>
      <point x="463" y="376"/>
      <point x="484" y="376" type="curve" smooth="yes"/>
      <point x="522" y="376"/>
      <point x="547" y="342"/>
      <point x="547" y="298" type="curve" smooth="yes"/>
      <point x="547" y="183"/>
      <point x="424" y="116"/>
      <point x="314" y="116" type="curve" smooth="yes"/>
      <point x="164" y="116"/>
      <point x="37" y="216"/>
      <point x="37" y="403" type="curve" smooth="yes"/>
      <point x="37" y="631"/>
      <point x="169" y="849"/>
      <point x="568" y="849" type="curve" smooth="yes"/>
      <point x="663" y="849"/>
      <point x="988" y="801"/>
      <point x="1053" y="821" type="curve" smooth="yes"/>
      <point x="1075" y="828"/>
      <point x="1073" y="818"/>
      <point x="1060" y="810" type="curve" smooth="yes"/>
      <point x="973" y="757"/>
      <point x="880" y="647"/>
      <point x="838" y="455" type="curve" smooth="yes"/>
      <point x="821" y="379" type="line"/>
      <point x="795" y="379" type="line" smooth="yes"/>
      <point x="697" y="379"/>
      <point x="628" y="322"/>
      <point x="628" y="258" type="curve" smooth="yes"/>
      <point x="628" y="235"/>
      <point x="646" y="205"/>
      <point x="676" y="202" type="curve"/>
    </contour>
  </outline>
</glyph>
<glyph name="H" format="2">
  <advance width="1491"/>
  <unicode hex="0048"/>
  <outline>
    <contour>
      <point x="404" y="-297" type="curve" smooth="yes"/>
      <point x="593" y="-297"/>
      <point x="790" y="-126"/>
      <point x="858" y="165" type="curve" smooth="yes"/>
      <point x="918" y="423" type="line"/>
      <point x="922" y="436"/>
      <point x="929" y="442"/>
      <point x="943" y="442" type="curve" smooth="yes"/>
      <point x="1353" y="442" type="line" smooth="yes"/>
      <point x="1367" y="442"/>
      <point x="1372" y="436"/>
      <point x="1368" y="423" type="curve"/>
      <point x="1286" y="74" type="line" smooth="yes"/>
      <point x="1274" y="24"/>
      <point x="1245" y="4"/>
      <point x="1170" y="4" type="curve"/>
      <point x="1170" y="0" type="line"/>
      <point x="1445" y="0" type="line"/>
      <point x="1446" y="4" type="line"/>
      <point x="1406" y="4"/>
      <point x="1355" y="10"/>
      <point x="1370" y="74" type="curve" smooth="yes"/>
      <point x="1453" y="423" type="line" smooth="yes"/>
      <point x="1473" y="513"/>
      <point x="1487" y="581"/>
      <point x="1517" y="696" type="curve" smooth="yes"/>
      <point x="1555" y="840"/>
      <point x="1638" y="919"/>
      <point x="1705" y="919" type="curve" smooth="yes"/>
      <point x="1740" y="919"/>
      <point x="1768" y="898"/>
      <point x="1768" y="869" type="curve" smooth="yes"/>
      <point x="1768" y="841"/>
      <point x="1745" y="810"/>
      <point x="1712" y="810" type="curve" smooth="yes"/>
      <point x="1701" y="810"/>
      <point x="1691" y="812"/>
      <point x="1682" y="823" type="curve"/>
      <point x="1680" y="806"/>
      <point x="1688" y="759"/>
      <point x="1738" y="759" type="curve" smooth="yes"/>
      <point x="1782" y="759"/>
      <point x="1825" y="797"/>
      <point x="1826" y="849" type="curve" smooth="yes"/>
      <point x="1826" y="903"/>
      <point x="1773" y="928"/>
      <point x="1729" y="928" type="curve" smooth="yes"/>
      <point x="1565" y="928"/>
      <point x="1430" y="713"/>
      <point x="1385" y="490" type="curve" smooth="yes"/>
      <point x="1377" y="450"/>
      <point x="1368" y="447"/>
      <point x="1354" y="447" type="curve" smooth="yes"/>
      <point x="944" y="447" type="line" smooth="yes"/>
      <point x="930" y="447"/>
      <point x="925" y="453"/>
      <point x="929" y="466" type="curve"/>
      <point x="959" y="598" type="line" smooth="yes"/>
      <point x="1000" y="776"/>
      <point x="1037" y="863"/>
      <point x="1122" y="860" type="curve"/>
      <point x="1122" y="864" type="line"/>
      <point x="744" y="894" type="line" smooth="yes"/>
      <point x="417" y="920"/>
      <point x="87" y="705"/>
      <point x="87" y="451" type="curve" smooth="yes"/>
      <point x="87" y="278"/>
      <point x="242" y="153"/>
      <point x="418" y="153" type="curve" smooth="yes"/>
      <point x="578" y="153"/>
      <point x="756" y="267"/>
      <point x="756" y="408" type="curve" smooth="yes"/>
      <point x="756" y="466"/>
      <point x="711" y="511"/>
      <point x="658" y="511" type="curve" smooth="yes"/>
      <point x="602" y="511"/>
      <point x="579" y="466"/>
      <point x="579" y="429" type="curve" smooth="yes"/>
      <point x="579" y="422"/>
      <point x="579" y="415"/>
      <point x="581" y="408" type="curve"/>
      <point x="590" y="433"/>
      <point x="613" y="446"/>
      <point x="636" y="446" type="curve" smooth="yes"/>
      <point x="677" y="446"/>
      <point x="703" y="409"/>
      <point x="703" y="362" type="curve" smooth="yes"/>
      <point x="703" y="238"/>
      <point x="571" y="166"/>
      <point x="453" y="166" type="curve" smooth="yes"/>
      <point x="292" y="166"/>
      <point x="156" y="274"/>
      <point x="156" y="475" type="curve" smooth="yes"/>
      <point x="156" y="702"/>
      <point x="305" y="882"/>
      <point x="726" y="843" type="curve" smooth="yes"/>
      <point x="966" y="821" type="line" smooth="yes"/>
      <point x="978" y="820"/>
      <point x="981" y="816"/>
      <point x="973" y="810" type="curve" smooth="yes"/>
      <point x="924" y="773"/>
      <point x="875" y="620"/>
      <point x="861" y="559" type="curve" smooth="yes"/>
      <point x="783" y="206" type="line" smooth="yes"/>
      <point x="730" y="-17"/>
      <point x="621" y="-288"/>
      <point x="381" y="-288" type="curve" smooth="yes"/>
      <point x="266" y="-288"/>
      <point x="221" y="-214"/>
      <point x="221" y="-152" type="curve" smooth="yes"/>
      <point x="221" y="-94"/>
      <point x="259" y="-48"/>
      <point x="311" y="-48" type="curve" smooth="yes"/>
      <point x="334" y="-48"/>
      <point x="356" y="-61"/>
      <point x="362" y="-86" type="curve"/>
      <point x="366" y="-77"/>
      <point x="367" y="-67"/>
      <point x="367" y="-57" type="curve" smooth="yes"/>
      <point x="367" y="-22"/>
      <point x="348" y="17"/>
      <point x="296" y="17" type="curve" smooth="yes"/>
      <point x="231" y="17"/>
      <point x="172" y="-36"/>
      <point x="172" y="-105" type="curve" smooth="yes"/>
      <point x="172" y="-224"/>
      <point x="265" y="-297"/>
    </contour>
  </outline>
</glyph>
<glyph name="J" format="2">
  <advance width="948"/>
  <unicode hex="004A"/>
  <outline>
    <contour>
      <point x="990" y="801" type="curve"/>
      <point x="1002" y="800"/>
      <point x="1006" y="795"/>
      <point x="997" y="790" type="curve" smooth="yes"/>
      <point x="920" y="750"/>
      <point x="872" y="597"/>
      <point x="858" y="536" type="curve" smooth="yes"/>
      <point x="780" y="183" type="line" smooth="yes"/>
      <point x="731" y="-41"/>
      <point x="617" y="-311"/>
      <point x="377" y="-311" type="curve" smooth="yes"/>
      <point x="262" y="-311"/>
      <point x="217" y="-237"/>
      <point x="217" y="-175" type="curve" smooth="yes"/>
      <point x="217" y="-117"/>
      <point x="255" y="-71"/>
      <point x="307" y="-71" type="curve" smooth="yes"/>
      <point x="330" y="-71"/>
      <point x="352" y="-84"/>
      <point x="358" y="-109" type="curve"/>
      <point x="362" y="-100"/>
      <point x="363" y="-90"/>
      <point x="363" y="-80" type="curve" smooth="yes"/>
      <point x="363" y="-45"/>
      <point x="344" y="-6"/>
      <point x="292" y="-6" type="curve" smooth="yes"/>
      <point x="227" y="-6"/>
      <point x="168" y="-59"/>
      <point x="168" y="-128" type="curve" smooth="yes"/>
      <point x="168" y="-247"/>
      <point x="261" y="-320"/>
      <point x="400" y="-320" type="curve" smooth="yes"/>
      <point x="589" y="-320"/>
      <point x="786" y="-149"/>
      <point x="854" y="142" type="curve" smooth="yes"/>
      <point x="955" y="575" type="line" smooth="yes"/>
      <point x="996" y="753"/>
      <point x="1033" y="840"/>
      <point x="1118" y="837" type="curve"/>
      <point x="1118" y="841" type="line"/>
      <point x="979" y="872"/>
      <point x="835" y="888"/>
      <point x="716" y="888" type="curve" smooth="yes"/>
      <point x="462" y="888"/>
      <point x="204" y="691"/>
      <point x="204" y="494" type="curve" smooth="yes"/>
      <point x="204" y="349"/>
      <point x="335" y="244"/>
      <point x="483" y="244" type="curve" smooth="yes"/>
      <point x="617" y="244"/>
      <point x="766" y="340"/>
      <point x="766" y="458" type="curve" smooth="yes"/>
      <point x="766" y="506"/>
      <point x="728" y="544"/>
      <point x="684" y="544" type="curve" smooth="yes"/>
      <point x="637" y="544"/>
      <point x="618" y="506"/>
      <point x="618" y="475" type="curve" smooth="yes"/>
      <point x="618" y="469"/>
      <point x="618" y="464"/>
      <point x="619" y="458" type="curve"/>
      <point x="627" y="479"/>
      <point x="646" y="490"/>
      <point x="665" y="490" type="curve" smooth="yes"/>
      <point x="700" y="490"/>
      <point x="722" y="459"/>
      <point x="722" y="419" type="curve" smooth="yes"/>
      <point x="722" y="316"/>
      <point x="611" y="257"/>
      <point x="512" y="257" type="curve" smooth="yes"/>
      <point x="377" y="257"/>
      <point x="263" y="346"/>
      <point x="263" y="514" type="curve" smooth="yes"/>
      <point x="263" y="686"/>
      <point x="376" y="844"/>
      <point x="668" y="844" type="curve" smooth="yes"/>
      <point x="742" y="844"/>
      <point x="896" y="818"/>
    </contour>
  </outline>
</glyph>
<glyph name="K" format="2">
  <advance width="1187"/>
  <unicode hex="004B"/>
  <outline>
    <contour>
      <point x="643" y="891" type="line" smooth="yes"/>
      <point x="377" y="891"/>
      <point x="4" y="710"/>
      <point x="4" y="393" type="curve" smooth="yes"/>
      <point x="4" y="245"/>
      <point x="127" y="123"/>
      <point x="304" y="123" type="curve" smooth="yes"/>
      <point x="464" y="123"/>
      <point x="618" y="229"/>
      <point x="618" y="370" type="curve" smooth="yes"/>
      <point x="618" y="428"/>
      <point x="573" y="473"/>
      <point x="520" y="473" type="curve" smooth="yes"/>
      <point x="464" y="473"/>
      <point x="441" y="428"/>
      <point x="441" y="391" type="curve" smooth="yes"/>
      <point x="441" y="384"/>
      <point x="441" y="377"/>
      <point x="443" y="370" type="curve"/>
      <point x="452" y="395"/>
      <point x="475" y="408"/>
      <point x="498" y="408" type="curve" smooth="yes"/>
      <point x="539" y="408"/>
      <point x="565" y="371"/>
      <point x="565" y="324" type="curve" smooth="yes"/>
      <point x="565" y="200"/>
      <point x="433" y="128"/>
      <point x="315" y="128" type="curve" smooth="yes"/>
      <point x="153" y="128"/>
      <point x="73" y="281"/>
      <point x="73" y="422" type="curve" smooth="yes"/>
      <point x="73" y="756"/>
      <point x="392" y="882"/>
      <point x="650" y="882" type="curve" smooth="yes"/>
      <point x="767" y="882"/>
      <point x="804" y="881"/>
      <point x="785" y="797" type="curve" smooth="yes"/>
      <point x="621" y="85" type="line" smooth="yes"/>
      <point x="609" y="35"/>
      <point x="577" y="4"/>
      <point x="502" y="4" type="curve"/>
      <point x="502" y="0" type="line"/>
      <point x="794" y="0" type="line"/>
      <point x="795" y="4" type="line"/>
      <point x="755" y="4"/>
      <point x="687" y="10"/>
      <point x="702" y="74" type="curve" smooth="yes"/>
      <point x="881" y="828" type="line" smooth="yes"/>
      <point x="891" y="871"/>
      <point x="925" y="887"/>
      <point x="994" y="887" type="curve"/>
      <point x="994" y="891" type="line"/>
    </contour>
    <contour>
      <point x="1816" y="-168" type="curve" smooth="yes"/>
      <point x="1816" y="-110"/>
      <point x="1771" y="-65"/>
      <point x="1718" y="-65" type="curve" smooth="yes"/>
      <point x="1662" y="-65"/>
      <point x="1639" y="-110"/>
      <point x="1639" y="-147" type="curve" smooth="yes"/>
      <point x="1639" y="-154"/>
      <point x="1639" y="-161"/>
      <point x="1641" y="-168" type="curve"/>
      <point x="1650" y="-143"/>
      <point x="1673" y="-130"/>
      <point x="1696" y="-130" type="curve" smooth="yes"/>
      <point x="1737" y="-130"/>
      <point x="1763" y="-167"/>
      <point x="1763" y="-214" type="curve" smooth="yes"/>
      <point x="1763" y="-338"/>
      <point x="1629" y="-410"/>
      <point x="1512" y="-410" type="curve" smooth="yes"/>
      <point x="1201" y="-410"/>
      <point x="1101" y="348"/>
      <point x="851" y="348" type="curve" smooth="yes"/>
      <point x="843" y="348"/>
      <point x="837" y="353"/>
      <point x="850" y="365" type="curve" smooth="yes"/>
      <point x="1215" y="712" type="line" smooth="yes"/>
      <point x="1283" y="774"/>
      <point x="1421" y="886"/>
      <point x="1515" y="886" type="curve"/>
      <point x="1514" y="891" type="line"/>
      <point x="1238" y="891" type="line"/>
      <point x="1239" y="887" type="line"/>
      <point x="1279" y="887"/>
      <point x="1301" y="875"/>
      <point x="1301" y="842" type="curve" smooth="yes"/>
      <point x="1301" y="807"/>
      <point x="1260" y="761"/>
      <point x="1212" y="717" type="curve" smooth="yes"/>
      <point x="821" y="344" type="line"/>
      <point x="821" y="339" type="line"/>
      <point x="829" y="341"/>
      <point x="837" y="342"/>
      <point x="845" y="342" type="curve" smooth="yes"/>
      <point x="907" y="342"/>
      <point x="966" y="284"/>
      <point x="1011" y="181" type="curve" smooth="yes"/>
      <point x="1053" y="83"/>
      <point x="1082" y="-63"/>
      <point x="1125" y="-151" type="curve" smooth="yes"/>
      <point x="1221" y="-345"/>
      <point x="1335" y="-415"/>
      <point x="1492" y="-415" type="curve" smooth="yes"/>
      <point x="1640" y="-415"/>
      <point x="1816" y="-324"/>
    </contour>
  </outline>
</glyph>
<glyph name="M" format="2">
  <advance width="1430"/>
  <unicode hex="004D"/>
  <outline>
    <contour>
      <point x="1504" y="808" type="line"/>
      <point x="1399" y="714"/>
      <point x="1308" y="543"/>
      <point x="1248" y="291" type="curve" smooth="yes"/>
      <point x="1169" y="-41"/>
      <point x="1169" y="-382"/>
      <point x="1473" y="-389" type="curve" smooth="yes"/>
      <point x="1481" y="-389" type="line" smooth="yes"/>
      <point x="1610" y="-389"/>
      <point x="1706" y="-279"/>
      <point x="1706" y="-196" type="curve" smooth="yes"/>
      <point x="1706" y="-139"/>
      <point x="1666" y="-104"/>
      <point x="1620" y="-104" type="curve" smooth="yes"/>
      <point x="1577" y="-104"/>
      <point x="1548" y="-136"/>
      <point x="1548" y="-174" type="curve" smooth="yes"/>
      <point x="1548" y="-180"/>
      <point x="1548" y="-186"/>
      <point x="1549" y="-192" type="curve"/>
      <point x="1557" y="-171"/>
      <point x="1577" y="-159"/>
      <point x="1596" y="-159" type="curve" smooth="yes"/>
      <point x="1625" y="-159"/>
      <point x="1661" y="-182"/>
      <point x="1661" y="-237" type="curve" smooth="yes"/>
      <point x="1661" y="-305"/>
      <point x="1598" y="-384"/>
      <point x="1488" y="-384" type="curve" smooth="yes"/>
      <point x="1475" y="-384" type="line"/>
      <point x="1206" y="-369"/>
      <point x="1276" y="52"/>
      <point x="1342" y="317" type="curve" smooth="yes"/>
      <point x="1439" y="710"/>
      <point x="1532" y="844"/>
      <point x="1636" y="880" type="curve" smooth="yes"/>
      <point x="1648" y="884"/>
      <point x="1661" y="886"/>
      <point x="1672" y="888" type="curve" smooth="yes"/>
      <point x="1684" y="890"/>
      <point x="1696" y="891"/>
      <point x="1708" y="891" type="curve" smooth="yes"/>
      <point x="1770" y="891"/>
      <point x="1829" y="859"/>
      <point x="1829" y="798" type="curve" smooth="yes"/>
      <point x="1829" y="761"/>
      <point x="1808" y="726"/>
      <point x="1777" y="726" type="curve" smooth="yes"/>
      <point x="1764" y="726"/>
      <point x="1753" y="734"/>
      <point x="1751" y="748" type="curve"/>
      <point x="1748" y="741"/>
      <point x="1746" y="731"/>
      <point x="1746" y="724" type="curve" smooth="yes"/>
      <point x="1746" y="702"/>
      <point x="1761" y="681"/>
      <point x="1792" y="681" type="curve" smooth="yes"/>
      <point x="1836" y="681"/>
      <point x="1874" y="724"/>
      <point x="1874" y="772" type="curve" smooth="yes"/>
      <point x="1874" y="841"/>
      <point x="1800" y="893"/>
      <point x="1711" y="895" type="curve" smooth="yes"/>
      <point x="1708" y="895" type="line" smooth="yes"/>
      <point x="1701" y="895"/>
      <point x="1693" y="894"/>
      <point x="1686" y="894" type="curve"/>
      <point x="1495" y="879"/>
      <point x="1223" y="609"/>
      <point x="1044" y="372" type="curve"/>
      <point x="1032" y="538"/>
      <point x="999" y="736"/>
      <point x="969" y="866" type="curve"/>
      <point x="969" y="867" type="line"/>
      <point x="958" y="884"/>
      <point x="798" y="908"/>
      <point x="716" y="908" type="curve" smooth="yes"/>
      <point x="516" y="908"/>
      <point x="380" y="795"/>
      <point x="380" y="702" type="curve" smooth="yes"/>
      <point x="380" y="656"/>
      <point x="417" y="611"/>
      <point x="459" y="611" type="curve" smooth="yes"/>
      <point x="522" y="611"/>
      <point x="541" y="657"/>
      <point x="539" y="705" type="curve"/>
      <point x="529" y="686"/>
      <point x="512" y="678"/>
      <point x="497" y="678" type="curve" smooth="yes"/>
      <point x="466" y="678"/>
      <point x="433" y="703"/>
      <point x="433" y="750" type="curve" smooth="yes"/>
      <point x="433" y="818"/>
      <point x="506" y="877"/>
      <point x="609" y="877" type="curve" smooth="yes"/>
      <point x="728" y="877"/>
      <point x="794" y="862"/>
      <point x="886" y="841" type="curve"/>
      <point x="886" y="839"/>
      <point x="887" y="837"/>
      <point x="887" y="835" type="curve"/>
      <point x="782" y="199"/>
      <point x="467" y="-8"/>
      <point x="246" y="-8" type="curve" smooth="yes"/>
      <point x="100" y="-8"/>
      <point x="18" y="96"/>
      <point x="9" y="217" type="curve" smooth="yes"/>
      <point x="-2" y="364"/>
      <point x="98" y="515"/>
      <point x="273" y="515" type="curve" smooth="yes"/>
      <point x="359" y="515"/>
      <point x="443" y="469"/>
      <point x="443" y="387" type="curve" smooth="yes"/>
      <point x="443" y="336"/>
      <point x="412" y="287"/>
      <point x="369" y="287" type="curve" smooth="yes"/>
      <point x="351" y="287"/>
      <point x="334" y="298"/>
      <point x="332" y="318" type="curve"/>
      <point x="326" y="308"/>
      <point x="324" y="295"/>
      <point x="324" y="284" type="curve" smooth="yes"/>
      <point x="324" y="256"/>
      <point x="345" y="230"/>
      <point x="389" y="230" type="curve" smooth="yes"/>
      <point x="446" y="230"/>
      <point x="492" y="287"/>
      <point x="492" y="350" type="curve" smooth="yes"/>
      <point x="492" y="448"/>
      <point x="389" y="520"/>
      <point x="266" y="520" type="curve" smooth="yes"/>
      <point x="76" y="520"/>
      <point x="-50" y="383"/>
      <point x="-50" y="251" type="curve" smooth="yes"/>
      <point x="-50" y="122"/>
      <point x="56" y="-18"/>
      <point x="251" y="-18" type="curve" smooth="yes"/>
      <point x="405" y="-18"/>
      <point x="553" y="42"/>
      <point x="681" y="210" type="curve" smooth="yes"/>
      <point x="779" y="338"/>
      <point x="845" y="535"/>
      <point x="891" y="822" type="curve"/>
      <point x="928" y="675"/>
      <point x="971" y="508"/>
      <point x="984" y="288" type="curve"/>
      <point x="907" y="175"/>
      <point x="858" y="80"/>
      <point x="858" y="36" type="curve" smooth="yes"/>
      <point x="858" y="-1"/>
      <point x="871" y="-18"/>
      <point x="895" y="-18" type="curve" smooth="yes"/>
      <point x="952" y="-18"/>
      <point x="1049" y="98"/>
      <point x="1049" y="260" type="curve" smooth="yes"/>
      <point x="1049" y="293"/>
      <point x="1047" y="328"/>
      <point x="1045" y="366" type="curve"/>
      <point x="1169" y="532"/>
      <point x="1346" y="714"/>
      <point x="1503" y="814" type="curve"/>
    </contour>
    <contour>
      <point x="988" y="151" type="curve" smooth="yes"/>
      <point x="988" y="65"/>
      <point x="957" y="-1"/>
      <point x="913" y="-1" type="curve" smooth="yes"/>
      <point x="888" y="-1"/>
      <point x="875" y="13"/>
      <point x="875" y="48" type="curve" smooth="yes"/>
      <point x="875" y="91"/>
      <point x="917" y="179"/>
      <point x="984" y="281" type="curve"/>
      <point x="987" y="239"/>
      <point x="988" y="196"/>
    </contour>
  </outline>
</glyph>
<glyph name="O" format="2">
  <advance width="984"/>
  <unicode hex="004F"/>
  <outline>
    <contour>
      <point x="87" y="319" type="curve" smooth="yes"/>
      <point x="87" y="94"/>
      <point x="236" y="-45"/>
      <point x="460" y="-45" type="curve" smooth="yes"/>
      <point x="747" y="-45"/>
      <point x="1008" y="245"/>
      <point x="1008" y="525" type="curve" smooth="yes"/>
      <point x="1008" y="736"/>
      <point x="858" y="894"/>
      <point x="641" y="894" type="curve" smooth="yes"/>
      <point x="361" y="894"/>
      <point x="87" y="620"/>
    </contour>
    <contour>
      <point x="641" y="890" type="curve" smooth="yes"/>
      <point x="814" y="890"/>
      <point x="923" y="739"/>
      <point x="923" y="536" type="curve" smooth="yes"/>
      <point x="923" y="230"/>
      <point x="677" y="-41"/>
      <point x="446" y="-41" type="curve" smooth="yes"/>
      <point x="277" y="-41"/>
      <point x="171" y="109"/>
      <point x="171" y="314" type="curve" smooth="yes"/>
      <point x="171" y="567"/>
      <point x="376" y="890"/>
    </contour>
  </outline>
</glyph>
<glyph name="P" format="2">
  <advance width="1285"/>
  <unicode hex="0050"/>
  <outline>
    <contour>
      <point x="896" y="891" type="curve"/>
      <point x="807" y="900"/>
      <point x="631" y="900"/>
      <point x="623" y="900" type="curve" smooth="yes"/>
      <point x="324" y="900"/>
      <point x="4" y="702"/>
      <point x="4" y="393" type="curve" smooth="yes"/>
      <point x="4" y="245"/>
      <point x="127" y="123"/>
      <point x="304" y="123" type="curve" smooth="yes"/>
      <point x="464" y="123"/>
      <point x="618" y="229"/>
      <point x="618" y="370" type="curve" smooth="yes"/>
      <point x="618" y="428"/>
      <point x="573" y="473"/>
      <point x="520" y="473" type="curve" smooth="yes"/>
      <point x="464" y="473"/>
      <point x="441" y="428"/>
      <point x="441" y="391" type="curve" smooth="yes"/>
      <point x="441" y="384"/>
      <point x="441" y="377"/>
      <point x="443" y="370" type="curve"/>
      <point x="452" y="395"/>
      <point x="475" y="408"/>
      <point x="498" y="408" type="curve" smooth="yes"/>
      <point x="539" y="408"/>
      <point x="565" y="371"/>
      <point x="565" y="324" type="curve" smooth="yes"/>
      <point x="565" y="200"/>
      <point x="433" y="128"/>
      <point x="315" y="128" type="curve" smooth="yes"/>
      <point x="153" y="128"/>
      <point x="73" y="281"/>
      <point x="73" y="422" type="curve" smooth="yes"/>
      <point x="73" y="754"/>
      <point x="325" y="890"/>
      <point x="645" y="890" type="curve" smooth="yes"/>
      <point x="768" y="890"/>
      <point x="811" y="885"/>
      <point x="787" y="789" type="curve" smooth="yes"/>
      <point x="606" y="74" type="line" smooth="yes"/>
      <point x="593" y="24"/>
      <point x="563" y="4"/>
      <point x="488" y="4" type="curve"/>
      <point x="488" y="0" type="line"/>
      <point x="763" y="0" type="line"/>
      <point x="764" y="4" type="line"/>
      <point x="724" y="4"/>
      <point x="673" y="10"/>
      <point x="690" y="74" type="curve" smooth="yes"/>
      <point x="897" y="876" type="line"/>
      <point x="923" y="889"/>
      <point x="991" y="894"/>
      <point x="1016" y="894" type="curve" smooth="yes"/>
      <point x="1213" y="894"/>
      <point x="1284" y="785"/>
      <point x="1284" y="654" type="curve"/>
      <point x="1279" y="456"/>
      <point x="1125" y="321"/>
      <point x="947" y="321" type="curve" smooth="yes"/>
      <point x="923" y="321"/>
      <point x="852" y="335"/>
      <point x="818" y="372" type="curve"/>
      <point x="806" y="357"/>
      <point x="832" y="340"/>
      <point x="845" y="334" type="curve" smooth="yes"/>
      <point x="869" y="323"/>
      <point x="911" y="316"/>
      <point x="970" y="316" type="curve" smooth="yes"/>
      <point x="1172" y="316"/>
      <point x="1363" y="454"/>
      <point x="1363" y="655" type="curve" smooth="yes"/>
      <point x="1363" y="790"/>
      <point x="1233" y="899"/>
      <point x="1028" y="899" type="curve" smooth="yes"/>
      <point x="965" y="899"/>
      <point x="914" y="893"/>
    </contour>
  </outline>
</glyph>
<glyph name="Q" format="2">
  <advance width="878"/>
  <unicode hex="0051"/>
  <outline>
    <contour>
      <point x="89" y="80" type="curve" smooth="yes"/>
      <point x="-19" y="80"/>
      <point x="-51" y="31"/>
      <point x="-47" y="-15" type="curve" smooth="yes"/>
      <point x="-42" y="-60"/>
      <point x="32" y="-105"/>
      <point x="162" y="-105" type="curve" smooth="yes"/>
      <point x="242" y="-105"/>
      <point x="320" y="-92"/>
      <point x="391" y="-68" type="curve"/>
      <point x="553" y="-227"/>
      <point x="712" y="-473"/>
      <point x="999" y="-473" type="curve" smooth="yes"/>
      <point x="1147" y="-473"/>
      <point x="1375" y="-359"/>
      <point x="1380" y="-203" type="curve" smooth="yes"/>
      <point x="1382" y="-145"/>
      <point x="1339" y="-100"/>
      <point x="1286" y="-100" type="curve" smooth="yes"/>
      <point x="1230" y="-100"/>
      <point x="1205" y="-145"/>
      <point x="1204" y="-182" type="curve"/>
      <point x="1204" y="-189"/>
      <point x="1203" y="-196"/>
      <point x="1205" y="-203" type="curve"/>
      <point x="1215" y="-178"/>
      <point x="1238" y="-165"/>
      <point x="1261" y="-165" type="curve" smooth="yes"/>
      <point x="1302" y="-165"/>
      <point x="1327" y="-202"/>
      <point x="1326" y="-249" type="curve" smooth="yes"/>
      <point x="1322" y="-371"/>
      <point x="1185" y="-441"/>
      <point x="1068" y="-441" type="curve" smooth="yes"/>
      <point x="853" y="-441"/>
      <point x="623" y="-215"/>
      <point x="416" y="-59" type="curve"/>
      <point x="701" y="45"/>
      <point x="899" y="309"/>
      <point x="906" y="525" type="curve" smooth="yes"/>
      <point x="913" y="735"/>
      <point x="768" y="893"/>
      <point x="552" y="894" type="curve" smooth="yes"/>
      <point x="549" y="894" type="line" smooth="yes"/>
      <point x="340" y="892"/>
      <point x="102" y="726"/>
      <point x="94" y="473" type="curve" smooth="yes"/>
      <point x="89" y="338"/>
      <point x="197" y="227"/>
      <point x="358" y="227" type="curve" smooth="yes"/>
      <point x="504" y="227"/>
      <point x="648" y="323"/>
      <point x="652" y="452" type="curve" smooth="yes"/>
      <point x="654" y="504"/>
      <point x="614" y="545"/>
      <point x="566" y="545" type="curve" smooth="yes"/>
      <point x="515" y="545"/>
      <point x="493" y="504"/>
      <point x="491" y="471" type="curve"/>
      <point x="491" y="464"/>
      <point x="491" y="458"/>
      <point x="493" y="452" type="curve"/>
      <point x="502" y="474"/>
      <point x="523" y="486"/>
      <point x="544" y="486" type="curve" smooth="yes"/>
      <point x="581" y="486"/>
      <point x="604" y="453"/>
      <point x="602" y="410" type="curve" smooth="yes"/>
      <point x="599" y="297"/>
      <point x="476" y="231"/>
      <point x="369" y="231" type="curve" smooth="yes"/>
      <point x="222" y="231"/>
      <point x="153" y="371"/>
      <point x="157" y="499" type="curve" smooth="yes"/>
      <point x="166" y="755"/>
      <point x="381" y="888"/>
      <point x="550" y="890" type="curve" smooth="yes"/>
      <point x="551" y="890" type="line" smooth="yes"/>
      <point x="724" y="890"/>
      <point x="828" y="739"/>
      <point x="822" y="536" type="curve" smooth="yes"/>
      <point x="814" y="307"/>
      <point x="659" y="56"/>
      <point x="402" y="-48" type="curve"/>
      <point x="384" y="-35"/>
      <point x="366" y="-22"/>
      <point x="348" y="-10" type="curve" smooth="yes"/>
      <point x="253" y="53"/>
      <point x="172" y="80"/>
    </contour>
    <contour>
      <point x="144" y="-98" type="curve" smooth="yes"/>
      <point x="50" y="-98"/>
      <point x="-9" y="-54"/>
      <point x="-15" y="-15" type="curve" smooth="yes"/>
      <point x="-19" y="22"/>
      <point x="13" y="73"/>
      <point x="101" y="73" type="curve" smooth="yes"/>
      <point x="194" y="73"/>
      <point x="276" y="31"/>
      <point x="341" y="-22" type="curve" smooth="yes"/>
      <point x="354" y="-33"/>
      <point x="367" y="-44"/>
      <point x="380" y="-57" type="curve"/>
      <point x="308" y="-83"/>
      <point x="229" y="-98"/>
    </contour>
  </outline>
</glyph>
<glyph name="V" format="2">
  <advance width="495"/>
  <unicode hex="0056"/>
  <outline>
    <contour>
      <point x="164" y="-49" type="line"/>
      <point x="229" y="74" type="line" smooth="yes"/>
      <point x="324" y="253"/>
      <point x="478" y="523"/>
      <point x="603" y="687" type="curve" smooth="yes"/>
      <point x="704" y="820"/>
      <point x="805" y="908"/>
      <point x="935" y="908" type="curve" smooth="yes"/>
      <point x="1029" y="908"/>
      <point x="1073" y="862"/>
      <point x="1073" y="805" type="curve" smooth="yes"/>
      <point x="1073" y="765"/>
      <point x="1052" y="730"/>
      <point x="1022" y="730" type="curve" smooth="yes"/>
      <point x="1008" y="730"/>
      <point x="997" y="738"/>
      <point x="995" y="752" type="curve"/>
      <point x="992" y="745"/>
      <point x="990" y="735"/>
      <point x="990" y="728" type="curve" smooth="yes"/>
      <point x="990" y="706"/>
      <point x="1005" y="685"/>
      <point x="1036" y="685" type="curve" smooth="yes"/>
      <point x="1080" y="685"/>
      <point x="1118" y="729"/>
      <point x="1118" y="773" type="curve" smooth="yes"/>
      <point x="1118" y="821"/>
      <point x="1073" y="920"/>
      <point x="909" y="920" type="curve" smooth="yes"/>
      <point x="790" y="920"/>
      <point x="673" y="868"/>
      <point x="569" y="720" type="curve" smooth="yes"/>
      <point x="512" y="641"/>
      <point x="432" y="488"/>
      <point x="234" y="95" type="curve"/>
      <point x="228" y="95" type="line"/>
      <point x="204" y="768" type="line" smooth="yes"/>
      <point x="202" y="819"/>
      <point x="226" y="858"/>
      <point x="312" y="858" type="curve"/>
      <point x="312" y="862" type="line"/>
      <point x="25" y="862" type="line"/>
      <point x="24" y="858" type="line"/>
      <point x="113" y="858"/>
      <point x="123" y="803"/>
      <point x="124" y="768" type="curve" smooth="yes"/>
      <point x="155" y="-49" type="line"/>
    </contour>
  </outline>
</glyph>
<glyph name="X" format="2">
  <advance width="1105"/>
  <unicode hex="0058"/>
  <outline>
    <contour>
      <point x="854" y="390" type="line" smooth="yes"/>
      <point x="876" y="305"/>
      <point x="912" y="177"/>
      <point x="935" y="82" type="curve" smooth="yes"/>
      <point x="947" y="27"/>
      <point x="935" y="4"/>
      <point x="864" y="4" type="curve"/>
      <point x="864" y="0" type="line"/>
      <point x="1145" y="0" type="line"/>
      <point x="1142" y="4" type="line"/>
      <point x="1075" y="4"/>
      <point x="1035" y="40"/>
      <point x="1020" y="95" type="curve" smooth="yes"/>
      <point x="906" y="510" type="line"/>
      <point x="950" y="595"/>
      <point x="993" y="652"/>
      <point x="1041" y="714" type="curve" smooth="yes"/>
      <point x="1149" y="859"/>
      <point x="1285" y="940"/>
      <point x="1425" y="940" type="curve" smooth="yes"/>
      <point x="1525" y="940"/>
      <point x="1573" y="887"/>
      <point x="1573" y="824" type="curve" smooth="yes"/>
      <point x="1573" y="781"/>
      <point x="1550" y="743"/>
      <point x="1518" y="743" type="curve" smooth="yes"/>
      <point x="1503" y="743"/>
      <point x="1491" y="752"/>
      <point x="1489" y="767" type="curve"/>
      <point x="1486" y="759"/>
      <point x="1483" y="749"/>
      <point x="1483" y="741" type="curve" smooth="yes"/>
      <point x="1483" y="717"/>
      <point x="1500" y="695"/>
      <point x="1533" y="695" type="curve" smooth="yes"/>
      <point x="1580" y="695"/>
      <point x="1621" y="742"/>
      <point x="1621" y="789" type="curve" smooth="yes"/>
      <point x="1621" y="841"/>
      <point x="1573" y="947"/>
      <point x="1397" y="947" type="curve" smooth="yes"/>
      <point x="1269" y="947"/>
      <point x="1144" y="891"/>
      <point x="1032" y="733" type="curve" smooth="yes"/>
      <point x="1001" y="688"/>
      <point x="958" y="625"/>
      <point x="904" y="515" type="curve"/>
      <point x="904" y="518" type="line"/>
      <point x="881" y="603"/>
      <point x="856" y="702"/>
      <point x="833" y="797" type="curve" smooth="yes"/>
      <point x="819" y="852"/>
      <point x="832" y="875"/>
      <point x="903" y="875" type="curve"/>
      <point x="904" y="879" type="line"/>
      <point x="623" y="879" type="line"/>
      <point x="625" y="875" type="line"/>
      <point x="692" y="875"/>
      <point x="726" y="845"/>
      <point x="742" y="790" type="curve" smooth="yes"/>
      <point x="769" y="695"/>
      <point x="812" y="549"/>
      <point x="840" y="444" type="curve" smooth="yes"/>
      <point x="846" y="421" type="line"/>
      <point x="730" y="208"/>
      <point x="590" y="-73"/>
      <point x="288" y="-73" type="curve" smooth="yes"/>
      <point x="159" y="-73"/>
      <point x="52" y="30"/>
      <point x="43" y="154" type="curve" smooth="yes"/>
      <point x="32" y="301"/>
      <point x="132" y="452"/>
      <point x="307" y="452" type="curve" smooth="yes"/>
      <point x="393" y="452"/>
      <point x="477" y="406"/>
      <point x="477" y="324" type="curve" smooth="yes"/>
      <point x="477" y="273"/>
      <point x="446" y="224"/>
      <point x="403" y="224" type="curve" smooth="yes"/>
      <point x="385" y="224"/>
      <point x="368" y="235"/>
      <point x="366" y="255" type="curve"/>
      <point x="360" y="245"/>
      <point x="358" y="232"/>
      <point x="358" y="221" type="curve" smooth="yes"/>
      <point x="358" y="193"/>
      <point x="379" y="167"/>
      <point x="423" y="167" type="curve" smooth="yes"/>
      <point x="480" y="167"/>
      <point x="526" y="224"/>
      <point x="526" y="287" type="curve" smooth="yes"/>
      <point x="526" y="385"/>
      <point x="423" y="457"/>
      <point x="300" y="457" type="curve" smooth="yes"/>
      <point x="110" y="457"/>
      <point x="-16" y="320"/>
      <point x="-16" y="188" type="curve" smooth="yes"/>
      <point x="-16" y="46"/>
      <point x="88" y="-82"/>
      <point x="314" y="-82" type="curve" smooth="yes"/>
      <point x="597" y="-82"/>
      <point x="732" y="188"/>
      <point x="847" y="416" type="curve"/>
    </contour>
  </outline>
</glyph>
<glyph name="Z" format="2">
  <advance width="848"/>
  <unicode hex="005A"/>
  <outline>
    <contour>
      <point x="1086" y="772" type="line"/>
      <point x="214" y="-58" type="line"/>
      <point x="175" y="-91"/>
      <point x="147" y="-131"/>
      <point x="145" y="-177" type="curve" smooth="yes"/>
      <point x="144" y="-204"/>
      <point x="161" y="-217"/>
      <point x="178" y="-217" type="curve" smooth="yes"/>
      <point x="191" y="-217"/>
      <point x="205" y="-207"/>
      <point x="210" y="-197" type="curve"/>
      <point x="203" y="-200"/>
      <point x="196" y="-202"/>
      <point x="190" y="-202" type="curve" smooth="yes"/>
      <point x="172" y="-202"/>
      <point x="158" y="-189"/>
      <point x="158" y="-170" type="curve" smooth="yes"/>
      <point x="158" y="-79"/>
      <point x="261" y="-33"/>
      <point x="346" y="-33" type="curve" smooth="yes"/>
      <point x="723" y="-33"/>
      <point x="794" y="-575"/>
      <point x="1229" y="-575" type="curve" smooth="yes"/>
      <point x="1377" y="-575"/>
      <point x="1606" y="-461"/>
      <point x="1613" y="-305" type="curve" smooth="yes"/>
      <point x="1615" y="-247"/>
      <point x="1572" y="-202"/>
      <point x="1519" y="-202" type="curve" smooth="yes"/>
      <point x="1463" y="-202"/>
      <point x="1438" y="-247"/>
      <point x="1437" y="-284" type="curve"/>
      <point x="1436" y="-291"/>
      <point x="1436" y="-298"/>
      <point x="1438" y="-305" type="curve"/>
      <point x="1448" y="-280"/>
      <point x="1471" y="-267"/>
      <point x="1494" y="-267" type="curve" smooth="yes"/>
      <point x="1535" y="-267"/>
      <point x="1560" y="-304"/>
      <point x="1558" y="-351" type="curve" smooth="yes"/>
      <point x="1553" y="-473"/>
      <point x="1383" y="-560"/>
      <point x="1266" y="-560" type="curve" smooth="yes"/>
      <point x="830" y="-560"/>
      <point x="798" y="35"/>
      <point x="437" y="35" type="curve" smooth="yes"/>
      <point x="400" y="35"/>
      <point x="341" y="18"/>
      <point x="285" y="-11" type="curve"/>
      <point x="279" y="-5" type="line"/>
      <point x="1130" y="807" type="line"/>
      <point x="1131" y="808" type="line"/>
      <point x="1159" y="831"/>
      <point x="1178" y="858"/>
      <point x="1179" y="887" type="curve" smooth="yes"/>
      <point x="1180" y="914"/>
      <point x="1163" y="927"/>
      <point x="1146" y="927" type="curve" smooth="yes"/>
      <point x="1133" y="927"/>
      <point x="1119" y="917"/>
      <point x="1114" y="907" type="curve"/>
      <point x="1121" y="910"/>
      <point x="1128" y="912"/>
      <point x="1134" y="912" type="curve" smooth="yes"/>
      <point x="1152" y="912"/>
      <point x="1167" y="899"/>
      <point x="1166" y="880" type="curve" smooth="yes"/>
      <point x="1164" y="827"/>
      <point x="1116" y="787"/>
      <point x="1044" y="795" type="curve" smooth="yes"/>
      <point x="948" y="809"/>
      <point x="839" y="871"/>
      <point x="746" y="871" type="curve" smooth="yes"/>
      <point x="636" y="871"/>
      <point x="440" y="780"/>
      <point x="434" y="657" type="curve" smooth="yes"/>
      <point x="432" y="611"/>
      <point x="468" y="566"/>
      <point x="510" y="566" type="curve" smooth="yes"/>
      <point x="573" y="566"/>
      <point x="594" y="612"/>
      <point x="594" y="660" type="curve"/>
      <point x="583" y="641"/>
      <point x="565" y="633"/>
      <point x="550" y="633" type="curve" smooth="yes"/>
      <point x="519" y="633"/>
      <point x="487" y="658"/>
      <point x="489" y="705" type="curve" smooth="yes"/>
      <point x="493" y="782"/>
      <point x="569" y="826"/>
      <point x="642" y="826" type="curve" smooth="yes"/>
      <point x="758" y="826"/>
      <point x="852" y="750"/>
      <point x="960" y="750" type="curve" smooth="yes"/>
      <point x="1001" y="750"/>
      <point x="1044" y="761"/>
      <point x="1081" y="778" type="curve"/>
    </contour>
  </outline>
</glyph>
<glyph name="bracketleft" format="2">
  <advance width="306"/>
  <unicode hex="005B"/>
  <outline>
    <contour>
      <point x="20" y="-169" type="line"/>
      <point x="262" y="-169" type="line"/>
      <point x="262" y="-164" type="line"/>
      <point x="98" y="-164" type="line"/>
      <point x="330" y="854" type="line"/>
      <point x="488" y="854" type="line"/>
      <point x="488" y="859" type="line"/>
      <point x="275" y="859" type="line"/>
      <point x="253" y="859" type="line"/>
    </contour>
  </outline>
</glyph>
<glyph name="bracketright" format="2">
  <advance width="346"/>
  <unicode hex="005D"/>
  <outline>
    <contour>
      <point x="428" y="859" type="line"/>
      <point x="186" y="859" type="line"/>
      <point x="186" y="854" type="line"/>
      <point x="350" y="854" type="line"/>
      <point x="118" y="-164" type="line"/>
      <point x="-40" y="-164" type="line"/>
      <point x="-40" y="-169" type="line"/>
      <point x="195" y="-169" type="line"/>
    </contour>
  </outline>
</glyph>
<glyph name="asciicircum" format="2">
  <advance width="540"/>
  <unicode hex="005E"/>
  <outline>
    <contour>
      <point x="453" y="850" type="line" smooth="yes"/>
      <point x="444" y="865"/>
      <point x="434" y="860"/>
      <point x="424" y="853" type="curve"/>
      <point x="248" y="699" type="line"/>
      <point x="246" y="691"/>
      <point x="248" y="692"/>
      <point x="250" y="692" type="curve"/>
      <point x="401" y="776" type="line" smooth="yes"/>
      <point x="409" y="780"/>
      <point x="416" y="782"/>
      <point x="420" y="782" type="curve" smooth="yes"/>
      <point x="426" y="782"/>
      <point x="431" y="781"/>
      <point x="437" y="776" type="curve"/>
      <point x="533" y="687" type="line"/>
      <point x="541" y="682"/>
      <point x="543" y="684"/>
      <point x="539" y="692" type="curve" smooth="yes"/>
    </contour>
  </outline>
</glyph>
<glyph name="grave" format="2">
  <advance width="418"/>
  <unicode hex="0060"/>
  <outline>
    <contour>
      <point x="463" y="676" type="line"/>
      <point x="321" y="848" type="line" smooth="yes"/>
      <point x="269" y="910"/>
      <point x="208" y="828"/>
      <point x="268" y="792" type="curve" smooth="yes"/>
      <point x="457" y="676" type="line"/>
    </contour>
  </outline>
</glyph>
<glyph name="b" format="2">
  <advance width="492"/>
  <unicode hex="0062"/>
  <outline>
    <contour>
      <point x="19" y="-22" type="line"/>
      <point x="26" y="1" type="line" smooth="yes"/>
      <point x="36" y="33"/>
      <point x="51" y="48"/>
      <point x="80" y="48" type="curve" smooth="yes"/>
      <point x="104" y="48"/>
      <point x="123" y="25"/>
      <point x="153" y="9" type="curve" smooth="yes"/>
      <point x="176" y="-3"/>
      <point x="198" y="-10"/>
      <point x="219" y="-10" type="curve" smooth="yes"/>
      <point x="225" y="-10" type="line" smooth="yes"/>
      <point x="340" y="-10"/>
      <point x="460" y="120"/>
      <point x="496" y="282" type="curve" smooth="yes"/>
      <point x="530" y="444"/>
      <point x="480" y="574"/>
      <point x="362" y="574" type="curve" smooth="yes"/>
      <point x="302" y="574"/>
      <point x="240" y="517"/>
      <point x="194" y="410" type="curve"/>
      <point x="314" y="920" type="line"/>
      <point x="175" y="898" type="line"/>
      <point x="175" y="895" type="line"/>
      <point x="212" y="899"/>
      <point x="232" y="888"/>
      <point x="224" y="854" type="curve" smooth="yes"/>
      <point x="35" y="45" type="line"/>
      <point x="14" y="-22" type="line"/>
    </contour>
    <contour>
      <point x="355" y="564" type="curve" smooth="yes"/>
      <point x="428" y="564"/>
      <point x="461" y="470"/>
      <point x="412" y="282" type="curve" smooth="yes"/>
      <point x="365" y="93"/>
      <point x="293" y="-6"/>
      <point x="220" y="-6" type="curve" smooth="yes"/>
      <point x="178" y="-6"/>
      <point x="142" y="14"/>
      <point x="127" y="66" type="curve" smooth="yes"/>
      <point x="120" y="90"/>
      <point x="125" y="115"/>
      <point x="133" y="150" type="curve"/>
      <point x="135" y="157" type="line"/>
      <point x="176" y="334" type="line"/>
      <point x="220" y="486"/>
      <point x="288" y="564"/>
    </contour>
  </outline>
</glyph>
<glyph name="f" format="2">
  <advance width="231"/>
  <unicode hex="0066"/>
  <outline>
    <contour>
      <point x="128" y="544" type="line"/>
      <point x="172" y="544" type="line"/>
      <point x="162" y="500" type="line"/>
      <point x="83" y="162" type="line" smooth="yes"/>
      <point x="42" y="-5"/>
      <point x="-23" y="-382"/>
      <point x="-234" y="-382" type="curve" smooth="yes"/>
      <point x="-276" y="-382"/>
      <point x="-314" y="-356"/>
      <point x="-314" y="-311" type="curve" smooth="yes"/>
      <point x="-314" y="-281"/>
      <point x="-290" y="-248"/>
      <point x="-254" y="-248" type="curve" smooth="yes"/>
      <point x="-242" y="-248"/>
      <point x="-232" y="-250"/>
      <point x="-222" y="-261" type="curve"/>
      <point x="-220" y="-243"/>
      <point x="-229" y="-193"/>
      <point x="-282" y="-193" type="curve" smooth="yes"/>
      <point x="-329" y="-193"/>
      <point x="-375" y="-234"/>
      <point x="-376" y="-289" type="curve"/>
      <point x="-376" y="-362"/>
      <point x="-313" y="-391"/>
      <point x="-256" y="-391" type="curve" smooth="yes"/>
      <point x="-239" y="-391"/>
      <point x="-223" y="-389"/>
      <point x="-207" y="-387" type="curve" smooth="yes"/>
      <point x="48" y="-351"/>
      <point x="107" y="-55"/>
      <point x="166" y="202" type="curve" smooth="yes"/>
      <point x="240" y="525" type="line"/>
      <point x="244" y="544" type="line"/>
      <point x="320" y="544" type="line"/>
      <point x="320" y="548" type="line"/>
      <point x="245" y="548" type="line"/>
      <point x="306" y="853"/>
      <point x="419" y="931"/>
      <point x="487" y="925" type="curve" smooth="yes"/>
      <point x="523" y="922"/>
      <point x="543" y="901"/>
      <point x="543" y="875" type="curve" smooth="yes"/>
      <point x="543" y="847"/>
      <point x="520" y="816"/>
      <point x="487" y="816" type="curve" smooth="yes"/>
      <point x="476" y="816"/>
      <point x="466" y="818"/>
      <point x="457" y="829" type="curve"/>
      <point x="455" y="812"/>
      <point x="463" y="765"/>
      <point x="513" y="765" type="curve" smooth="yes"/>
      <point x="557" y="765"/>
      <point x="600" y="803"/>
      <point x="601" y="855" type="curve" smooth="yes"/>
      <point x="601" y="903"/>
      <point x="560" y="930"/>
      <point x="518" y="933" type="curve" smooth="yes"/>
      <point x="428" y="940"/>
      <point x="287" y="862"/>
      <point x="212" y="666" type="curve" smooth="yes"/>
      <point x="195" y="622"/>
      <point x="184" y="586"/>
      <point x="174" y="548" type="curve"/>
      <point x="128" y="548" type="line"/>
    </contour>
  </outline>
</glyph>
<glyph name="g" format="2">
  <advance width="458"/>
  <unicode hex="0067"/>
  <outline>
    <contour>
      <point x="103" y="368" type="curve" smooth="yes"/>
      <point x="85" y="290"/>
      <point x="105" y="222"/>
      <point x="158" y="189" type="curve"/>
      <point x="111" y="190"/>
      <point x="42" y="129"/>
      <point x="42" y="76" type="curve" smooth="yes"/>
      <point x="42" y="18"/>
      <point x="81" y="-10"/>
      <point x="133" y="-29" type="curve"/>
      <point x="124" y="-29" type="line" smooth="yes"/>
      <point x="-44" y="-29"/>
      <point x="-237" y="-125"/>
      <point x="-237" y="-286" type="curve" smooth="yes"/>
      <point x="-237" y="-412"/>
      <point x="-106" y="-476"/>
      <point x="38" y="-476" type="curve" smooth="yes"/>
      <point x="209" y="-476"/>
      <point x="464" y="-364"/>
      <point x="464" y="-176" type="curve" smooth="yes"/>
      <point x="464" y="-70"/>
      <point x="400" y="-28"/>
      <point x="311" y="0" type="curve" smooth="yes"/>
      <point x="217" y="30"/>
      <point x="98" y="45"/>
      <point x="98" y="126" type="curve" smooth="yes"/>
      <point x="98" y="164"/>
      <point x="139" y="194"/>
      <point x="173" y="181" type="curve"/>
      <point x="174" y="181"/>
      <point x="175" y="180"/>
      <point x="176" y="180" type="curve"/>
      <point x="177" y="179"/>
      <point x="177" y="179"/>
      <point x="178" y="179" type="curve"/>
      <point x="198" y="170"/>
      <point x="221" y="166"/>
      <point x="248" y="166" type="curve" smooth="yes"/>
      <point x="351" y="166"/>
      <point x="458" y="256"/>
      <point x="485" y="368" type="curve" smooth="yes"/>
      <point x="506" y="459"/>
      <point x="474" y="537"/>
      <point x="396" y="561" type="curve"/>
      <point x="476" y="552"/>
      <point x="560" y="605"/>
      <point x="560" y="678" type="curve" smooth="yes"/>
      <point x="560" y="711"/>
      <point x="535" y="741"/>
      <point x="502" y="741" type="curve" smooth="yes"/>
      <point x="472" y="741"/>
      <point x="450" y="722"/>
      <point x="451" y="693" type="curve"/>
      <point x="460" y="703"/>
      <point x="470" y="706"/>
      <point x="479" y="706" type="curve" smooth="yes"/>
      <point x="504" y="706"/>
      <point x="519" y="686"/>
      <point x="519" y="664" type="curve" smooth="yes"/>
      <point x="519" y="595"/>
      <point x="447" y="553"/>
      <point x="381" y="565" type="curve" smooth="yes"/>
      <point x="368" y="567"/>
      <point x="354" y="569"/>
      <point x="340" y="569" type="curve" smooth="yes"/>
      <point x="237" y="569"/>
      <point x="130" y="479"/>
    </contour>
    <contour>
      <point x="233" y="-58" type="curve" smooth="yes"/>
      <point x="315" y="-80"/>
      <point x="393" y="-111"/>
      <point x="393" y="-211" type="curve" smooth="yes"/>
      <point x="393" y="-363"/>
      <point x="240" y="-462"/>
      <point x="81" y="-462" type="curve" smooth="yes"/>
      <point x="-29" y="-462"/>
      <point x="-160" y="-409"/>
      <point x="-160" y="-272" type="curve" smooth="yes"/>
      <point x="-160" y="-116"/>
      <point x="1" y="-33"/>
      <point x="138" y="-33" type="curve" smooth="yes"/>
      <point x="144" y="-33" type="line"/>
      <point x="172" y="-42"/>
      <point x="203" y="-49"/>
    </contour>
    <contour>
      <point x="190" y="368" type="curve" smooth="yes"/>
      <point x="225" y="498"/>
      <point x="283" y="563"/>
      <point x="344" y="563" type="curve" smooth="yes"/>
      <point x="407" y="563"/>
      <point x="432" y="496"/>
      <point x="398" y="368" type="curve" smooth="yes"/>
      <point x="366" y="240"/>
      <point x="305" y="172"/>
      <point x="243" y="172" type="curve" smooth="yes"/>
      <point x="181" y="172"/>
      <point x="152" y="238"/>
    </contour>
  </outline>
</glyph>
<glyph name="j" format="2">
  <advance width="211"/>
  <unicode hex="006A"/>
  <outline>
    <contour>
      <point x="241" y="569" type="line"/>
      <point x="104" y="547" type="line"/>
      <point x="104" y="544" type="line"/>
      <point x="141" y="548"/>
      <point x="161" y="537"/>
      <point x="153" y="503" type="curve" smooth="yes"/>
      <point x="72" y="165" type="line" smooth="yes"/>
      <point x="31" y="-2"/>
      <point x="-34" y="-379"/>
      <point x="-245" y="-379" type="curve" smooth="yes"/>
      <point x="-287" y="-379"/>
      <point x="-325" y="-353"/>
      <point x="-325" y="-308" type="curve" smooth="yes"/>
      <point x="-325" y="-278"/>
      <point x="-301" y="-245"/>
      <point x="-265" y="-245" type="curve" smooth="yes"/>
      <point x="-253" y="-245"/>
      <point x="-243" y="-247"/>
      <point x="-233" y="-258" type="curve"/>
      <point x="-231" y="-240"/>
      <point x="-240" y="-190"/>
      <point x="-293" y="-190" type="curve" smooth="yes"/>
      <point x="-340" y="-190"/>
      <point x="-386" y="-231"/>
      <point x="-387" y="-286" type="curve"/>
      <point x="-387" y="-359"/>
      <point x="-324" y="-388"/>
      <point x="-267" y="-388" type="curve" smooth="yes"/>
      <point x="-250" y="-388"/>
      <point x="-234" y="-386"/>
      <point x="-218" y="-384" type="curve" smooth="yes"/>
      <point x="37" y="-348"/>
      <point x="86" y="-86"/>
      <point x="155" y="205" type="curve" smooth="yes"/>
    </contour>
    <contour>
      <point x="203" y="797" type="curve" smooth="yes"/>
      <point x="197" y="762"/>
      <point x="221" y="735"/>
      <point x="256" y="735" type="curve" smooth="yes"/>
      <point x="290" y="735"/>
      <point x="321" y="762"/>
      <point x="327" y="797" type="curve" smooth="yes"/>
      <point x="332" y="832"/>
      <point x="308" y="859"/>
      <point x="273" y="859" type="curve" smooth="yes"/>
      <point x="239" y="859"/>
      <point x="208" y="832"/>
    </contour>
  </outline>
</glyph>
<glyph name="k" format="2">
  <advance width="465"/>
  <unicode hex="006B"/>
  <outline>
    <contour>
      <point x="509" y="489" type="curve" smooth="yes"/>
      <point x="509" y="544"/>
      <point x="461" y="578"/>
      <point x="414" y="578" type="curve" smooth="yes"/>
      <point x="299" y="578"/>
      <point x="239" y="474"/>
      <point x="205" y="382" type="curve"/>
      <point x="332" y="920" type="line"/>
      <point x="193" y="898" type="line"/>
      <point x="193" y="895" type="line"/>
      <point x="230" y="899"/>
      <point x="250" y="888"/>
      <point x="242" y="854" type="curve" smooth="yes"/>
      <point x="53" y="45" type="line" smooth="yes"/>
      <point x="44" y="7"/>
      <point x="22" y="4"/>
      <point x="-5" y="4" type="curve"/>
      <point x="-5" y="1" type="line"/>
      <point x="167" y="1" type="line"/>
      <point x="168" y="4" type="line"/>
      <point x="161" y="4" type="line" smooth="yes"/>
      <point x="132" y="4"/>
      <point x="119" y="15"/>
      <point x="126" y="45" type="curve" smooth="yes"/>
      <point x="193" y="331" type="line"/>
      <point x="230" y="308"/>
      <point x="263" y="260"/>
      <point x="292" y="193" type="curve" smooth="yes"/>
      <point x="331" y="102"/>
      <point x="358" y="-34"/>
      <point x="398" y="-115" type="curve" smooth="yes"/>
      <point x="487" y="-296"/>
      <point x="593" y="-353"/>
      <point x="739" y="-361" type="curve" smooth="yes"/>
      <point x="877" y="-368"/>
      <point x="1040" y="-276"/>
      <point x="1040" y="-131" type="curve" smooth="yes"/>
      <point x="1040" y="-77"/>
      <point x="998" y="-36"/>
      <point x="949" y="-36" type="curve" smooth="yes"/>
      <point x="897" y="-36"/>
      <point x="876" y="-77"/>
      <point x="876" y="-112" type="curve" smooth="yes"/>
      <point x="876" y="-118"/>
      <point x="876" y="-125"/>
      <point x="878" y="-131" type="curve"/>
      <point x="886" y="-108"/>
      <point x="907" y="-96"/>
      <point x="929" y="-96" type="curve" smooth="yes"/>
      <point x="967" y="-96"/>
      <point x="991" y="-130"/>
      <point x="991" y="-174" type="curve" smooth="yes"/>
      <point x="991" y="-289"/>
      <point x="869" y="-359"/>
      <point x="758" y="-356" type="curve" smooth="yes"/>
      <point x="490" y="-348"/>
      <point x="391" y="246"/>
      <point x="194" y="336" type="curve"/>
      <point x="216" y="410"/>
      <point x="274" y="561"/>
      <point x="382" y="561" type="curve" smooth="yes"/>
      <point x="420" y="561"/>
      <point x="439" y="535"/>
      <point x="439" y="505" type="curve" smooth="yes"/>
      <point x="439" y="477"/>
      <point x="416" y="445"/>
      <point x="381" y="445" type="curve" smooth="yes"/>
      <point x="368" y="445"/>
      <point x="357" y="448"/>
      <point x="347" y="460" type="curve"/>
      <point x="344" y="441"/>
      <point x="354" y="387"/>
      <point x="410" y="387" type="curve" smooth="yes"/>
      <point x="460" y="387"/>
      <point x="509" y="430"/>
    </contour>
  </outline>
</glyph>
<glyph name="m" format="2">
  <advance width="807"/>
  <unicode hex="006D"/>
  <outline>
    <contour>
      <point x="381" y="210" type="line"/>
      <point x="342" y="45" type="line" smooth="yes"/>
      <point x="333" y="7"/>
      <point x="311" y="4"/>
      <point x="284" y="4" type="curve"/>
      <point x="284" y="1" type="line"/>
      <point x="456" y="1" type="line"/>
      <point x="457" y="4" type="line"/>
      <point x="450" y="4" type="line" smooth="yes"/>
      <point x="421" y="4"/>
      <point x="408" y="15"/>
      <point x="415" y="45" type="curve" smooth="yes"/>
      <point x="454" y="210" type="line"/>
      <point x="497" y="385" type="line"/>
      <point x="526" y="464"/>
      <point x="575" y="558"/>
      <point x="653" y="563" type="curve" smooth="yes"/>
      <point x="753" y="569"/>
      <point x="737" y="457"/>
      <point x="719" y="381" type="curve" smooth="yes"/>
      <point x="673" y="195" type="line" smooth="yes"/>
      <point x="668" y="173"/>
      <point x="647" y="98"/>
      <point x="647" y="67" type="curve" smooth="yes"/>
      <point x="647" y="20"/>
      <point x="690" y="-8"/>
      <point x="737" y="-8" type="curve" smooth="yes"/>
      <point x="748" y="-8"/>
      <point x="782" y="-7"/>
      <point x="800" y="20" type="curve"/>
      <point x="796" y="21" type="line"/>
      <point x="784" y="1"/>
      <point x="769" y="1"/>
      <point x="759" y="1" type="curve" smooth="yes"/>
      <point x="705" y="1"/>
      <point x="714" y="65"/>
      <point x="746" y="195" type="curve" smooth="yes"/>
      <point x="797" y="400" type="line" smooth="yes"/>
      <point x="817" y="487"/>
      <point x="799" y="583"/>
      <point x="682" y="578" type="curve" smooth="yes"/>
      <point x="588" y="574"/>
      <point x="537" y="496"/>
      <point x="504" y="414" type="curve"/>
      <point x="519" y="497"/>
      <point x="496" y="582"/>
      <point x="386" y="578" type="curve" smooth="yes"/>
      <point x="286" y="573"/>
      <point x="234" y="485"/>
      <point x="201" y="396" type="curve"/>
      <point x="242" y="569" type="line"/>
      <point x="103" y="547" type="line"/>
      <point x="103" y="544" type="line"/>
      <point x="140" y="548"/>
      <point x="160" y="537"/>
      <point x="152" y="503" type="curve" smooth="yes"/>
      <point x="45" y="45" type="line" smooth="yes"/>
      <point x="36" y="7"/>
      <point x="14" y="4"/>
      <point x="-13" y="4" type="curve"/>
      <point x="-13" y="1" type="line"/>
      <point x="159" y="1" type="line"/>
      <point x="160" y="4" type="line"/>
      <point x="153" y="4" type="line" smooth="yes"/>
      <point x="124" y="4"/>
      <point x="111" y="15"/>
      <point x="118" y="45" type="curve" smooth="yes"/>
      <point x="192" y="360" type="line"/>
      <point x="219" y="443"/>
      <point x="270" y="558"/>
      <point x="357" y="563" type="curve" smooth="yes"/>
      <point x="457" y="569"/>
      <point x="441" y="457"/>
      <point x="423" y="381" type="curve" smooth="yes"/>
    </contour>
  </outline>
</glyph>
<glyph name="o" format="2">
  <advance width="468"/>
  <unicode hex="006F"/>
  <outline>
    <contour>
      <point x="58" y="282" type="curve" smooth="yes"/>
      <point x="27" y="120"/>
      <point x="91" y="-10"/>
      <point x="209" y="-10" type="curve" smooth="yes"/>
      <point x="323" y="-10"/>
      <point x="442" y="120"/>
      <point x="475" y="282" type="curve" smooth="yes"/>
      <point x="506" y="444"/>
      <point x="441" y="574"/>
      <point x="324" y="574" type="curve" smooth="yes"/>
      <point x="209" y="574"/>
      <point x="91" y="444"/>
    </contour>
    <contour>
      <point x="142" y="282" type="curve" smooth="yes"/>
      <point x="186" y="471"/>
      <point x="256" y="570"/>
      <point x="329" y="570" type="curve" smooth="yes"/>
      <point x="403" y="570"/>
      <point x="431" y="469"/>
      <point x="391" y="282" type="curve" smooth="yes"/>
      <point x="351" y="96"/>
      <point x="278" y="-6"/>
      <point x="204" y="-6" type="curve" smooth="yes"/>
      <point x="131" y="-6"/>
      <point x="96" y="94"/>
    </contour>
  </outline>
</glyph>
<glyph name="p" format="2">
  <advance width="492"/>
  <unicode hex="0070"/>
  <outline>
    <contour>
      <point x="225" y="-10" type="curve" smooth="yes"/>
      <point x="340" y="-10"/>
      <point x="460" y="120"/>
      <point x="496" y="282" type="curve" smooth="yes"/>
      <point x="530" y="444"/>
      <point x="480" y="574"/>
      <point x="362" y="574" type="curve" smooth="yes"/>
      <point x="302" y="574"/>
      <point x="239" y="516"/>
      <point x="193" y="408" type="curve"/>
      <point x="201" y="444" type="line" smooth="yes"/>
      <point x="206" y="466"/>
      <point x="209" y="487"/>
      <point x="209" y="500" type="curve" smooth="yes"/>
      <point x="209" y="547"/>
      <point x="168" y="575"/>
      <point x="121" y="575" type="curve" smooth="yes"/>
      <point x="110" y="575"/>
      <point x="76" y="574"/>
      <point x="58" y="547" type="curve"/>
      <point x="62" y="546" type="line"/>
      <point x="74" y="566"/>
      <point x="89" y="566"/>
      <point x="99" y="566" type="curve" smooth="yes"/>
      <point x="153" y="566"/>
      <point x="145" y="501"/>
      <point x="115" y="372" type="curve" smooth="yes"/>
      <point x="-37" y="-277" type="line" smooth="yes"/>
      <point x="-44" y="-308"/>
      <point x="-65" y="-341"/>
      <point x="-92" y="-341" type="curve"/>
      <point x="-92" y="-344" type="line"/>
      <point x="127" y="-318" type="line"/>
      <point x="128" y="-315" type="line"/>
      <point x="82" y="-318" type="line"/>
      <point x="39" y="-318"/>
      <point x="32" y="-275"/>
      <point x="41" y="-238" type="curve" smooth="yes"/>
      <point x="113" y="68" type="line"/>
      <point x="128" y="13"/>
      <point x="170" y="-10"/>
    </contour>
    <contour>
      <point x="355" y="564" type="curve" smooth="yes"/>
      <point x="428" y="564"/>
      <point x="461" y="470"/>
      <point x="412" y="282" type="curve" smooth="yes"/>
      <point x="365" y="93"/>
      <point x="293" y="-6"/>
      <point x="220" y="-6" type="curve" smooth="yes"/>
      <point x="178" y="-6"/>
      <point x="142" y="14"/>
      <point x="127" y="66" type="curve" smooth="yes"/>
      <point x="117" y="100"/>
      <point x="131" y="135"/>
      <point x="144" y="199" type="curve" smooth="yes"/>
      <point x="173" y="324" type="line" smooth="yes"/>
      <point x="217" y="482"/>
      <point x="287" y="564"/>
    </contour>
  </outline>
</glyph>
<glyph name="s" format="2">
  <advance width="403"/>
  <unicode hex="0073"/>
  <outline>
    <contour>
      <point x="390" y="378" type="line"/>
      <point x="437" y="582" type="line"/>
      <point x="435" y="582" type="line"/>
      <point x="431" y="567"/>
      <point x="419" y="550"/>
      <point x="388" y="552" type="curve" smooth="yes"/>
      <point x="361" y="554"/>
      <point x="339" y="571"/>
      <point x="299" y="571" type="curve" smooth="yes"/>
      <point x="229" y="571"/>
      <point x="143" y="519"/>
      <point x="141" y="446" type="curve" smooth="yes"/>
      <point x="139" y="342"/>
      <point x="313" y="226"/>
      <point x="313" y="109" type="curve" smooth="yes"/>
      <point x="313" y="49"/>
      <point x="267" y="-4"/>
      <point x="177" y="-4" type="curve" smooth="yes"/>
      <point x="87" y="-4"/>
      <point x="64" y="49"/>
      <point x="64" y="92" type="curve" smooth="yes"/>
      <point x="64" y="146"/>
      <point x="100" y="175"/>
      <point x="134" y="175" type="curve" smooth="yes"/>
      <point x="150" y="175"/>
      <point x="168" y="168"/>
      <point x="171" y="150" type="curve"/>
      <point x="180" y="197"/>
      <point x="156" y="236"/>
      <point x="104" y="236" type="curve" smooth="yes"/>
      <point x="46" y="236"/>
      <point x="11" y="188"/>
      <point x="11" y="139" type="curve" smooth="yes"/>
      <point x="11" y="75"/>
      <point x="71" y="-10"/>
      <point x="177" y="-10" type="curve" smooth="yes"/>
      <point x="287" y="-10"/>
      <point x="377" y="80"/>
      <point x="377" y="168" type="curve" smooth="yes"/>
      <point x="377" y="287"/>
      <point x="212" y="367"/>
      <point x="212" y="485" type="curve" smooth="yes"/>
      <point x="212" y="548"/>
      <point x="258" y="567"/>
      <point x="293" y="567" type="curve" smooth="yes"/>
      <point x="356" y="567"/>
      <point x="412" y="504"/>
      <point x="384" y="378" type="curve"/>
    </contour>
  </outline>
</glyph>
<glyph name="t" format="2">
  <advance width="242"/>
  <unicode hex="0074"/>
  <outline>
    <contour>
      <point x="121" y="544" type="line"/>
      <point x="151" y="544" type="line"/>
      <point x="73" y="208" type="line" smooth="yes"/>
      <point x="44" y="82"/>
      <point x="43" y="-8"/>
      <point x="171" y="-8" type="curve" smooth="yes"/>
      <point x="182" y="-8"/>
      <point x="216" y="-7"/>
      <point x="234" y="20" type="curve"/>
      <point x="230" y="21" type="line"/>
      <point x="217" y="3"/>
      <point x="203" y="1"/>
      <point x="193" y="1" type="curve" smooth="yes"/>
      <point x="139" y="1"/>
      <point x="109" y="50"/>
      <point x="146" y="208" type="curve" smooth="yes"/>
      <point x="224" y="544" type="line"/>
      <point x="313" y="544" type="line"/>
      <point x="313" y="548" type="line"/>
      <point x="225" y="548" type="line"/>
      <point x="261" y="699" type="line"/>
      <point x="183" y="682" type="line"/>
      <point x="152" y="548" type="line"/>
      <point x="121" y="548" type="line"/>
    </contour>
  </outline>
</glyph>
<glyph name="v" format="2">
  <advance width="400"/>
  <unicode hex="0076"/>
  <outline>
    <contour>
      <point x="217" y="576" type="line"/>
      <point x="159" y="576"/>
      <point x="79" y="503"/>
      <point x="73" y="418" type="curve" smooth="yes"/>
      <point x="66" y="315"/>
      <point x="129" y="167"/>
      <point x="121" y="64" type="curve" smooth="yes"/>
      <point x="119" y="30"/>
      <point x="112" y="2"/>
      <point x="96" y="-14" type="curve"/>
      <point x="100" y="-15"/>
      <point x="100" y="-15"/>
      <point x="103" y="-16" type="curve"/>
      <point x="105" y="-13"/>
      <point x="107" y="-10"/>
      <point x="110" y="-7" type="curve" smooth="yes"/>
      <point x="126" y="8"/>
      <point x="153" y="35"/>
      <point x="172" y="70" type="curve"/>
      <point x="287" y="204"/>
      <point x="451" y="375"/>
      <point x="451" y="489" type="curve" smooth="yes"/>
      <point x="451" y="540"/>
      <point x="422" y="577"/>
      <point x="371" y="577" type="curve" smooth="yes"/>
      <point x="320" y="577"/>
      <point x="288" y="537"/>
      <point x="288" y="500" type="curve"/>
      <point x="287" y="485"/>
      <point x="292" y="472"/>
      <point x="300" y="465" type="curve"/>
      <point x="298" y="485"/>
      <point x="305" y="500"/>
      <point x="317" y="509" type="curve" smooth="yes"/>
      <point x="326" y="516"/>
      <point x="337" y="520"/>
      <point x="348" y="520" type="curve" smooth="yes"/>
      <point x="370" y="520"/>
      <point x="403" y="507"/>
      <point x="403" y="449" type="curve" smooth="yes"/>
      <point x="403" y="360"/>
      <point x="289" y="214"/>
      <point x="176" y="77" type="curve"/>
      <point x="185" y="94"/>
      <point x="190" y="113"/>
      <point x="192" y="132" type="curve" smooth="yes"/>
      <point x="199" y="228"/>
      <point x="138" y="368"/>
      <point x="145" y="464" type="curve" smooth="yes"/>
      <point x="150" y="528"/>
      <point x="170" y="572"/>
      <point x="217" y="572" type="curve"/>
    </contour>
  </outline>
</glyph>
<glyph name="w" format="2">
  <advance width="683"/>
  <unicode hex="0077"/>
  <outline>
    <contour>
      <point x="217" y="576" type="line"/>
      <point x="159" y="576"/>
      <point x="79" y="503"/>
      <point x="73" y="418" type="curve" smooth="yes"/>
      <point x="66" y="315"/>
      <point x="129" y="167"/>
      <point x="121" y="64" type="curve" smooth="yes"/>
      <point x="119" y="30"/>
      <point x="112" y="2"/>
      <point x="96" y="-14" type="curve"/>
      <point x="100" y="-16" type="line"/>
      <point x="106" y="-10" type="line"/>
      <point x="113" y="-4"/>
      <point x="122" y="5"/>
      <point x="132" y="15" type="curve" smooth="yes"/>
      <point x="223" y="109"/>
      <point x="289" y="208"/>
      <point x="358" y="356" type="curve"/>
      <point x="370" y="261"/>
      <point x="410" y="147"/>
      <point x="404" y="64" type="curve" smooth="yes"/>
      <point x="402" y="30"/>
      <point x="395" y="2"/>
      <point x="379" y="-14" type="curve"/>
      <point x="383" y="-15"/>
      <point x="383" y="-15"/>
      <point x="386" y="-16" type="curve"/>
      <point x="388" y="-13"/>
      <point x="390" y="-10"/>
      <point x="393" y="-7" type="curve" smooth="yes"/>
      <point x="409" y="8"/>
      <point x="436" y="35"/>
      <point x="455" y="70" type="curve"/>
      <point x="570" y="204"/>
      <point x="734" y="375"/>
      <point x="734" y="489" type="curve" smooth="yes"/>
      <point x="734" y="540"/>
      <point x="705" y="577"/>
      <point x="654" y="577" type="curve" smooth="yes"/>
      <point x="603" y="577"/>
      <point x="571" y="537"/>
      <point x="571" y="500" type="curve"/>
      <point x="570" y="485"/>
      <point x="575" y="472"/>
      <point x="583" y="465" type="curve"/>
      <point x="581" y="485"/>
      <point x="588" y="500"/>
      <point x="600" y="509" type="curve" smooth="yes"/>
      <point x="609" y="516"/>
      <point x="620" y="520"/>
      <point x="631" y="520" type="curve" smooth="yes"/>
      <point x="653" y="520"/>
      <point x="686" y="507"/>
      <point x="686" y="449" type="curve" smooth="yes"/>
      <point x="686" y="360"/>
      <point x="572" y="214"/>
      <point x="459" y="77" type="curve"/>
      <point x="468" y="94"/>
      <point x="473" y="113"/>
      <point x="475" y="132" type="curve" smooth="yes"/>
      <point x="482" y="228"/>
      <point x="421" y="368"/>
      <point x="428" y="464" type="curve" smooth="yes"/>
      <point x="433" y="528"/>
      <point x="453" y="572"/>
      <point x="500" y="572" type="curve"/>
      <point x="500" y="576" type="line"/>
      <point x="442" y="576"/>
      <point x="362" y="503"/>
      <point x="356" y="418" type="curve"/>
      <point x="334" y="307"/>
      <point x="263" y="175"/>
      <point x="167" y="61" type="curve"/>
      <point x="180" y="82"/>
      <point x="190" y="106"/>
      <point x="192" y="132" type="curve" smooth="yes"/>
      <point x="199" y="228"/>
      <point x="138" y="368"/>
      <point x="145" y="464" type="curve" smooth="yes"/>
      <point x="150" y="528"/>
      <point x="170" y="572"/>
      <point x="217" y="572" type="curve"/>
    </contour>
  </outline>
</glyph>
<glyph name="x" format="2">
  <advance width="397"/>
  <unicode hex="0078"/>
  <outline>
    <contour>
      <point x="481" y="505" type="curve" smooth="yes"/>
      <point x="483" y="547"/>
      <point x="448" y="573"/>
      <point x="412" y="573" type="curve" smooth="yes"/>
      <point x="322" y="573"/>
      <point x="254" y="474"/>
      <point x="203" y="348" type="curve"/>
      <point x="189" y="415"/>
      <point x="171" y="503"/>
      <point x="163" y="562" type="curve"/>
      <point x="24" y="542" type="line"/>
      <point x="25" y="539" type="line"/>
      <point x="61" y="543"/>
      <point x="85" y="532"/>
      <point x="93" y="498" type="curve" smooth="yes"/>
      <point x="105" y="439"/>
      <point x="129" y="341"/>
      <point x="142" y="276" type="curve"/>
      <point x="142" y="274"/>
      <point x="142" y="271"/>
      <point x="143" y="269" type="curve"/>
      <point x="88" y="139"/>
      <point x="-112" y="-193"/>
      <point x="-237" y="-193" type="curve" smooth="yes"/>
      <point x="-270" y="-193"/>
      <point x="-285" y="-174"/>
      <point x="-284" y="-150" type="curve" smooth="yes"/>
      <point x="-282" y="-127"/>
      <point x="-264" y="-100"/>
      <point x="-235" y="-100" type="curve" smooth="yes"/>
      <point x="-224" y="-100"/>
      <point x="-215" y="-103"/>
      <point x="-207" y="-112" type="curve"/>
      <point x="-205" y="-97"/>
      <point x="-212" y="-53"/>
      <point x="-258" y="-53" type="curve" smooth="yes"/>
      <point x="-298" y="-53"/>
      <point x="-338" y="-88"/>
      <point x="-342" y="-137" type="curve" smooth="yes"/>
      <point x="-344" y="-182"/>
      <point x="-303" y="-212"/>
      <point x="-265" y="-212" type="curve" smooth="yes"/>
      <point x="-107" y="-212"/>
      <point x="90" y="139"/>
      <point x="144" y="262" type="curve"/>
      <point x="159" y="188"/>
      <point x="188" y="55"/>
      <point x="197" y="-7" type="curve"/>
      <point x="350" y="15" type="line"/>
      <point x="350" y="18" type="line"/>
      <point x="313" y="14"/>
      <point x="275" y="16"/>
      <point x="262" y="74" type="curve" smooth="yes"/>
      <point x="249" y="133"/>
      <point x="221" y="258"/>
      <point x="208" y="323" type="curve" smooth="yes"/>
      <point x="207" y="329"/>
      <point x="206" y="335"/>
      <point x="204" y="341" type="curve"/>
      <point x="243" y="442"/>
      <point x="315" y="560"/>
      <point x="386" y="560" type="curve" smooth="yes"/>
      <point x="416" y="560"/>
      <point x="429" y="540"/>
      <point x="428" y="517" type="curve" smooth="yes"/>
      <point x="427" y="495"/>
      <point x="408" y="471"/>
      <point x="381" y="471" type="curve" smooth="yes"/>
      <point x="371" y="471"/>
      <point x="362" y="474"/>
      <point x="355" y="482" type="curve"/>
      <point x="353" y="468"/>
      <point x="359" y="427"/>
      <point x="401" y="427" type="curve" smooth="yes"/>
      <point x="440" y="427"/>
      <point x="479" y="460"/>
    </contour>
  </outline>
</glyph>
<glyph name="braceleft" format="2">
  <advance width="374"/>
  <unicode hex="007B"/>
  <outline>
    <contour>
      <point x="83" y="367" type="line"/>
      <point x="112" y="367"/>
      <point x="130" y="345"/>
      <point x="130" y="324" type="curve"/>
      <point x="128" y="265"/>
      <point x="86" y="157"/>
      <point x="80" y="86" type="curve" smooth="yes"/>
      <point x="68" y="-52"/>
      <point x="99" y="-133"/>
      <point x="191" y="-181" type="curve"/>
      <point x="192" y="-175" type="line"/>
      <point x="143" y="-147"/>
      <point x="126" y="-85"/>
      <point x="126" y="-25" type="curve" smooth="yes"/>
      <point x="126" y="66"/>
      <point x="176" y="183"/>
      <point x="176" y="253" type="curve" smooth="yes"/>
      <point x="176" y="320"/>
      <point x="144" y="352"/>
      <point x="116" y="366" type="curve"/>
      <point x="116" y="370" type="line"/>
      <point x="136" y="376"/>
      <point x="194" y="395"/>
      <point x="222" y="438" type="curve" smooth="yes"/>
      <point x="271" y="506"/>
      <point x="286" y="611"/>
      <point x="322" y="684" type="curve" smooth="yes"/>
      <point x="365" y="771"/>
      <point x="448" y="863"/>
      <point x="549" y="863" type="curve"/>
      <point x="549" y="867" type="line"/>
      <point x="473" y="868"/>
      <point x="366" y="815"/>
      <point x="276" y="698" type="curve" smooth="yes"/>
      <point x="211" y="613"/>
      <point x="209" y="452"/>
      <point x="142" y="392" type="curve" smooth="yes"/>
      <point x="126" y="377"/>
      <point x="100" y="371"/>
      <point x="83" y="371" type="curve"/>
    </contour>
  </outline>
</glyph>
<glyph name="braceright" format="2">
  <advance width="466"/>
  <unicode hex="007D"/>
  <outline>
    <contour>
      <point x="411" y="356" type="line"/>
      <point x="382" y="356"/>
      <point x="364" y="378"/>
      <point x="364" y="399" type="curve" smooth="yes"/>
      <point x="366" y="458"/>
      <point x="398" y="530"/>
      <point x="404" y="601" type="curve" smooth="yes"/>
      <point x="416" y="739"/>
      <point x="385" y="820"/>
      <point x="293" y="868" type="curve"/>
      <point x="292" y="862" type="line"/>
      <point x="341" y="834"/>
      <point x="358" y="772"/>
      <point x="358" y="712" type="curve" smooth="yes"/>
      <point x="358" y="621"/>
      <point x="318" y="540"/>
      <point x="318" y="470" type="curve" smooth="yes"/>
      <point x="318" y="403"/>
      <point x="350" y="371"/>
      <point x="378" y="357" type="curve"/>
      <point x="378" y="353" type="line"/>
      <point x="358" y="347"/>
      <point x="300" y="328"/>
      <point x="272" y="285" type="curve" smooth="yes"/>
      <point x="223" y="217"/>
      <point x="198" y="76"/>
      <point x="162" y="3" type="curve" smooth="yes"/>
      <point x="119" y="-84"/>
      <point x="36" y="-176"/>
      <point x="-65" y="-176" type="curve"/>
      <point x="-65" y="-180" type="line"/>
      <point x="11" y="-181"/>
      <point x="118" y="-128"/>
      <point x="208" y="-11" type="curve" smooth="yes"/>
      <point x="273" y="74"/>
      <point x="285" y="271"/>
      <point x="352" y="331" type="curve" smooth="yes"/>
      <point x="368" y="346"/>
      <point x="394" y="352"/>
      <point x="411" y="352" type="curve"/>
    </contour>
  </outline>
</glyph>
<glyph name="exclamdown" format="2">
  <advance width="242"/>
  <unicode hex="00A1"/>
  <outline>
    <contour>
      <point x="253" y="515" type="curve" smooth="yes"/>
      <point x="259" y="550"/>
      <point x="235" y="577"/>
      <point x="200" y="577" type="curve" smooth="yes"/>
      <point x="166" y="577"/>
      <point x="135" y="550"/>
      <point x="129" y="515" type="curve" smooth="yes"/>
      <point x="124" y="480"/>
      <point x="148" y="453"/>
      <point x="183" y="453" type="curve" smooth="yes"/>
      <point x="217" y="453"/>
      <point x="248" y="480"/>
    </contour>
    <contour>
      <point x="162" y="399" type="line"/>
      <point x="84" y="66"/>
      <point x="-43" y="-154"/>
      <point x="-43" y="-214" type="curve" smooth="yes"/>
      <point x="-41" y="-287"/>
      <point x="51" y="-286"/>
      <point x="74" y="-206" type="curve" smooth="yes"/>
      <point x="94" y="-138"/>
      <point x="92" y="79"/>
      <point x="166" y="399" type="curve"/>
    </contour>
  </outline>
</glyph>
<glyph name="sterling" format="2">
  <advance width="943"/>
  <unicode hex="00A3"/>
  <outline>
    <contour>
      <point x="794" y="866" type="line" smooth="yes"/>
      <point x="827" y="866"/>
      <point x="859" y="850"/>
      <point x="859" y="813" type="curve" smooth="yes"/>
      <point x="859" y="787"/>
      <point x="844" y="762"/>
      <point x="822" y="762" type="curve" smooth="yes"/>
      <point x="812" y="762"/>
      <point x="805" y="768"/>
      <point x="803" y="778" type="curve"/>
      <point x="800" y="773"/>
      <point x="800" y="766"/>
      <point x="800" y="761" type="curve" smooth="yes"/>
      <point x="800" y="739"/>
      <point x="820" y="718"/>
      <point x="852" y="718" type="curve" smooth="yes"/>
      <point x="883" y="718"/>
      <point x="910" y="749"/>
      <point x="910" y="783" type="curve" smooth="yes"/>
      <point x="910" y="832"/>
      <point x="858" y="869"/>
      <point x="795" y="870" type="curve" smooth="yes"/>
      <point x="793" y="870" type="line" smooth="yes"/>
      <point x="662" y="870"/>
      <point x="553" y="740"/>
      <point x="520" y="605" type="curve" smooth="yes"/>
      <point x="502" y="532" type="line"/>
      <point x="369" y="532" type="line"/>
      <point x="369" y="527" type="line"/>
      <point x="501" y="527" type="line"/>
      <point x="500" y="523" type="line" smooth="yes"/>
      <point x="476" y="424"/>
      <point x="434" y="310"/>
      <point x="364" y="239" type="curve"/>
      <point x="307" y="280"/>
      <point x="250" y="291"/>
      <point x="199" y="291" type="curve" smooth="yes"/>
      <point x="102" y="291"/>
      <point x="81" y="257"/>
      <point x="85" y="226" type="curve" smooth="yes"/>
      <point x="90" y="189"/>
      <point x="157" y="164"/>
      <point x="231" y="164" type="curve" smooth="yes"/>
      <point x="288" y="164"/>
      <point x="339" y="181"/>
      <point x="384" y="211" type="curve"/>
      <point x="483" y="127"/>
      <point x="554" y="-3"/>
      <point x="694" y="-3" type="curve" smooth="yes"/>
      <point x="809" y="-3"/>
      <point x="941" y="83"/>
      <point x="941" y="189" type="curve" smooth="yes"/>
      <point x="941" y="230"/>
      <point x="909" y="262"/>
      <point x="872" y="262" type="curve" smooth="yes"/>
      <point x="832" y="262"/>
      <point x="816" y="230"/>
      <point x="816" y="204" type="curve" smooth="yes"/>
      <point x="816" y="199"/>
      <point x="816" y="194"/>
      <point x="817" y="189" type="curve"/>
      <point x="823" y="207"/>
      <point x="840" y="216"/>
      <point x="856" y="216" type="curve" smooth="yes"/>
      <point x="885" y="216"/>
      <point x="903" y="190"/>
      <point x="903" y="156" type="curve" smooth="yes"/>
      <point x="903" y="81"/>
      <point x="857" y="46"/>
      <point x="786" y="46" type="curve" smooth="yes"/>
      <point x="690" y="46"/>
      <point x="505" y="135"/>
      <point x="393" y="217" type="curve"/>
      <point x="481" y="280"/>
      <point x="544" y="394"/>
      <point x="577" y="527" type="curve"/>
      <point x="690" y="527" type="line"/>
      <point x="690" y="532" type="line"/>
      <point x="578" y="532" type="line"/>
      <point x="578" y="532"/>
      <point x="579" y="533"/>
      <point x="579" y="534" type="curve"/>
      <point x="602" y="633" type="line" smooth="yes"/>
      <point x="640" y="793"/>
      <point x="704" y="866"/>
      <point x="793" y="866" type="curve" smooth="yes"/>
    </contour>
    <contour>
      <point x="210" y="172" type="curve" smooth="yes"/>
      <point x="152" y="172"/>
      <point x="125" y="199"/>
      <point x="120" y="226" type="curve" smooth="yes"/>
      <point x="116" y="251"/>
      <point x="138" y="286"/>
      <point x="208" y="286" type="curve" smooth="yes"/>
      <point x="263" y="286"/>
      <point x="315" y="263"/>
      <point x="357" y="233" type="curve"/>
      <point x="318" y="195"/>
      <point x="269" y="172"/>
    </contour>
  </outline>
</glyph>
<glyph name="brokenbar" format="2">
  <advance width="306"/>
  <unicode hex="00A6"/>
  <outline>
    <contour>
      <point x="220" y="426" type="line"/>
      <point x="318" y="858" type="line"/>
      <point x="303" y="858" type="line"/>
      <point x="205" y="426" type="line"/>
    </contour>
    <contour>
      <point x="162" y="236" type="line"/>
      <point x="70" y="-169" type="line"/>
      <point x="84" y="-169" type="line"/>
      <point x="177" y="236" type="line"/>
    </contour>
  </outline>
</glyph>
<glyph name="dieresis" format="2">
  <advance width="514"/>
  <unicode hex="00A8"/>
  <outline>
    <contour>
      <point x="260" y="789" type="curve"/>
      <point x="254" y="758"/>
      <point x="276" y="734"/>
      <point x="307" y="734" type="curve" smooth="yes"/>
      <point x="337" y="734"/>
      <point x="364" y="758"/>
      <point x="370" y="789" type="curve"/>
      <point x="374" y="820"/>
      <point x="353" y="844"/>
      <point x="322" y="844" type="curve" smooth="yes"/>
      <point x="292" y="844"/>
      <point x="264" y="820"/>
    </contour>
    <contour>
      <point x="428" y="789" type="curve" smooth="yes"/>
      <point x="423" y="758"/>
      <point x="444" y="734"/>
      <point x="475" y="734" type="curve" smooth="yes"/>
      <point x="505" y="734"/>
      <point x="533" y="758"/>
      <point x="538" y="789" type="curve" smooth="yes"/>
      <point x="543" y="820"/>
      <point x="521" y="844"/>
      <point x="490" y="844" type="curve" smooth="yes"/>
      <point x="460" y="844"/>
      <point x="433" y="820"/>
    </contour>
  </outline>
</glyph>
<glyph name="ordfeminine" format="2">
  <advance width="478"/>
  <unicode hex="00AA"/>
  <outline>
    <contour>
      <point x="438" y="751" type="line"/>
      <point x="471" y="881" type="line"/>
      <point x="417" y="881" type="line"/>
      <point x="407" y="840" type="line"/>
      <point x="398" y="875"/>
      <point x="372" y="889"/>
      <point x="338" y="889" type="curve" smooth="yes"/>
      <point x="262" y="889"/>
      <point x="185" y="809"/>
      <point x="161" y="709" type="curve" smooth="yes"/>
      <point x="137" y="609"/>
      <point x="171" y="528"/>
      <point x="254" y="528" type="curve" smooth="yes"/>
      <point x="289" y="528"/>
      <point x="325" y="560"/>
      <point x="353" y="620" type="curve"/>
      <point x="345" y="576"/>
      <point x="349" y="530"/>
      <point x="408" y="530" type="curve" smooth="yes"/>
      <point x="414" y="530"/>
      <point x="435" y="530"/>
      <point x="447" y="547" type="curve"/>
      <point x="445" y="548" type="line"/>
      <point x="437" y="536"/>
      <point x="428" y="535"/>
      <point x="422" y="535" type="curve" smooth="yes"/>
      <point x="388" y="535"/>
      <point x="400" y="582"/>
      <point x="418" y="663" type="curve" smooth="yes"/>
    </contour>
    <contour>
      <point x="386" y="751" type="line"/>
      <point x="363" y="663" type="line"/>
      <point x="359" y="649" type="line"/>
      <point x="332" y="573"/>
      <point x="295" y="535"/>
      <point x="258" y="535" type="curve" smooth="yes"/>
      <point x="213" y="535"/>
      <point x="193" y="593"/>
      <point x="223" y="709" type="curve" smooth="yes"/>
      <point x="252" y="825"/>
      <point x="296" y="887"/>
      <point x="341" y="887" type="curve" smooth="yes"/>
      <point x="367" y="887"/>
      <point x="390" y="874"/>
      <point x="399" y="842" type="curve" smooth="yes"/>
      <point x="405" y="821"/>
      <point x="396" y="799"/>
      <point x="388" y="760" type="curve" smooth="yes"/>
    </contour>
  </outline>
</glyph>
<glyph name="guillemotleft" format="2">
  <advance width="611"/>
  <unicode hex="00AB"/>
  <outline>
    <contour>
      <point x="304" y="308" type="line"/>
      <point x="457" y="80" type="line"/>
      <point x="465" y="85" type="line"/>
      <point x="397" y="309" type="line"/>
      <point x="574" y="490" type="line"/>
      <point x="572" y="495" type="line"/>
    </contour>
    <contour>
      <point x="132" y="308" type="line"/>
      <point x="285" y="80" type="line"/>
      <point x="293" y="85" type="line"/>
      <point x="225" y="309" type="line"/>
      <point x="402" y="490" type="line"/>
      <point x="400" y="495" type="line"/>
    </contour>
  </outline>
</glyph>
<glyph name="uni00AD" format="2">
  <advance width="490"/>
  <unicode hex="00AD"/>
  <outline>
    <contour>
      <point x="148" y="339" type="line"/>
      <point x="469" y="339" type="line"/>
      <point x="469" y="344" type="line"/>
      <point x="148" y="344" type="line"/>
    </contour>
  </outline>
</glyph>
<glyph name="macron" format="2">
  <advance width="443"/>
  <unicode hex="00AF"/>
  <outline>
    <contour>
      <point x="252" y="727" type="line"/>
      <point x="548" y="727" type="line"/>
      <point x="548" y="734" type="line"/>
      <point x="252" y="734" type="line"/>
    </contour>
  </outline>
</glyph>
<glyph name="degree" format="2">
  <advance width="501"/>
  <unicode hex="00B0"/>
  <outline>
    <contour>
      <point x="329" y="750" type="curve" smooth="yes"/>
      <point x="329" y="719"/>
      <point x="359" y="698"/>
      <point x="406" y="696" type="curve" smooth="yes"/>
      <point x="455" y="694"/>
      <point x="514" y="731"/>
      <point x="514" y="772" type="curve" smooth="yes"/>
      <point x="514" y="803"/>
      <point x="481" y="827"/>
      <point x="436" y="827" type="curve" smooth="yes"/>
      <point x="391" y="827"/>
      <point x="329" y="796"/>
    </contour>
    <contour>
      <point x="436" y="823" type="curve" smooth="yes"/>
      <point x="459" y="823"/>
      <point x="473" y="804"/>
      <point x="473" y="776" type="curve" smooth="yes"/>
      <point x="473" y="734"/>
      <point x="440" y="699"/>
      <point x="406" y="700" type="curve" smooth="yes"/>
      <point x="384" y="701"/>
      <point x="369" y="718"/>
      <point x="369" y="745" type="curve" smooth="yes"/>
      <point x="369" y="784"/>
      <point x="400" y="823"/>
    </contour>
  </outline>
</glyph>
<glyph name="threesuperior" format="2">
  <advance width="516"/>
  <unicode hex="00B3"/>
  <outline>
    <contour>
      <point x="313" y="662" type="line"/>
      <point x="319" y="663"/>
      <point x="324" y="663"/>
      <point x="330" y="663" type="curve" smooth="yes"/>
      <point x="387" y="663"/>
      <point x="413" y="616"/>
      <point x="413" y="561" type="curve" smooth="yes"/>
      <point x="413" y="466"/>
      <point x="348" y="380"/>
      <point x="249" y="382" type="curve" smooth="yes"/>
      <point x="196" y="383"/>
      <point x="154" y="410"/>
      <point x="154" y="453" type="curve" smooth="yes"/>
      <point x="154" y="485"/>
      <point x="175" y="504"/>
      <point x="193" y="504" type="curve" smooth="yes"/>
      <point x="208" y="504"/>
      <point x="213" y="498"/>
      <point x="215" y="485" type="curve"/>
      <point x="216" y="485"/>
      <point x="221" y="502"/>
      <point x="221" y="510" type="curve" smooth="yes"/>
      <point x="221" y="526"/>
      <point x="205" y="550"/>
      <point x="174" y="550" type="curve" smooth="yes"/>
      <point x="138" y="550"/>
      <point x="108" y="517"/>
      <point x="108" y="477" type="curve" smooth="yes"/>
      <point x="108" y="422"/>
      <point x="166" y="381"/>
      <point x="237" y="378" type="curve" smooth="yes"/>
      <point x="366" y="373"/>
      <point x="481" y="447"/>
      <point x="481" y="557" type="curve" smooth="yes"/>
      <point x="481" y="649"/>
      <point x="390" y="664"/>
      <point x="348" y="667" type="curve"/>
      <point x="452" y="691"/>
      <point x="512" y="743"/>
      <point x="512" y="799" type="curve" smooth="yes"/>
      <point x="512" y="851"/>
      <point x="456" y="894"/>
      <point x="372" y="894" type="curve" smooth="yes"/>
      <point x="278" y="894"/>
      <point x="216" y="830"/>
      <point x="216" y="780" type="curve" smooth="yes"/>
      <point x="216" y="756"/>
      <point x="233" y="731"/>
      <point x="264" y="731" type="curve" smooth="yes"/>
      <point x="303" y="731"/>
      <point x="325" y="764"/>
      <point x="325" y="798" type="curve"/>
      <point x="319" y="786"/>
      <point x="309" y="781"/>
      <point x="298" y="781" type="curve" smooth="yes"/>
      <point x="279" y="781"/>
      <point x="263" y="797"/>
      <point x="263" y="819" type="curve" smooth="yes"/>
      <point x="263" y="844"/>
      <point x="289" y="888"/>
      <point x="354" y="888" type="curve" smooth="yes"/>
      <point x="423" y="888"/>
      <point x="442" y="840"/>
      <point x="442" y="802" type="curve" smooth="yes"/>
      <point x="442" y="712"/>
      <point x="354" y="667"/>
      <point x="340" y="667" type="curve" smooth="yes"/>
      <point x="339" y="667" type="line" smooth="yes"/>
      <point x="330" y="667"/>
      <point x="321" y="666"/>
      <point x="312" y="664" type="curve"/>
    </contour>
  </outline>
</glyph>
<glyph name="acute" format="2">
  <advance width="418"/>
  <unicode hex="00B4"/>
  <outline>
    <contour>
      <point x="297" y="676" type="line"/>
      <point x="486" y="792" type="line" smooth="yes"/>
      <point x="546" y="828"/>
      <point x="485" y="910"/>
      <point x="433" y="848" type="curve" smooth="yes"/>
      <point x="291" y="676" type="line"/>
    </contour>
  </outline>
</glyph>
<glyph name="cedilla" format="2">
  <advance width="383"/>
  <unicode hex="00B8"/>
  <outline>
    <contour>
      <point x="100" y="-174" type="line"/>
      <point x="113" y="-202"/>
      <point x="136" y="-209"/>
      <point x="155" y="-209" type="curve" smooth="yes"/>
      <point x="212" y="-209"/>
      <point x="265" y="-173"/>
      <point x="265" y="-113" type="curve" smooth="yes"/>
      <point x="265" y="-58"/>
      <point x="199" y="-31"/>
      <point x="199" y="-12" type="curve" smooth="yes"/>
      <point x="199" y="-9"/>
      <point x="199" y="-8"/>
      <point x="200" y="-6" type="curve"/>
      <point x="196" y="-5" type="line"/>
      <point x="194" y="-6"/>
      <point x="194" y="-8"/>
      <point x="194" y="-12" type="curve" smooth="yes"/>
      <point x="194" y="-39"/>
      <point x="222" y="-50"/>
      <point x="222" y="-94" type="curve" smooth="yes"/>
      <point x="222" y="-154"/>
      <point x="190" y="-199"/>
      <point x="142" y="-199" type="curve" smooth="yes"/>
      <point x="130" y="-199"/>
      <point x="115" y="-192"/>
      <point x="103" y="-174" type="curve"/>
    </contour>
  </outline>
</glyph>
<glyph name="ordmasculine" format="2">
  <advance width="646"/>
  <unicode hex="00BA"/>
  <outline>
    <contour>
      <point x="184" y="579" type="curve" smooth="yes"/>
      <point x="170" y="457"/>
      <point x="243" y="380"/>
      <point x="358" y="380" type="curve" smooth="yes"/>
      <point x="503" y="380"/>
      <point x="653" y="539"/>
      <point x="668" y="690" type="curve" smooth="yes"/>
      <point x="680" y="805"/>
      <point x="608" y="891"/>
      <point x="496" y="891" type="curve" smooth="yes"/>
      <point x="355" y="891"/>
      <point x="199" y="742"/>
    </contour>
    <contour>
      <point x="496" y="887" type="curve" smooth="yes"/>
      <point x="563" y="887"/>
      <point x="591" y="805"/>
      <point x="581" y="696" type="curve" smooth="yes"/>
      <point x="563" y="530"/>
      <point x="459" y="384"/>
      <point x="352" y="384" type="curve" smooth="yes"/>
      <point x="286" y="384"/>
      <point x="261" y="465"/>
      <point x="272" y="576" type="curve" smooth="yes"/>
      <point x="286" y="713"/>
      <point x="387" y="887"/>
    </contour>
  </outline>
</glyph>
<glyph name="onequarter" format="2">
  <advance width="880"/>
  <unicode hex="00BC"/>
  <outline>
    <contour>
      <point x="737" y="425" type="line"/>
      <point x="666" y="125" type="line"/>
      <point x="526" y="125" type="line"/>
      <point x="616" y="198"/>
      <point x="699" y="338"/>
      <point x="699" y="445" type="curve" smooth="yes"/>
      <point x="699" y="511"/>
      <point x="658" y="566"/>
      <point x="606" y="566" type="curve" smooth="yes"/>
      <point x="576" y="566"/>
      <point x="544" y="546"/>
      <point x="544" y="510" type="curve" smooth="yes"/>
      <point x="544" y="473"/>
      <point x="571" y="455"/>
      <point x="605" y="455" type="curve"/>
      <point x="596" y="460"/>
      <point x="590" y="469"/>
      <point x="590" y="482" type="curve" smooth="yes"/>
      <point x="590" y="498"/>
      <point x="609" y="520"/>
      <point x="633" y="520" type="curve" smooth="yes"/>
      <point x="659" y="520"/>
      <point x="694" y="507"/>
      <point x="694" y="447" type="curve" smooth="yes"/>
      <point x="694" y="321"/>
      <point x="504" y="171"/>
      <point x="400" y="123" type="curve"/>
      <point x="400" y="120" type="line"/>
      <point x="665" y="120" type="line"/>
      <point x="645" y="35" type="line" smooth="yes"/>
      <point x="639" y="12"/>
      <point x="620" y="3"/>
      <point x="583" y="3" type="curve"/>
      <point x="583" y="-1" type="line"/>
      <point x="763" y="-1" type="line"/>
      <point x="764" y="3" type="line"/>
      <point x="717" y="3"/>
      <point x="709" y="12"/>
      <point x="715" y="35" type="curve" smooth="yes"/>
      <point x="735" y="120" type="line"/>
      <point x="763" y="120" type="line"/>
      <point x="763" y="125" type="line"/>
      <point x="736" y="125" type="line"/>
      <point x="813" y="448" type="line"/>
    </contour>
    <contour>
      <point x="151" y="689" type="line"/>
      <point x="198" y="707"/>
      <point x="238" y="732"/>
      <point x="272" y="761" type="curve"/>
      <point x="198" y="461" type="line" smooth="yes"/>
      <point x="186" y="410"/>
      <point x="147" y="392"/>
      <point x="79" y="392" type="curve"/>
      <point x="79" y="389" type="line"/>
      <point x="363" y="389" type="line"/>
      <point x="364" y="392" type="line"/>
      <point x="276" y="392"/>
      <point x="266" y="415"/>
      <point x="277" y="461" type="curve" smooth="yes"/>
      <point x="383" y="894" type="line"/>
      <point x="379" y="896" type="line"/>
      <point x="328" y="816"/>
      <point x="260" y="737"/>
      <point x="149" y="693" type="curve"/>
    </contour>
    <contour>
      <point x="190" y="-169" type="line"/>
      <point x="199" y="-169" type="line"/>
      <point x="645" y="858" type="line"/>
      <point x="635" y="858" type="line"/>
    </contour>
  </outline>
</glyph>
<glyph name="onehalf" format="2">
  <advance width="894"/>
  <unicode hex="00BD"/>
  <outline>
    <contour>
      <point x="806" y="137" type="line"/>
      <point x="784" y="85"/>
      <point x="771" y="81"/>
      <point x="744" y="81" type="curve" smooth="yes"/>
      <point x="537" y="81" type="line" smooth="yes"/>
      <point x="527" y="81"/>
      <point x="533" y="90"/>
      <point x="536" y="92" type="curve"/>
      <point x="662" y="233"/>
      <point x="858" y="284"/>
      <point x="858" y="401" type="curve" smooth="yes"/>
      <point x="858" y="472"/>
      <point x="790" y="503"/>
      <point x="717" y="503" type="curve" smooth="yes"/>
      <point x="621" y="502"/>
      <point x="556" y="439"/>
      <point x="556" y="389" type="curve" smooth="yes"/>
      <point x="556" y="359"/>
      <point x="580" y="334"/>
      <point x="607" y="334" type="curve" smooth="yes"/>
      <point x="653" y="334"/>
      <point x="675" y="372"/>
      <point x="674" y="411" type="curve"/>
      <point x="669" y="399"/>
      <point x="658" y="394"/>
      <point x="648" y="394" type="curve" smooth="yes"/>
      <point x="630" y="394"/>
      <point x="611" y="407"/>
      <point x="611" y="436" type="curve" smooth="yes"/>
      <point x="611" y="457"/>
      <point x="638" y="497"/>
      <point x="698" y="497" type="curve" smooth="yes"/>
      <point x="759" y="495"/>
      <point x="779" y="451"/>
      <point x="779" y="406" type="curve" smooth="yes"/>
      <point x="779" y="265"/>
      <point x="582" y="174"/>
      <point x="484" y="43" type="curve"/>
      <point x="470" y="-2" type="line"/>
      <point x="743" y="-2" type="line"/>
      <point x="810" y="137" type="line"/>
    </contour>
    <contour>
      <point x="151" y="689" type="line"/>
      <point x="198" y="707"/>
      <point x="238" y="732"/>
      <point x="272" y="761" type="curve"/>
      <point x="198" y="461" type="line" smooth="yes"/>
      <point x="186" y="410"/>
      <point x="147" y="392"/>
      <point x="79" y="392" type="curve"/>
      <point x="79" y="389" type="line"/>
      <point x="363" y="389" type="line"/>
      <point x="364" y="392" type="line"/>
      <point x="276" y="392"/>
      <point x="266" y="415"/>
      <point x="277" y="461" type="curve" smooth="yes"/>
      <point x="383" y="894" type="line"/>
      <point x="379" y="896" type="line"/>
      <point x="328" y="816"/>
      <point x="260" y="737"/>
      <point x="149" y="693" type="curve"/>
    </contour>
    <contour>
      <point x="190" y="-169" type="line"/>
      <point x="199" y="-169" type="line"/>
      <point x="645" y="858" type="line"/>
      <point x="635" y="858" type="line"/>
    </contour>
  </outline>
</glyph>
<glyph name="threequarters" format="2">
  <advance width="880"/>
  <unicode hex="00BE"/>
  <outline>
    <contour>
      <point x="400" y="120" type="line"/>
      <point x="665" y="120" type="line"/>
      <point x="645" y="35" type="line" smooth="yes"/>
      <point x="639" y="12"/>
      <point x="620" y="3"/>
      <point x="583" y="3" type="curve"/>
      <point x="583" y="-1" type="line"/>
      <point x="763" y="-1" type="line"/>
      <point x="764" y="3" type="line"/>
      <point x="717" y="3"/>
      <point x="709" y="12"/>
      <point x="715" y="35" type="curve" smooth="yes"/>
      <point x="735" y="120" type="line"/>
      <point x="763" y="120" type="line"/>
      <point x="763" y="125" type="line"/>
      <point x="736" y="125" type="line"/>
      <point x="813" y="448" type="line"/>
      <point x="737" y="425" type="line"/>
      <point x="666" y="125" type="line"/>
      <point x="526" y="125" type="line"/>
      <point x="616" y="198"/>
      <point x="699" y="338"/>
      <point x="699" y="445" type="curve" smooth="yes"/>
      <point x="699" y="511"/>
      <point x="658" y="566"/>
      <point x="606" y="566" type="curve" smooth="yes"/>
      <point x="576" y="566"/>
      <point x="544" y="546"/>
      <point x="544" y="510" type="curve" smooth="yes"/>
      <point x="544" y="473"/>
      <point x="571" y="455"/>
      <point x="605" y="455" type="curve"/>
      <point x="596" y="460"/>
      <point x="590" y="469"/>
      <point x="590" y="482" type="curve" smooth="yes"/>
      <point x="590" y="498"/>
      <point x="609" y="520"/>
      <point x="633" y="520" type="curve" smooth="yes"/>
      <point x="659" y="520"/>
      <point x="694" y="507"/>
      <point x="694" y="447" type="curve" smooth="yes"/>
      <point x="694" y="321"/>
      <point x="504" y="171"/>
      <point x="400" y="123" type="curve"/>
    </contour>
    <contour>
      <point x="253" y="662" type="line"/>
      <point x="259" y="663"/>
      <point x="264" y="663"/>
      <point x="270" y="663" type="curve" smooth="yes"/>
      <point x="327" y="663"/>
      <point x="353" y="616"/>
      <point x="353" y="561" type="curve" smooth="yes"/>
      <point x="353" y="466"/>
      <point x="288" y="380"/>
      <point x="189" y="382" type="curve" smooth="yes"/>
      <point x="136" y="383"/>
      <point x="94" y="410"/>
      <point x="94" y="453" type="curve" smooth="yes"/>
      <point x="94" y="485"/>
      <point x="115" y="504"/>
      <point x="133" y="504" type="curve" smooth="yes"/>
      <point x="148" y="504"/>
      <point x="153" y="498"/>
      <point x="155" y="485" type="curve"/>
      <point x="156" y="485"/>
      <point x="161" y="502"/>
      <point x="161" y="510" type="curve" smooth="yes"/>
      <point x="161" y="526"/>
      <point x="145" y="550"/>
      <point x="114" y="550" type="curve" smooth="yes"/>
      <point x="78" y="550"/>
      <point x="48" y="517"/>
      <point x="48" y="477" type="curve" smooth="yes"/>
      <point x="48" y="422"/>
      <point x="106" y="381"/>
      <point x="177" y="378" type="curve" smooth="yes"/>
      <point x="306" y="373"/>
      <point x="421" y="447"/>
      <point x="421" y="557" type="curve" smooth="yes"/>
      <point x="421" y="649"/>
      <point x="330" y="664"/>
      <point x="288" y="667" type="curve"/>
      <point x="392" y="691"/>
      <point x="452" y="743"/>
      <point x="452" y="799" type="curve" smooth="yes"/>
      <point x="452" y="851"/>
      <point x="396" y="894"/>
      <point x="312" y="894" type="curve" smooth="yes"/>
      <point x="218" y="894"/>
      <point x="156" y="830"/>
      <point x="156" y="780" type="curve" smooth="yes"/>
      <point x="156" y="756"/>
      <point x="173" y="731"/>
      <point x="204" y="731" type="curve" smooth="yes"/>
      <point x="243" y="731"/>
      <point x="265" y="764"/>
      <point x="265" y="798" type="curve"/>
      <point x="259" y="786"/>
      <point x="249" y="781"/>
      <point x="238" y="781" type="curve" smooth="yes"/>
      <point x="219" y="781"/>
      <point x="203" y="797"/>
      <point x="203" y="819" type="curve" smooth="yes"/>
      <point x="203" y="844"/>
      <point x="229" y="888"/>
      <point x="294" y="888" type="curve" smooth="yes"/>
      <point x="363" y="888"/>
      <point x="382" y="840"/>
      <point x="382" y="802" type="curve" smooth="yes"/>
      <point x="382" y="712"/>
      <point x="294" y="667"/>
      <point x="280" y="667" type="curve" smooth="yes"/>
      <point x="279" y="667" type="line" smooth="yes"/>
      <point x="270" y="667"/>
      <point x="261" y="666"/>
      <point x="252" y="664" type="curve"/>
    </contour>
    <contour>
      <point x="190" y="-169" type="line"/>
      <point x="199" y="-169" type="line"/>
      <point x="645" y="858" type="line"/>
      <point x="635" y="858" type="line"/>
    </contour>
  </outline>
</glyph>
<glyph name="questiondown" format="2">
  <advance width="591"/>
  <unicode hex="00BF"/>
  <outline>
    <contour>
      <point x="456" y="372" type="line"/>
      <point x="247" y="206"/>
      <point x="14" y="91"/>
      <point x="14" y="-84" type="curve" smooth="yes"/>
      <point x="14" y="-211"/>
      <point x="123" y="-266"/>
      <point x="239" y="-266" type="curve" smooth="yes"/>
      <point x="405" y="-265"/>
      <point x="513" y="-154"/>
      <point x="513" y="-67" type="curve" smooth="yes"/>
      <point x="513" y="-17"/>
      <point x="476" y="25"/>
      <point x="430" y="25" type="curve" smooth="yes"/>
      <point x="360" y="25"/>
      <point x="330" y="-27"/>
      <point x="332" y="-80" type="curve"/>
      <point x="343" y="-59"/>
      <point x="362" y="-50"/>
      <point x="378" y="-50" type="curve" smooth="yes"/>
      <point x="412" y="-50"/>
      <point x="444" y="-73"/>
      <point x="444" y="-125" type="curve" smooth="yes"/>
      <point x="444" y="-173"/>
      <point x="387" y="-255"/>
      <point x="271" y="-255" type="curve" smooth="yes"/>
      <point x="138" y="-253"/>
      <point x="103" y="-172"/>
      <point x="103" y="-92" type="curve" smooth="yes"/>
      <point x="103" y="87"/>
      <point x="287" y="225"/>
      <point x="461" y="372" type="curve"/>
    </contour>
    <contour>
      <point x="507" y="515" type="curve" smooth="yes"/>
      <point x="513" y="550"/>
      <point x="489" y="577"/>
      <point x="454" y="577" type="curve" smooth="yes"/>
      <point x="420" y="577"/>
      <point x="389" y="550"/>
      <point x="383" y="515" type="curve" smooth="yes"/>
      <point x="378" y="480"/>
      <point x="402" y="453"/>
      <point x="437" y="453" type="curve" smooth="yes"/>
      <point x="471" y="453"/>
      <point x="502" y="480"/>
    </contour>
  </outline>
</glyph>
<glyph name="Adieresis" format="2">
  <advance width="1201"/>
  <unicode hex="00C4"/>
  <outline>
    <contour>
      <point x="701" y="109" type="curve" smooth="yes"/>
      <point x="748" y="169"/>
      <point x="788" y="274"/>
      <point x="823" y="370" type="curve"/>
      <point x="829" y="383"/>
      <point x="838" y="388"/>
      <point x="852" y="388" type="curve" smooth="yes"/>
      <point x="1069" y="388" type="line" smooth="yes"/>
      <point x="1083" y="388"/>
      <point x="1088" y="382"/>
      <point x="1084" y="369" type="curve"/>
      <point x="1019" y="93" type="line" smooth="yes"/>
      <point x="1007" y="43"/>
      <point x="974" y="3"/>
      <point x="899" y="3" type="curve"/>
      <point x="899" y="-1" type="line"/>
      <point x="1185" y="-1" type="line"/>
      <point x="1186" y="3" type="line"/>
      <point x="1097" y="3"/>
      <point x="1091" y="59"/>
      <point x="1099" y="93" type="curve" smooth="yes"/>
      <point x="1281" y="863" type="line" smooth="yes"/>
      <point x="1284" y="875"/>
      <point x="1291" y="880"/>
      <point x="1302" y="879" type="curve"/>
      <point x="1305" y="879" type="line"/>
      <point x="1320" y="876" type="line"/>
      <point x="1320" y="880" type="line"/>
      <point x="1020" y="965"/>
      <point x="806" y="434"/>
      <point x="644" y="164" type="curve" smooth="yes"/>
      <point x="566" y="33"/>
      <point x="448" y="-71"/>
      <point x="287" y="-71" type="curve" smooth="yes"/>
      <point x="158" y="-71"/>
      <point x="51" y="30"/>
      <point x="42" y="154" type="curve" smooth="yes"/>
      <point x="31" y="301"/>
      <point x="131" y="452"/>
      <point x="306" y="452" type="curve" smooth="yes"/>
      <point x="392" y="452"/>
      <point x="476" y="406"/>
      <point x="476" y="324" type="curve" smooth="yes"/>
      <point x="476" y="273"/>
      <point x="445" y="224"/>
      <point x="402" y="224" type="curve" smooth="yes"/>
      <point x="384" y="224"/>
      <point x="367" y="235"/>
      <point x="365" y="255" type="curve"/>
      <point x="359" y="245"/>
      <point x="357" y="232"/>
      <point x="357" y="221" type="curve" smooth="yes"/>
      <point x="357" y="193"/>
      <point x="378" y="167"/>
      <point x="422" y="167" type="curve" smooth="yes"/>
      <point x="479" y="167"/>
      <point x="525" y="224"/>
      <point x="525" y="287" type="curve" smooth="yes"/>
      <point x="525" y="385"/>
      <point x="422" y="457"/>
      <point x="299" y="457" type="curve" smooth="yes"/>
      <point x="109" y="457"/>
      <point x="-17" y="320"/>
      <point x="-17" y="188" type="curve" smooth="yes"/>
      <point x="-17" y="46"/>
      <point x="87" y="-82"/>
      <point x="313" y="-82" type="curve" smooth="yes"/>
      <point x="470" y="-82"/>
      <point x="606" y="-12"/>
    </contour>
    <contour>
      <point x="1095" y="412" type="line"/>
      <point x="1091" y="399"/>
      <point x="1084" y="393"/>
      <point x="1070" y="393" type="curve" smooth="yes"/>
      <point x="854" y="393" type="line" smooth="yes"/>
      <point x="840" y="393"/>
      <point x="836" y="398"/>
      <point x="842" y="411" type="curve"/>
      <point x="866" y="473"/>
      <point x="900" y="557"/>
      <point x="941" y="632" type="curve" smooth="yes"/>
      <point x="1010" y="755"/>
      <point x="1099" y="853"/>
      <point x="1206" y="878" type="curve"/>
    </contour>
    <contour>
      <point x="1121" y="1121" type="curve"/>
      <point x="1115" y="1090"/>
      <point x="1137" y="1066"/>
      <point x="1168" y="1066" type="curve" smooth="yes"/>
      <point x="1198" y="1066"/>
      <point x="1225" y="1090"/>
      <point x="1231" y="1121" type="curve"/>
      <point x="1235" y="1152"/>
      <point x="1214" y="1176"/>
      <point x="1183" y="1176" type="curve" smooth="yes"/>
      <point x="1153" y="1176"/>
      <point x="1125" y="1152"/>
    </contour>
    <contour>
      <point x="1289" y="1121" type="curve" smooth="yes"/>
      <point x="1284" y="1090"/>
      <point x="1305" y="1066"/>
      <point x="1336" y="1066" type="curve" smooth="yes"/>
      <point x="1366" y="1066"/>
      <point x="1394" y="1090"/>
      <point x="1399" y="1121" type="curve" smooth="yes"/>
      <point x="1404" y="1152"/>
      <point x="1382" y="1176"/>
      <point x="1351" y="1176" type="curve" smooth="yes"/>
      <point x="1321" y="1176"/>
      <point x="1294" y="1152"/>
    </contour>
  </outline>
</glyph>
<glyph name="AE" format="2">
  <advance width="1579"/>
  <unicode hex="00C6"/>
  <outline>
    <contour>
      <point x="701" y="109" type="curve" smooth="yes"/>
      <point x="748" y="169"/>
      <point x="788" y="274"/>
      <point x="823" y="370" type="curve"/>
      <point x="829" y="383"/>
      <point x="838" y="388"/>
      <point x="852" y="388" type="curve" smooth="yes"/>
      <point x="1069" y="388" type="line" smooth="yes"/>
      <point x="1083" y="388"/>
      <point x="1088" y="382"/>
      <point x="1084" y="369" type="curve"/>
      <point x="1019" y="93" type="line" smooth="yes"/>
      <point x="1007" y="43"/>
      <point x="974" y="3"/>
      <point x="899" y="3" type="curve"/>
      <point x="899" y="-1" type="line"/>
      <point x="920" y="-1" type="line"/>
      <point x="920" y="-3" type="line"/>
      <point x="1218" y="-3"/>
      <point x="1088" y="-4"/>
      <point x="1487" y="-4" type="curve"/>
      <point x="1565" y="307" type="line"/>
      <point x="1560" y="307" type="line"/>
      <point x="1534" y="186"/>
      <point x="1441" y="3"/>
      <point x="1289" y="3" type="curve" smooth="yes"/>
      <point x="1228" y="3" type="line" smooth="yes"/>
      <point x="1191" y="3"/>
      <point x="1163" y="4"/>
      <point x="1143" y="8" type="curve"/>
      <point x="1095" y="23"/>
      <point x="1092" y="65"/>
      <point x="1099" y="93" type="curve" smooth="yes"/>
      <point x="1178" y="424" type="line"/>
      <point x="1182" y="437"/>
      <point x="1189" y="443"/>
      <point x="1203" y="443" type="curve" smooth="yes"/>
      <point x="1313" y="443" type="line" smooth="yes"/>
      <point x="1395" y="443"/>
      <point x="1401" y="357"/>
      <point x="1383" y="298" type="curve"/>
      <point x="1388" y="298" type="line"/>
      <point x="1466" y="592" type="line"/>
      <point x="1461" y="592" type="line"/>
      <point x="1448" y="532"/>
      <point x="1398" y="449"/>
      <point x="1313" y="449" type="curve" smooth="yes"/>
      <point x="1204" y="449" type="line" smooth="yes"/>
      <point x="1190" y="449"/>
      <point x="1185" y="455"/>
      <point x="1189" y="468" type="curve"/>
      <point x="1269" y="802" type="line" smooth="yes"/>
      <point x="1287" y="877"/>
      <point x="1315" y="879"/>
      <point x="1419" y="879" type="curve" smooth="yes"/>
      <point x="1469" y="879" type="line" smooth="yes"/>
      <point x="1573" y="879"/>
      <point x="1632" y="798"/>
      <point x="1601" y="677" type="curve"/>
      <point x="1606" y="677" type="line"/>
      <point x="1653" y="886" type="line"/>
      <point x="1440" y="886" type="line" smooth="yes"/>
      <point x="1400" y="886"/>
      <point x="1254" y="887"/>
      <point x="1214" y="886" type="curve"/>
      <point x="995" y="857"/>
      <point x="801" y="426"/>
      <point x="644" y="164" type="curve" smooth="yes"/>
      <point x="566" y="33"/>
      <point x="448" y="-71"/>
      <point x="287" y="-71" type="curve" smooth="yes"/>
      <point x="158" y="-71"/>
      <point x="51" y="30"/>
      <point x="42" y="154" type="curve" smooth="yes"/>
      <point x="31" y="301"/>
      <point x="131" y="452"/>
      <point x="306" y="452" type="curve" smooth="yes"/>
      <point x="392" y="452"/>
      <point x="476" y="406"/>
      <point x="476" y="324" type="curve" smooth="yes"/>
      <point x="476" y="273"/>
      <point x="445" y="224"/>
      <point x="402" y="224" type="curve" smooth="yes"/>
      <point x="384" y="224"/>
      <point x="367" y="235"/>
      <point x="365" y="255" type="curve"/>
      <point x="359" y="245"/>
      <point x="357" y="232"/>
      <point x="357" y="221" type="curve" smooth="yes"/>
      <point x="357" y="193"/>
      <point x="378" y="167"/>
      <point x="422" y="167" type="curve" smooth="yes"/>
      <point x="479" y="167"/>
      <point x="525" y="224"/>
      <point x="525" y="287" type="curve" smooth="yes"/>
      <point x="525" y="385"/>
      <point x="422" y="457"/>
      <point x="299" y="457" type="curve" smooth="yes"/>
      <point x="109" y="457"/>
      <point x="-17" y="320"/>
      <point x="-17" y="188" type="curve" smooth="yes"/>
      <point x="-17" y="46"/>
      <point x="87" y="-82"/>
      <point x="313" y="-82" type="curve" smooth="yes"/>
      <point x="470" y="-82"/>
      <point x="606" y="-12"/>
    </contour>
    <contour>
      <point x="1095" y="413" type="line"/>
      <point x="1091" y="400"/>
      <point x="1084" y="394"/>
      <point x="1070" y="394" type="curve" smooth="yes"/>
      <point x="854" y="394" type="line" smooth="yes"/>
      <point x="840" y="394"/>
      <point x="836" y="399"/>
      <point x="842" y="412" type="curve" smooth="yes"/>
      <point x="868" y="473"/>
      <point x="900" y="557"/>
      <point x="941" y="632" type="curve" smooth="yes"/>
      <point x="1010" y="755"/>
      <point x="1099" y="853"/>
      <point x="1206" y="878" type="curve"/>
    </contour>
  </outline>
</glyph>
<glyph name="Ccedilla" format="2">
  <advance width="815"/>
  <unicode hex="00C7"/>
  <outline>
    <contour>
      <point x="279" y="-286" type="line"/>
      <point x="292" y="-314"/>
      <point x="315" y="-321"/>
      <point x="334" y="-321" type="curve" smooth="yes"/>
      <point x="391" y="-321"/>
      <point x="444" y="-285"/>
      <point x="444" y="-225" type="curve" smooth="yes"/>
      <point x="444" y="-170"/>
      <point x="378" y="-143"/>
      <point x="378" y="-124" type="curve" smooth="yes"/>
      <point x="378" y="-119" type="line"/>
      <point x="389" y="-120"/>
      <point x="399" y="-121"/>
      <point x="410" y="-121" type="curve" smooth="yes"/>
      <point x="601" y="-121"/>
      <point x="797" y="49"/>
      <point x="797" y="237" type="curve" smooth="yes"/>
      <point x="797" y="352"/>
      <point x="712" y="464"/>
      <point x="567" y="464" type="curve" smooth="yes"/>
      <point x="437" y="464"/>
      <point x="315" y="372"/>
      <point x="310" y="263" type="curve" smooth="yes"/>
      <point x="307" y="208"/>
      <point x="334" y="165"/>
      <point x="385" y="165" type="curve" smooth="yes"/>
      <point x="431" y="165"/>
      <point x="455" y="200"/>
      <point x="456" y="233" type="curve"/>
      <point x="457" y="240"/>
      <point x="456" y="248"/>
      <point x="454" y="254" type="curve"/>
      <point x="448" y="233"/>
      <point x="431" y="222"/>
      <point x="412" y="222" type="curve" smooth="yes"/>
      <point x="379" y="222"/>
      <point x="362" y="258"/>
      <point x="364" y="301" type="curve" smooth="yes"/>
      <point x="369" y="397"/>
      <point x="463" y="459"/>
      <point x="559" y="459" type="curve" smooth="yes"/>
      <point x="688" y="459"/>
      <point x="761" y="357"/>
      <point x="761" y="242" type="curve" smooth="yes"/>
      <point x="761" y="105"/>
      <point x="652" y="-114"/>
      <point x="413" y="-116" type="curve" smooth="yes"/>
      <point x="214" y="-116"/>
      <point x="93" y="69"/>
      <point x="114" y="310" type="curve" smooth="yes"/>
      <point x="139" y="592"/>
      <point x="368" y="887"/>
      <point x="636" y="887" type="curve" smooth="yes"/>
      <point x="772" y="887"/>
      <point x="866" y="781"/>
      <point x="828" y="600" type="curve"/>
      <point x="834" y="600" type="line"/>
      <point x="897" y="878" type="line"/>
      <point x="895" y="878" type="line"/>
      <point x="891" y="862"/>
      <point x="878" y="846"/>
      <point x="848" y="848" type="curve" smooth="yes"/>
      <point x="819" y="850"/>
      <point x="732" y="891"/>
      <point x="637" y="891" type="curve" smooth="yes"/>
      <point x="347" y="891"/>
      <point x="59" y="614"/>
      <point x="32" y="310" type="curve" smooth="yes"/>
      <point x="12" y="79"/>
      <point x="154" y="-100"/>
      <point x="373" y="-119" type="curve"/>
      <point x="373" y="-124" type="line" smooth="yes"/>
      <point x="373" y="-151"/>
      <point x="401" y="-162"/>
      <point x="401" y="-206" type="curve" smooth="yes"/>
      <point x="401" y="-266"/>
      <point x="369" y="-311"/>
      <point x="321" y="-311" type="curve" smooth="yes"/>
      <point x="309" y="-311"/>
      <point x="294" y="-304"/>
      <point x="282" y="-286" type="curve"/>
    </contour>
  </outline>
</glyph>
<glyph name="Edieresis" format="2">
  <advance width="736"/>
  <unicode hex="00CB"/>
  <outline>
    <contour>
      <point x="644" y="890" type="curve" smooth="yes"/>
      <point x="733" y="890"/>
      <point x="818" y="841"/>
      <point x="818" y="754" type="curve" smooth="yes"/>
      <point x="818" y="701"/>
      <point x="787" y="649"/>
      <point x="743" y="649" type="curve" smooth="yes"/>
      <point x="724" y="649"/>
      <point x="708" y="661"/>
      <point x="705" y="682" type="curve"/>
      <point x="700" y="672"/>
      <point x="698" y="657"/>
      <point x="698" y="646" type="curve" smooth="yes"/>
      <point x="698" y="617"/>
      <point x="719" y="590"/>
      <point x="764" y="590" type="curve" smooth="yes"/>
      <point x="821" y="590"/>
      <point x="868" y="649"/>
      <point x="868" y="716" type="curve" smooth="yes"/>
      <point x="868" y="818"/>
      <point x="767" y="893"/>
      <point x="644" y="895" type="curve" smooth="yes"/>
      <point x="441" y="895"/>
      <point x="250" y="762"/>
      <point x="250" y="554" type="curve" smooth="yes"/>
      <point x="250" y="502"/>
      <point x="262" y="463"/>
      <point x="281" y="434" type="curve"/>
      <point x="153" y="365"/>
      <point x="46" y="237"/>
      <point x="46" y="117" type="curve" smooth="yes"/>
      <point x="46" y="-47"/>
      <point x="197" y="-125"/>
      <point x="321" y="-125" type="curve" smooth="yes"/>
      <point x="510" y="-125"/>
      <point x="665" y="3"/>
      <point x="733" y="150" type="curve"/>
      <point x="724" y="154" type="line"/>
      <point x="694" y="58"/>
      <point x="545" y="-76"/>
      <point x="371" y="-76" type="curve" smooth="yes"/>
      <point x="247" y="-76"/>
      <point x="133" y="-4"/>
      <point x="133" y="153" type="curve" smooth="yes"/>
      <point x="133" y="255"/>
      <point x="202" y="356"/>
      <point x="292" y="418" type="curve"/>
      <point x="343" y="357"/>
      <point x="426" y="349"/>
      <point x="460" y="349" type="curve" smooth="yes"/>
      <point x="529" y="349"/>
      <point x="599" y="387"/>
      <point x="599" y="428" type="curve" smooth="yes"/>
      <point x="599" y="457"/>
      <point x="563" y="488"/>
      <point x="469" y="488" type="curve" smooth="yes"/>
      <point x="426" y="488"/>
      <point x="381" y="478"/>
      <point x="337" y="461" type="curve"/>
      <point x="327" y="487"/>
      <point x="323" y="516"/>
      <point x="323" y="547" type="curve" smooth="yes"/>
      <point x="323" y="728"/>
      <point x="452" y="890"/>
    </contour>
    <contour>
      <point x="473" y="482" type="curve" smooth="yes"/>
      <point x="549" y="482"/>
      <point x="575" y="445"/>
      <point x="575" y="422" type="curve" smooth="yes"/>
      <point x="575" y="390"/>
      <point x="538" y="359"/>
      <point x="476" y="359" type="curve" smooth="yes"/>
      <point x="413" y="359"/>
      <point x="367" y="395"/>
      <point x="343" y="448" type="curve"/>
      <point x="385" y="469"/>
      <point x="430" y="482"/>
    </contour>
    <contour>
      <point x="606" y="1121" type="curve"/>
      <point x="600" y="1090"/>
      <point x="622" y="1066"/>
      <point x="653" y="1066" type="curve" smooth="yes"/>
      <point x="683" y="1066"/>
      <point x="710" y="1090"/>
      <point x="716" y="1121" type="curve"/>
      <point x="720" y="1152"/>
      <point x="699" y="1176"/>
      <point x="668" y="1176" type="curve" smooth="yes"/>
      <point x="638" y="1176"/>
      <point x="610" y="1152"/>
    </contour>
    <contour>
      <point x="774" y="1121" type="curve" smooth="yes"/>
      <point x="769" y="1090"/>
      <point x="790" y="1066"/>
      <point x="821" y="1066" type="curve" smooth="yes"/>
      <point x="851" y="1066"/>
      <point x="879" y="1090"/>
      <point x="884" y="1121" type="curve" smooth="yes"/>
      <point x="889" y="1152"/>
      <point x="867" y="1176"/>
      <point x="836" y="1176" type="curve" smooth="yes"/>
      <point x="806" y="1176"/>
      <point x="779" y="1152"/>
    </contour>
  </outline>
</glyph>
<glyph name="Ograve" format="2">
  <advance width="872"/>
  <unicode hex="00D2"/>
  <outline>
    <contour>
      <point x="-25" y="319" type="curve" smooth="yes"/>
      <point x="-25" y="94"/>
      <point x="124" y="-45"/>
      <point x="348" y="-45" type="curve" smooth="yes"/>
      <point x="635" y="-45"/>
      <point x="896" y="245"/>
      <point x="896" y="525" type="curve" smooth="yes"/>
      <point x="896" y="736"/>
      <point x="746" y="894"/>
      <point x="529" y="894" type="curve" smooth="yes"/>
      <point x="249" y="894"/>
      <point x="-25" y="620"/>
    </contour>
    <contour>
      <point x="529" y="890" type="curve" smooth="yes"/>
      <point x="702" y="890"/>
      <point x="811" y="739"/>
      <point x="811" y="536" type="curve" smooth="yes"/>
      <point x="811" y="230"/>
      <point x="565" y="-41"/>
      <point x="334" y="-41" type="curve" smooth="yes"/>
      <point x="165" y="-41"/>
      <point x="59" y="109"/>
      <point x="59" y="314" type="curve" smooth="yes"/>
      <point x="59" y="567"/>
      <point x="264" y="890"/>
    </contour>
    <contour>
      <point x="687" y="1008" type="line"/>
      <point x="545" y="1180" type="line" smooth="yes"/>
      <point x="493" y="1242"/>
      <point x="432" y="1160"/>
      <point x="492" y="1124" type="curve" smooth="yes"/>
      <point x="681" y="1008" type="line"/>
    </contour>
  </outline>
</glyph>
<glyph name="Oacute" format="2">
  <advance width="984"/>
  <unicode hex="00D3"/>
  <outline>
    <contour>
      <point x="87" y="319" type="curve" smooth="yes"/>
      <point x="87" y="94"/>
      <point x="236" y="-45"/>
      <point x="460" y="-45" type="curve" smooth="yes"/>
      <point x="747" y="-45"/>
      <point x="1008" y="245"/>
      <point x="1008" y="525" type="curve" smooth="yes"/>
      <point x="1008" y="736"/>
      <point x="858" y="894"/>
      <point x="641" y="894" type="curve" smooth="yes"/>
      <point x="361" y="894"/>
      <point x="87" y="620"/>
    </contour>
    <contour>
      <point x="641" y="890" type="curve" smooth="yes"/>
      <point x="814" y="890"/>
      <point x="923" y="739"/>
      <point x="923" y="536" type="curve" smooth="yes"/>
      <point x="923" y="230"/>
      <point x="677" y="-41"/>
      <point x="446" y="-41" type="curve" smooth="yes"/>
      <point x="277" y="-41"/>
      <point x="171" y="109"/>
      <point x="171" y="314" type="curve" smooth="yes"/>
      <point x="171" y="567"/>
      <point x="376" y="890"/>
    </contour>
    <contour>
      <point x="624" y="1008" type="line"/>
      <point x="813" y="1124" type="line" smooth="yes"/>
      <point x="873" y="1160"/>
      <point x="812" y="1242"/>
      <point x="760" y="1180" type="curve" smooth="yes"/>
      <point x="618" y="1008" type="line"/>
    </contour>
  </outline>
</glyph>
<glyph name="Ocircumflex" format="2">
  <advance width="984"/>
  <unicode hex="00D4"/>
  <outline>
    <contour>
      <point x="87" y="319" type="curve" smooth="yes"/>
      <point x="87" y="94"/>
      <point x="236" y="-45"/>
      <point x="460" y="-45" type="curve" smooth="yes"/>
      <point x="747" y="-45"/>
      <point x="1008" y="245"/>
      <point x="1008" y="525" type="curve" smooth="yes"/>
      <point x="1008" y="736"/>
      <point x="858" y="894"/>
      <point x="641" y="894" type="curve" smooth="yes"/>
      <point x="361" y="894"/>
      <point x="87" y="620"/>
    </contour>
    <contour>
      <point x="641" y="890" type="curve" smooth="yes"/>
      <point x="814" y="890"/>
      <point x="923" y="739"/>
      <point x="923" y="536" type="curve" smooth="yes"/>
      <point x="923" y="230"/>
      <point x="677" y="-41"/>
      <point x="446" y="-41" type="curve" smooth="yes"/>
      <point x="277" y="-41"/>
      <point x="171" y="109"/>
      <point x="171" y="314" type="curve" smooth="yes"/>
      <point x="171" y="567"/>
      <point x="376" y="890"/>
    </contour>
    <contour>
      <point x="756" y="1182" type="line" smooth="yes"/>
      <point x="747" y="1197"/>
      <point x="737" y="1192"/>
      <point x="727" y="1185" type="curve"/>
      <point x="551" y="1031" type="line"/>
      <point x="549" y="1023"/>
      <point x="551" y="1024"/>
      <point x="553" y="1024" type="curve"/>
      <point x="704" y="1108" type="line" smooth="yes"/>
      <point x="712" y="1112"/>
      <point x="719" y="1114"/>
      <point x="723" y="1114" type="curve" smooth="yes"/>
      <point x="729" y="1114"/>
      <point x="734" y="1113"/>
      <point x="740" y="1108" type="curve"/>
      <point x="836" y="1019" type="line"/>
      <point x="844" y="1014"/>
      <point x="846" y="1016"/>
      <point x="842" y="1024" type="curve" smooth="yes"/>
    </contour>
  </outline>
</glyph>
<glyph name="Otilde" format="2">
  <advance width="872"/>
  <unicode hex="00D5"/>
  <outline>
    <contour>
      <point x="-25" y="319" type="curve" smooth="yes"/>
      <point x="-25" y="94"/>
      <point x="124" y="-45"/>
      <point x="348" y="-45" type="curve" smooth="yes"/>
      <point x="635" y="-45"/>
      <point x="896" y="245"/>
      <point x="896" y="525" type="curve" smooth="yes"/>
      <point x="896" y="736"/>
      <point x="746" y="894"/>
      <point x="529" y="894" type="curve" smooth="yes"/>
      <point x="249" y="894"/>
      <point x="-25" y="620"/>
    </contour>
    <contour>
      <point x="529" y="890" type="curve" smooth="yes"/>
      <point x="702" y="890"/>
      <point x="811" y="739"/>
      <point x="811" y="536" type="curve" smooth="yes"/>
      <point x="811" y="230"/>
      <point x="565" y="-41"/>
      <point x="334" y="-41" type="curve" smooth="yes"/>
      <point x="165" y="-41"/>
      <point x="59" y="109"/>
      <point x="59" y="314" type="curve" smooth="yes"/>
      <point x="59" y="567"/>
      <point x="264" y="890"/>
    </contour>
    <contour>
      <point x="433" y="1033" type="line"/>
      <point x="453" y="1058"/>
      <point x="484" y="1074"/>
      <point x="513" y="1074" type="curve" smooth="yes"/>
      <point x="566" y="1074"/>
      <point x="607" y="1025"/>
      <point x="652" y="1025" type="curve" smooth="yes"/>
      <point x="708" y="1025"/>
      <point x="763" y="1059"/>
      <point x="791" y="1091" type="curve"/>
      <point x="788" y="1094" type="line"/>
      <point x="775" y="1076"/>
      <point x="754" y="1060"/>
      <point x="725" y="1060" type="curve" smooth="yes"/>
      <point x="671" y="1060"/>
      <point x="631" y="1113"/>
      <point x="573" y="1113" type="curve" smooth="yes"/>
      <point x="522" y="1113"/>
      <point x="463" y="1075"/>
      <point x="431" y="1037" type="curve"/>
    </contour>
  </outline>
</glyph>
<glyph name="Odieresis" format="2">
  <advance width="984"/>
  <unicode hex="00D6"/>
  <outline>
    <contour>
      <point x="87" y="319" type="curve" smooth="yes"/>
      <point x="87" y="94"/>
      <point x="236" y="-45"/>
      <point x="460" y="-45" type="curve" smooth="yes"/>
      <point x="747" y="-45"/>
      <point x="1008" y="245"/>
      <point x="1008" y="525" type="curve" smooth="yes"/>
      <point x="1008" y="736"/>
      <point x="858" y="894"/>
      <point x="641" y="894" type="curve" smooth="yes"/>
      <point x="361" y="894"/>
      <point x="87" y="620"/>
    </contour>
    <contour>
      <point x="641" y="890" type="curve" smooth="yes"/>
      <point x="814" y="890"/>
      <point x="923" y="739"/>
      <point x="923" y="536" type="curve" smooth="yes"/>
      <point x="923" y="230"/>
      <point x="677" y="-41"/>
      <point x="446" y="-41" type="curve" smooth="yes"/>
      <point x="277" y="-41"/>
      <point x="171" y="109"/>
      <point x="171" y="314" type="curve" smooth="yes"/>
      <point x="171" y="567"/>
      <point x="376" y="890"/>
    </contour>
    <contour>
      <point x="601" y="1121" type="curve"/>
      <point x="595" y="1090"/>
      <point x="617" y="1066"/>
      <point x="648" y="1066" type="curve" smooth="yes"/>
      <point x="678" y="1066"/>
      <point x="705" y="1090"/>
      <point x="711" y="1121" type="curve"/>
      <point x="715" y="1152"/>
      <point x="694" y="1176"/>
      <point x="663" y="1176" type="curve" smooth="yes"/>
      <point x="633" y="1176"/>
      <point x="605" y="1152"/>
    </contour>
    <contour>
      <point x="769" y="1121" type="curve" smooth="yes"/>
      <point x="764" y="1090"/>
      <point x="785" y="1066"/>
      <point x="816" y="1066" type="curve" smooth="yes"/>
      <point x="846" y="1066"/>
      <point x="874" y="1090"/>
      <point x="879" y="1121" type="curve" smooth="yes"/>
      <point x="884" y="1152"/>
      <point x="862" y="1176"/>
      <point x="831" y="1176" type="curve" smooth="yes"/>
      <point x="801" y="1176"/>
      <point x="774" y="1152"/>
    </contour>
  </outline>
</glyph>
<glyph name="Oslash" format="2">
  <advance width="984"/>
  <unicode hex="00D8"/>
  <outline>
    <contour>
      <point x="87" y="319" type="curve" smooth="yes"/>
      <point x="87" y="156"/>
      <point x="165" y="38"/>
      <point x="294" y="-14" type="curve"/>
      <point x="225" y="-137" type="line"/>
      <point x="229" y="-137" type="line"/>
      <point x="297" y="-16" type="line"/>
      <point x="345" y="-35"/>
      <point x="400" y="-45"/>
      <point x="460" y="-45" type="curve" smooth="yes"/>
      <point x="747" y="-45"/>
      <point x="1008" y="245"/>
      <point x="1008" y="525" type="curve" smooth="yes"/>
      <point x="1008" y="681"/>
      <point x="925" y="809"/>
      <point x="794" y="864" type="curve"/>
      <point x="851" y="966" type="line"/>
      <point x="847" y="966" type="line"/>
      <point x="790" y="866" type="line"/>
      <point x="746" y="884"/>
      <point x="695" y="894"/>
      <point x="641" y="894" type="curve" smooth="yes"/>
      <point x="361" y="894"/>
      <point x="87" y="620"/>
    </contour>
    <contour>
      <point x="923" y="536" type="curve" smooth="yes"/>
      <point x="923" y="230"/>
      <point x="677" y="-41"/>
      <point x="446" y="-41" type="curve" smooth="yes"/>
      <point x="393" y="-41"/>
      <point x="346" y="-26"/>
      <point x="306" y="0" type="curve"/>
      <point x="784" y="848" type="line"/>
      <point x="872" y="789"/>
      <point x="923" y="675"/>
    </contour>
    <contour>
      <point x="641" y="890" type="curve" smooth="yes"/>
      <point x="694" y="890"/>
      <point x="741" y="876"/>
      <point x="781" y="850" type="curve"/>
      <point x="303" y="2" type="line"/>
      <point x="219" y="61"/>
      <point x="171" y="175"/>
      <point x="171" y="314" type="curve" smooth="yes"/>
      <point x="171" y="567"/>
      <point x="376" y="890"/>
    </contour>
  </outline>
</glyph>
<glyph name="Uacute" format="2">
  <advance width="874"/>
  <unicode hex="00DA"/>
  <outline>
    <contour>
      <point x="855" y="862" type="line"/>
      <point x="738" y="402" type="line" smooth="yes"/>
      <point x="705" y="292"/>
      <point x="591" y="11"/>
      <point x="362" y="11" type="curve" smooth="yes"/>
      <point x="236" y="11"/>
      <point x="191" y="101"/>
      <point x="191" y="225" type="curve" smooth="yes"/>
      <point x="191" y="440"/>
      <point x="328" y="722"/>
      <point x="500" y="882" type="curve"/>
      <point x="499" y="882" type="line"/>
      <point x="444" y="895"/>
      <point x="345" y="908"/>
      <point x="286" y="908" type="curve" smooth="yes"/>
      <point x="86" y="908"/>
      <point x="-51" y="795"/>
      <point x="-53" y="702" type="curve" smooth="yes"/>
      <point x="-54" y="656"/>
      <point x="-18" y="611"/>
      <point x="24" y="611" type="curve" smooth="yes"/>
      <point x="86" y="611"/>
      <point x="106" y="657"/>
      <point x="105" y="705" type="curve"/>
      <point x="95" y="686"/>
      <point x="77" y="678"/>
      <point x="62" y="678" type="curve" smooth="yes"/>
      <point x="32" y="678"/>
      <point x="0" y="703"/>
      <point x="1" y="750" type="curve" smooth="yes"/>
      <point x="2" y="818"/>
      <point x="75" y="877"/>
      <point x="178" y="877" type="curve" smooth="yes"/>
      <point x="296" y="877"/>
      <point x="362" y="862"/>
      <point x="452" y="841" type="curve"/>
      <point x="260" y="662"/>
      <point x="97" y="405"/>
      <point x="97" y="215" type="curve" smooth="yes"/>
      <point x="97" y="81"/>
      <point x="178" y="-26"/>
      <point x="328" y="-26" type="curve" smooth="yes"/>
      <point x="543" y="-26"/>
      <point x="665" y="194"/>
      <point x="721" y="335" type="curve"/>
      <point x="689" y="208" type="line" smooth="yes"/>
      <point x="654" y="82"/>
      <point x="651" y="-8"/>
      <point x="791" y="-8" type="curve" smooth="yes"/>
      <point x="802" y="-8"/>
      <point x="836" y="-7"/>
      <point x="855" y="20" type="curve"/>
      <point x="851" y="21" type="line"/>
      <point x="837" y="3"/>
      <point x="823" y="1"/>
      <point x="813" y="1" type="curve" smooth="yes"/>
      <point x="759" y="1"/>
      <point x="730" y="50"/>
      <point x="770" y="208" type="curve" smooth="yes"/>
      <point x="927" y="818" type="line" smooth="yes"/>
      <point x="937" y="860"/>
      <point x="965" y="879"/>
      <point x="982" y="883" type="curve" smooth="yes"/>
      <point x="997" y="887" type="line"/>
      <point x="997" y="889" type="line"/>
      <point x="949" y="880" type="line"/>
    </contour>
    <contour>
      <point x="668" y="1008" type="line"/>
      <point x="857" y="1124" type="line" smooth="yes"/>
      <point x="917" y="1160"/>
      <point x="856" y="1242"/>
      <point x="804" y="1180" type="curve" smooth="yes"/>
      <point x="662" y="1008" type="line"/>
    </contour>
  </outline>
</glyph>
<glyph name="Ucircumflex" format="2">
  <advance width="874"/>
  <unicode hex="00DB"/>
  <outline>
    <contour>
      <point x="855" y="862" type="line"/>
      <point x="738" y="402" type="line" smooth="yes"/>
      <point x="705" y="292"/>
      <point x="591" y="11"/>
      <point x="362" y="11" type="curve" smooth="yes"/>
      <point x="236" y="11"/>
      <point x="191" y="101"/>
      <point x="191" y="225" type="curve" smooth="yes"/>
      <point x="191" y="440"/>
      <point x="328" y="722"/>
      <point x="500" y="882" type="curve"/>
      <point x="499" y="882" type="line"/>
      <point x="444" y="895"/>
      <point x="345" y="908"/>
      <point x="286" y="908" type="curve" smooth="yes"/>
      <point x="86" y="908"/>
      <point x="-51" y="795"/>
      <point x="-53" y="702" type="curve" smooth="yes"/>
      <point x="-54" y="656"/>
      <point x="-18" y="611"/>
      <point x="24" y="611" type="curve" smooth="yes"/>
      <point x="86" y="611"/>
      <point x="106" y="657"/>
      <point x="105" y="705" type="curve"/>
      <point x="95" y="686"/>
      <point x="77" y="678"/>
      <point x="62" y="678" type="curve" smooth="yes"/>
      <point x="32" y="678"/>
      <point x="0" y="703"/>
      <point x="1" y="750" type="curve" smooth="yes"/>
      <point x="2" y="818"/>
      <point x="75" y="877"/>
      <point x="178" y="877" type="curve" smooth="yes"/>
      <point x="296" y="877"/>
      <point x="362" y="862"/>
      <point x="452" y="841" type="curve"/>
      <point x="260" y="662"/>
      <point x="97" y="405"/>
      <point x="97" y="215" type="curve" smooth="yes"/>
      <point x="97" y="81"/>
      <point x="178" y="-26"/>
      <point x="328" y="-26" type="curve" smooth="yes"/>
      <point x="543" y="-26"/>
      <point x="665" y="194"/>
      <point x="721" y="335" type="curve"/>
      <point x="689" y="208" type="line" smooth="yes"/>
      <point x="654" y="82"/>
      <point x="651" y="-8"/>
      <point x="791" y="-8" type="curve" smooth="yes"/>
      <point x="802" y="-8"/>
      <point x="836" y="-7"/>
      <point x="855" y="20" type="curve"/>
      <point x="851" y="21" type="line"/>
      <point x="837" y="3"/>
      <point x="823" y="1"/>
      <point x="813" y="1" type="curve" smooth="yes"/>
      <point x="759" y="1"/>
      <point x="730" y="50"/>
      <point x="770" y="208" type="curve" smooth="yes"/>
      <point x="927" y="818" type="line" smooth="yes"/>
      <point x="937" y="860"/>
      <point x="965" y="879"/>
      <point x="982" y="883" type="curve" smooth="yes"/>
      <point x="997" y="887" type="line"/>
      <point x="997" y="889" type="line"/>
      <point x="949" y="880" type="line"/>
    </contour>
    <contour>
      <point x="763" y="1182" type="line" smooth="yes"/>
      <point x="754" y="1197"/>
      <point x="744" y="1192"/>
      <point x="734" y="1185" type="curve"/>
      <point x="558" y="1031" type="line"/>
      <point x="556" y="1023"/>
      <point x="558" y="1024"/>
      <point x="560" y="1024" type="curve"/>
      <point x="711" y="1108" type="line" smooth="yes"/>
      <point x="719" y="1112"/>
      <point x="726" y="1114"/>
      <point x="730" y="1114" type="curve" smooth="yes"/>
      <point x="736" y="1114"/>
      <point x="741" y="1113"/>
      <point x="747" y="1108" type="curve"/>
      <point x="843" y="1019" type="line"/>
      <point x="851" y="1014"/>
      <point x="853" y="1016"/>
      <point x="849" y="1024" type="curve" smooth="yes"/>
    </contour>
  </outline>
</glyph>
<glyph name="Yacute" format="2">
  <advance width="869"/>
  <unicode hex="00DD"/>
  <outline>
    <contour>
      <point x="768" y="431" type="line"/>
      <point x="768" y="432"/>
      <point x="769" y="434"/>
      <point x="769" y="436" type="curve"/>
      <point x="810" y="666"/>
      <point x="729" y="897"/>
      <point x="466" y="897" type="curve" smooth="yes"/>
      <point x="383" y="897"/>
      <point x="74" y="844"/>
      <point x="74" y="556" type="curve" smooth="yes"/>
      <point x="74" y="412"/>
      <point x="189" y="305"/>
      <point x="329" y="305" type="curve" smooth="yes"/>
      <point x="452" y="305"/>
      <point x="589" y="392"/>
      <point x="589" y="501" type="curve" smooth="yes"/>
      <point x="589" y="545"/>
      <point x="554" y="580"/>
      <point x="514" y="580" type="curve" smooth="yes"/>
      <point x="471" y="580"/>
      <point x="453" y="545"/>
      <point x="453" y="517" type="curve" smooth="yes"/>
      <point x="453" y="512"/>
      <point x="453" y="506"/>
      <point x="455" y="501" type="curve"/>
      <point x="461" y="520"/>
      <point x="479" y="530"/>
      <point x="497" y="530" type="curve" smooth="yes"/>
      <point x="528" y="530"/>
      <point x="548" y="502"/>
      <point x="548" y="465" type="curve" smooth="yes"/>
      <point x="548" y="370"/>
      <point x="447" y="315"/>
      <point x="356" y="315" type="curve" smooth="yes"/>
      <point x="205" y="315"/>
      <point x="128" y="437"/>
      <point x="128" y="567" type="curve" smooth="yes"/>
      <point x="128" y="784"/>
      <point x="310" y="885"/>
      <point x="416" y="885" type="curve" smooth="yes"/>
      <point x="722" y="885"/>
      <point x="736" y="580"/>
      <point x="684" y="367" type="curve" smooth="yes"/>
      <point x="618" y="74" type="line" smooth="yes"/>
      <point x="606" y="24"/>
      <point x="577" y="4"/>
      <point x="502" y="4" type="curve"/>
      <point x="502" y="0" type="line"/>
      <point x="777" y="0" type="line"/>
      <point x="778" y="4" type="line"/>
      <point x="738" y="4"/>
      <point x="687" y="10"/>
      <point x="702" y="74" type="curve" smooth="yes"/>
      <point x="768" y="363" type="line"/>
      <point x="769" y="367" type="line" smooth="yes"/>
      <point x="824" y="595"/>
      <point x="1081" y="940"/>
      <point x="1321" y="940" type="curve" smooth="yes"/>
      <point x="1421" y="940"/>
      <point x="1469" y="887"/>
      <point x="1469" y="824" type="curve" smooth="yes"/>
      <point x="1469" y="781"/>
      <point x="1446" y="743"/>
      <point x="1414" y="743" type="curve" smooth="yes"/>
      <point x="1399" y="743"/>
      <point x="1387" y="752"/>
      <point x="1385" y="767" type="curve"/>
      <point x="1382" y="759"/>
      <point x="1379" y="749"/>
      <point x="1379" y="741" type="curve" smooth="yes"/>
      <point x="1379" y="717"/>
      <point x="1396" y="695"/>
      <point x="1429" y="695" type="curve" smooth="yes"/>
      <point x="1476" y="695"/>
      <point x="1517" y="742"/>
      <point x="1517" y="789" type="curve" smooth="yes"/>
      <point x="1517" y="841"/>
      <point x="1469" y="947"/>
      <point x="1293" y="947" type="curve" smooth="yes"/>
      <point x="1103" y="947"/>
      <point x="954" y="775"/>
      <point x="851" y="585" type="curve" smooth="yes"/>
      <point x="823" y="534"/>
      <point x="797" y="482"/>
      <point x="775" y="431" type="curve"/>
    </contour>
    <contour>
      <point x="871" y="1008" type="line"/>
      <point x="1060" y="1124" type="line" smooth="yes"/>
      <point x="1120" y="1160"/>
      <point x="1059" y="1242"/>
      <point x="1007" y="1180" type="curve" smooth="yes"/>
      <point x="865" y="1008" type="line"/>
    </contour>
  </outline>
</glyph>
<glyph name="Thorn" format="2">
  <advance width="1285"/>
  <unicode hex="00DE"/>
  <outline>
    <contour>
      <point x="643" y="891" type="line" smooth="yes"/>
      <point x="357" y="891"/>
      <point x="4" y="710"/>
      <point x="4" y="393" type="curve" smooth="yes"/>
      <point x="4" y="245"/>
      <point x="127" y="123"/>
      <point x="304" y="123" type="curve" smooth="yes"/>
      <point x="464" y="123"/>
      <point x="618" y="229"/>
      <point x="618" y="370" type="curve" smooth="yes"/>
      <point x="618" y="428"/>
      <point x="573" y="473"/>
      <point x="520" y="473" type="curve" smooth="yes"/>
      <point x="464" y="473"/>
      <point x="441" y="428"/>
      <point x="441" y="391" type="curve" smooth="yes"/>
      <point x="441" y="384"/>
      <point x="441" y="377"/>
      <point x="443" y="370" type="curve"/>
      <point x="452" y="395"/>
      <point x="475" y="408"/>
      <point x="498" y="408" type="curve" smooth="yes"/>
      <point x="539" y="408"/>
      <point x="565" y="371"/>
      <point x="565" y="324" type="curve" smooth="yes"/>
      <point x="565" y="200"/>
      <point x="433" y="128"/>
      <point x="315" y="128" type="curve" smooth="yes"/>
      <point x="153" y="128"/>
      <point x="73" y="281"/>
      <point x="73" y="422" type="curve" smooth="yes"/>
      <point x="73" y="754"/>
      <point x="377" y="874"/>
      <point x="655" y="874" type="curve" smooth="yes"/>
      <point x="700" y="874"/>
      <point x="801" y="862"/>
      <point x="782" y="782" type="curve" smooth="yes"/>
      <point x="618" y="74" type="line" smooth="yes"/>
      <point x="606" y="24"/>
      <point x="577" y="4"/>
      <point x="502" y="4" type="curve"/>
      <point x="502" y="0" type="line"/>
      <point x="777" y="0" type="line"/>
      <point x="778" y="4" type="line"/>
      <point x="738" y="4"/>
      <point x="687" y="10"/>
      <point x="702" y="74" type="curve" smooth="yes"/>
      <point x="869" y="777" type="line"/>
      <point x="890" y="793"/>
      <point x="966" y="800"/>
      <point x="994" y="800" type="curve" smooth="yes"/>
      <point x="1191" y="800"/>
      <point x="1262" y="690"/>
      <point x="1262" y="559" type="curve"/>
      <point x="1257" y="361"/>
      <point x="1103" y="226"/>
      <point x="925" y="226" type="curve" smooth="yes"/>
      <point x="901" y="226"/>
      <point x="830" y="240"/>
      <point x="796" y="277" type="curve"/>
      <point x="784" y="262"/>
      <point x="810" y="245"/>
      <point x="823" y="239" type="curve" smooth="yes"/>
      <point x="847" y="228"/>
      <point x="889" y="221"/>
      <point x="948" y="221" type="curve" smooth="yes"/>
      <point x="1150" y="221"/>
      <point x="1341" y="359"/>
      <point x="1341" y="560" type="curve" smooth="yes"/>
      <point x="1341" y="695"/>
      <point x="1211" y="804"/>
      <point x="1006" y="804" type="curve" smooth="yes"/>
      <point x="943" y="804"/>
      <point x="892" y="798"/>
      <point x="874" y="796" type="curve"/>
      <point x="872" y="792" type="line"/>
      <point x="891" y="872" type="line"/>
      <point x="895" y="885"/>
      <point x="890" y="891"/>
      <point x="876" y="891" type="curve" smooth="yes"/>
    </contour>
  </outline>
</glyph>
<glyph name="germandbls" format="2">
  <advance width="538"/>
  <unicode hex="00DF"/>
  <outline>
    <contour>
      <point x="473" y="930" type="curve" smooth="yes"/>
      <point x="383" y="930"/>
      <point x="266" y="828"/>
      <point x="221" y="705" type="curve" smooth="yes"/>
      <point x="173" y="576"/>
      <point x="151" y="446"/>
      <point x="108" y="267" type="curve" smooth="yes"/>
      <point x="54" y="45" type="line" smooth="yes"/>
      <point x="45" y="7"/>
      <point x="22" y="4"/>
      <point x="-5" y="4" type="curve"/>
      <point x="-5" y="1" type="line"/>
      <point x="165" y="1" type="line"/>
      <point x="166" y="4" type="line"/>
      <point x="159" y="4" type="line" smooth="yes"/>
      <point x="130" y="4"/>
      <point x="118" y="15"/>
      <point x="125" y="45" type="curve" smooth="yes"/>
      <point x="282" y="702" type="line" smooth="yes"/>
      <point x="314" y="834"/>
      <point x="396" y="926"/>
      <point x="473" y="926" type="curve" smooth="yes"/>
      <point x="527" y="926"/>
      <point x="549" y="902"/>
      <point x="549" y="838" type="curve" smooth="yes"/>
      <point x="549" y="673"/>
      <point x="311" y="580"/>
      <point x="311" y="446" type="curve" smooth="yes"/>
      <point x="311" y="347"/>
      <point x="468" y="220"/>
      <point x="468" y="114" type="curve" smooth="yes"/>
      <point x="468" y="46"/>
      <point x="424" y="-4"/>
      <point x="332" y="-4" type="curve" smooth="yes"/>
      <point x="255" y="-4"/>
      <point x="234" y="39"/>
      <point x="233" y="77" type="curve" smooth="yes"/>
      <point x="233" y="118"/>
      <point x="261" y="157"/>
      <point x="305" y="157" type="curve" smooth="yes"/>
      <point x="318" y="157"/>
      <point x="337" y="151"/>
      <point x="340" y="132" type="curve"/>
      <point x="348" y="176"/>
      <point x="330" y="218"/>
      <point x="270" y="218" type="curve" smooth="yes"/>
      <point x="216" y="218"/>
      <point x="179" y="167"/>
      <point x="180" y="123" type="curve" smooth="yes"/>
      <point x="182" y="62"/>
      <point x="235" y="-10"/>
      <point x="333" y="-10" type="curve" smooth="yes"/>
      <point x="443" y="-10"/>
      <point x="532" y="80"/>
      <point x="532" y="167" type="curve" smooth="yes"/>
      <point x="532" y="289"/>
      <point x="382" y="363"/>
      <point x="382" y="488" type="curve" smooth="yes"/>
      <point x="382" y="655"/>
      <point x="597" y="689"/>
      <point x="597" y="834" type="curve" smooth="yes"/>
      <point x="597" y="900"/>
      <point x="547" y="930"/>
    </contour>
  </outline>
</glyph>
